<?xml version="1.0" encoding="utf-8"?>
<!-- Generator: Adobe Illustrator 22.1.0, SVG Export Plug-In . SVG Version: 6.00 Build 0)  -->
<svg version="1.1" id="Layer_1" xmlns="http://www.w3.org/2000/svg" xmlns:xlink="http://www.w3.org/1999/xlink" x="0px" y="0px"
	 viewBox="0 0 1201 333" style="enable-background:new 0 0 1201 333;" xml:space="preserve">
<style type="text/css">
	.st0{fill:#E6E7E8;}
	.st1{fill:#404040;}
	.st2{fill:#DC1B2F;}
	.st3{fill:#4BC7E9;}
	.st4{fill:#23A547;}
	.st5{fill:#FECB2B;}
</style>
<g>
	<g>
		<path class="st0" d="M15,228.7l243.6,2.8h197.8l68.5-1.3c0,0-7.1-12.6,44.5-16.2c51.6-3.6,70.6-12.5,94.8-7.1
			c24.2,5.4,77.9,21.8,77.9,21.8l48.2,4.3l281.3,11h120.9v72.8H15V228.7z"/>
	</g>
	<g>
		<path class="st1" d="M52.2,56.8c-1.5,1-3.2,1.9-5,2.6c-1.8,0.7-3.9,1.1-6.3,1.1c-1.6,0-3-0.2-4.2-0.6s-2.3-0.9-3.2-1.6
			c-0.9-0.7-1.6-1.5-2-2.4c-0.5-0.9-0.7-1.9-0.7-3s0.2-2.1,0.6-2.9c0.4-0.8,1-1.6,1.7-2.2c0.7-0.6,1.4-1.2,2.2-1.8
			c0.8-0.6,1.6-1.1,2.3-1.7c0.7-0.5,1.1-0.9,1.2-1.2c0.2-0.3,0.3-0.7,0.3-1.2v-1.1h7.4v1.8c0,0.7,0,1.2,0,1.7c0,0.5-0.1,0.9-0.2,1.3
			c-0.1,0.4-0.4,0.8-0.7,1.2s-0.8,0.8-1.4,1.2c-0.5,0.4-1,0.7-1.7,1.1c-0.6,0.4-1.2,0.7-1.7,1.1c-0.5,0.4-1,0.8-1.3,1.2
			c-0.4,0.4-0.5,0.8-0.5,1.2c0,0.5,0.2,0.9,0.7,1.1c0.5,0.2,1.2,0.4,2,0.4c2.3,0,4.7-0.9,7.4-2.7L52.2,56.8z M42.8,39
			c-1.3,0-2.2-0.4-2.9-1.1c-0.6-0.7-1-1.7-1-2.9s0.3-2.1,1-2.9c0.6-0.7,1.6-1.1,2.9-1.1c1.2,0,2.1,0.4,2.9,1.1
			c0.7,0.7,1.1,1.7,1.1,2.9c0,1.1-0.3,2.1-1,2.8C45.1,38.7,44.1,39,42.8,39z"/>
		<path class="st1" d="M78.5,49.8c-0.9,0.4-1.8,0.8-2.6,1.2c-0.8,0.3-1.7,0.6-2.5,0.9c-0.9,0.2-1.8,0.4-2.7,0.5
			c-1,0.1-2,0.2-3.2,0.2c-2.6,0-4.8-0.4-6.6-1.1c-1.8-0.8-3.3-1.8-4.4-3.1c-1.1-1.3-2-2.9-2.5-4.7c-0.5-1.8-0.8-3.8-0.8-5.9
			c0-2.1,0.3-4.1,1-5.9c0.7-1.8,1.6-3.3,2.9-4.7c1.3-1.3,2.8-2.3,4.7-3.1c1.9-0.7,4-1.1,6.5-1.1c1.9,0,3.6,0.2,5.3,0.7
			c1.6,0.5,3.1,1.1,4.3,1.7l-2.4,6.3c-0.9-0.4-1.7-0.7-2.4-1c-0.7-0.2-1.4-0.4-1.9-0.6c-0.6-0.1-1.1-0.2-1.6-0.3s-0.9-0.1-1.4-0.1
			c-2.1,0-3.7,0.7-4.9,2c-1.2,1.4-1.8,3.3-1.8,5.9c0,2.7,0.6,4.7,1.8,6c1.2,1.3,2.9,1.9,5,1.9c0.6,0,1.2,0,1.8-0.1s1.1-0.2,1.7-0.3
			c0.6-0.2,1.2-0.4,2-0.6c0.7-0.3,1.6-0.6,2.5-1L78.5,49.8z"/>
		<path class="st1" d="M94,52.6c-4.5,0-8-1.3-10.4-3.8c-2.4-2.5-3.6-6.2-3.6-11c0-1.8,0.3-3.6,0.8-5.4c0.5-1.8,1.3-3.3,2.5-4.7
			c1.1-1.4,2.6-2.5,4.4-3.3c1.8-0.8,3.9-1.3,6.5-1.3c2.7,0,5,0.4,6.8,1.3c1.8,0.8,3.3,2,4.4,3.3c1.1,1.4,1.9,3,2.3,4.7
			c0.5,1.8,0.7,3.6,0.7,5.4c0,1.9-0.3,3.7-0.8,5.4c-0.5,1.8-1.3,3.3-2.5,4.7c-1.1,1.4-2.6,2.5-4.4,3.3C98.7,52.1,96.6,52.6,94,52.6z
			 M94,45.6c1,0,2-0.2,2.7-0.6c0.8-0.4,1.4-1,1.9-1.7c0.5-0.7,0.9-1.6,1.1-2.5c0.2-1,0.4-2,0.4-3c0-1.1-0.1-2.1-0.3-3
			c-0.2-0.9-0.6-1.8-1-2.5c-0.5-0.7-1.1-1.3-1.9-1.7c-0.8-0.4-1.7-0.6-2.8-0.6c-1.1,0-2,0.2-2.8,0.6c-0.7,0.4-1.4,1-1.8,1.7
			c-0.5,0.7-0.8,1.5-1,2.5c-0.2,0.9-0.3,2-0.3,3c0,0.9,0.1,1.8,0.3,2.8c0.2,0.9,0.5,1.8,0.9,2.6c0.4,0.8,1,1.4,1.8,1.9
			C91.8,45.4,92.8,45.6,94,45.6z M93.1,21.9l-3.7-3.4l6.7-7.5l4.6,4.6L93.1,21.9z"/>
		<path class="st1" d="M132.4,51.9V37.4l-1,2c-0.4,0.8-0.8,1.4-1.1,2c-0.3,0.6-0.7,1.1-1.1,1.5c-0.4,0.4-0.9,0.7-1.4,0.9
			c-0.5,0.2-1.1,0.3-1.7,0.3c-0.7,0-1.3-0.1-1.8-0.3c-0.5-0.2-1-0.5-1.4-0.9c-0.4-0.4-0.8-0.9-1.2-1.5c-0.4-0.6-0.7-1.3-1.1-2.1
			l-1-2v14.6h-7.6V23.6h6.8l6.7,12.3c0.2,0.3,0.4,0.5,0.6,0.5c0.2,0,0.4-0.1,0.6-0.4l6.6-12.4h6.8v28.3H132.4z"/>
		<path class="st1" d="M157.8,52.6c-4.5,0-8-1.3-10.4-3.8c-2.4-2.5-3.6-6.2-3.6-11c0-1.8,0.3-3.6,0.8-5.4c0.5-1.8,1.3-3.3,2.5-4.7
			c1.1-1.4,2.6-2.5,4.4-3.3c1.8-0.8,3.9-1.3,6.5-1.3c2.7,0,5,0.4,6.8,1.3c1.8,0.8,3.3,2,4.4,3.3c1.1,1.4,1.9,3,2.3,4.7
			c0.5,1.8,0.7,3.6,0.7,5.4c0,1.9-0.3,3.7-0.8,5.4c-0.5,1.8-1.3,3.3-2.5,4.7c-1.1,1.4-2.6,2.5-4.4,3.3
			C162.6,52.1,160.4,52.6,157.8,52.6z M157.8,45.6c1,0,2-0.2,2.7-0.6c0.8-0.4,1.4-1,1.9-1.7c0.5-0.7,0.9-1.6,1.1-2.5
			c0.2-1,0.4-2,0.4-3c0-1.1-0.1-2.1-0.3-3c-0.2-0.9-0.6-1.8-1-2.5c-0.5-0.7-1.1-1.3-1.9-1.7c-0.8-0.4-1.7-0.6-2.8-0.6
			c-1.1,0-2,0.2-2.8,0.6c-0.7,0.4-1.4,1-1.8,1.7c-0.5,0.7-0.8,1.5-1,2.5c-0.2,0.9-0.3,2-0.3,3c0,0.9,0.1,1.8,0.3,2.8
			c0.2,0.9,0.5,1.8,0.9,2.6c0.4,0.8,1,1.4,1.8,1.9C155.7,45.4,156.6,45.6,157.8,45.6z"/>
		<path class="st1" d="M182.8,51.9V23.6H204v6.6h-13.3v4h10.2v6.6h-10.2v11.2H182.8z"/>
		<path class="st1" d="M224.4,23.6h7.9v16.2c0,1.9-0.2,3.6-0.5,5.2s-1,2.9-1.9,4.1c-0.9,1.1-2.2,2-3.8,2.6c-1.6,0.6-3.6,0.9-6,0.9
			c-2.5,0-4.6-0.3-6.2-0.8c-1.6-0.6-2.9-1.4-3.8-2.4c-0.9-1.1-1.5-2.4-1.9-3.9c-0.3-1.5-0.5-3.3-0.5-5.2V23.6h7.9v15.9
			c0,1,0.1,2,0.2,2.8c0.1,0.8,0.3,1.5,0.6,2c0.3,0.6,0.8,1,1.3,1.3c0.6,0.3,1.3,0.4,2.3,0.4c0.9,0,1.6-0.1,2.2-0.4
			c0.6-0.3,1-0.7,1.3-1.3c0.3-0.5,0.6-1.2,0.7-2c0.1-0.8,0.2-1.6,0.2-2.6V23.6z"/>
		<path class="st1" d="M244.9,37.4v14.5h-7.6V23.6h7.1l10.4,17.6V23.6h7.3V47c0,1.6-0.4,2.9-1.1,3.9c-0.7,1-1.9,1.5-3.5,1.5
			c-1,0-1.9-0.3-2.9-0.8c-0.9-0.5-1.8-1.5-2.7-2.9L244.9,37.4z"/>
		<path class="st1" d="M291.1,49.8c-0.9,0.4-1.8,0.8-2.6,1.2c-0.8,0.3-1.7,0.6-2.5,0.9c-0.9,0.2-1.8,0.4-2.7,0.5s-2,0.2-3.2,0.2
			c-2.6,0-4.8-0.4-6.6-1.1c-1.8-0.8-3.3-1.8-4.4-3.1c-1.1-1.3-2-2.9-2.5-4.7c-0.5-1.8-0.8-3.8-0.8-5.9c0-2.1,0.3-4.1,1-5.9
			c0.7-1.8,1.6-3.3,2.9-4.7c1.3-1.3,2.8-2.3,4.7-3.1c1.9-0.7,4-1.1,6.5-1.1c1.9,0,3.6,0.2,5.3,0.7c1.6,0.5,3.1,1.1,4.3,1.7l-2.4,6.3
			c-0.9-0.4-1.7-0.7-2.4-1c-0.7-0.2-1.4-0.4-1.9-0.6c-0.6-0.1-1.1-0.2-1.6-0.3c-0.5-0.1-0.9-0.1-1.4-0.1c-2.1,0-3.7,0.7-4.9,2
			c-1.2,1.4-1.8,3.3-1.8,5.9c0,2.7,0.6,4.7,1.8,6c1.2,1.3,2.9,1.9,5,1.9c0.6,0,1.2,0,1.8-0.1c0.6-0.1,1.1-0.2,1.7-0.3s1.2-0.4,2-0.6
			c0.7-0.3,1.6-0.6,2.5-1L291.1,49.8z"/>
		<path class="st1" d="M294.4,51.9V23.6h7.9v28.3H294.4z"/>
		<path class="st1" d="M320.1,52.6c-4.5,0-8-1.3-10.4-3.8c-2.4-2.5-3.6-6.2-3.6-11c0-1.8,0.3-3.6,0.8-5.4c0.5-1.8,1.3-3.3,2.5-4.7
			c1.1-1.4,2.6-2.5,4.4-3.3c1.8-0.8,3.9-1.3,6.5-1.3c2.7,0,5,0.4,6.8,1.3c1.8,0.8,3.3,2,4.4,3.3c1.1,1.4,1.9,3,2.3,4.7
			c0.5,1.8,0.7,3.6,0.7,5.4c0,1.9-0.3,3.7-0.8,5.4c-0.5,1.8-1.3,3.3-2.5,4.7c-1.1,1.4-2.6,2.5-4.4,3.3
			C324.9,52.1,322.7,52.6,320.1,52.6z M320.1,45.6c1,0,2-0.2,2.7-0.6c0.8-0.4,1.4-1,1.9-1.7c0.5-0.7,0.9-1.6,1.1-2.5
			c0.2-1,0.4-2,0.4-3c0-1.1-0.1-2.1-0.3-3c-0.2-0.9-0.5-1.8-1-2.5c-0.5-0.7-1.1-1.3-1.9-1.7c-0.8-0.4-1.7-0.6-2.8-0.6
			s-2,0.2-2.8,0.6c-0.7,0.4-1.4,1-1.8,1.7c-0.5,0.7-0.8,1.5-1,2.5c-0.2,0.9-0.3,2-0.3,3c0,0.9,0.1,1.8,0.3,2.8
			c0.2,0.9,0.5,1.8,0.9,2.6c0.4,0.8,1,1.4,1.8,1.9C318,45.4,319,45.6,320.1,45.6z"/>
		<path class="st1" d="M345.7,37.4v14.5h-7.6V23.6h7.1l10.4,17.6V23.6h7.3V47c0,1.6-0.4,2.9-1.1,3.9c-0.7,1-1.9,1.5-3.5,1.5
			c-1,0-1.9-0.3-2.9-0.8c-0.9-0.5-1.8-1.5-2.7-2.9L345.7,37.4z"/>
		<path class="st1" d="M386.8,52.8l-2.2-8h-9.2l-2.3,8l-7.6-1.7l6.4-21.9c0.3-1,0.6-1.9,1.1-2.7s1-1.4,1.6-1.9
			c0.7-0.5,1.4-0.9,2.4-1.2c0.9-0.3,2-0.4,3.3-0.4c1.2,0,2.2,0.1,3.1,0.4c0.9,0.2,1.6,0.6,2.2,1.1s1.1,1.1,1.5,1.8
			c0.4,0.7,0.7,1.5,1,2.4l6.4,22.4L386.8,52.8z M382.8,38.4l-2.2-8.6c-0.1-0.3-0.2-0.4-0.4-0.4c-0.2,0-0.4,0.1-0.4,0.4l-2.5,8.6
			H382.8z"/>
		<path class="st1" d="M399.6,42.7v-1.8c0-0.7,0-1.2,0-1.7c0-0.5,0.1-0.9,0.2-1.3c0.1-0.4,0.4-0.8,0.7-1.2c0.3-0.4,0.8-0.8,1.4-1.2
			c0.5-0.3,1-0.7,1.7-1.1s1.2-0.7,1.7-1.1s1-0.8,1.3-1.2c0.4-0.4,0.5-0.8,0.5-1.2c0-0.5-0.2-0.9-0.7-1.1c-0.5-0.2-1.2-0.4-2-0.4
			c-2.3,0-4.7,0.9-7.4,2.7l-3.1-5.3c0.7-0.5,1.5-1,2.4-1.4c0.8-0.4,1.7-0.8,2.6-1.2c0.9-0.3,1.9-0.6,2.9-0.8c1-0.2,2.1-0.3,3.3-0.3
			c1.6,0,3,0.2,4.2,0.5c1.3,0.4,2.3,0.9,3.2,1.6c0.9,0.7,1.6,1.5,2,2.4s0.7,1.9,0.7,3s-0.2,2.1-0.7,2.9c-0.4,0.8-1,1.6-1.7,2.2
			c-0.7,0.6-1.4,1.2-2.2,1.8c-0.8,0.5-1.5,1.1-2.2,1.7c-0.3,0.3-0.6,0.5-0.8,0.7s-0.3,0.4-0.5,0.5c-0.1,0.2-0.2,0.4-0.2,0.6
			s-0.1,0.4-0.1,0.7v1.1H399.6z M403.4,52.5c-1.2,0-2.2-0.4-2.9-1.1c-0.7-0.7-1.1-1.7-1.1-2.9c0-1.2,0.3-2.1,1-2.9s1.6-1.1,2.9-1.1
			c1.3,0,2.2,0.4,2.9,1.1c0.6,0.7,1,1.7,1,2.9c0,1.2-0.3,2.1-1,2.9C405.6,52.2,404.6,52.5,403.4,52.5z"/>
	</g>
	<g>
		<path class="st2" d="M135.8,232.8h62.6c0,0,4.5,6.8,10.4,6.5c5.8-0.3,9.7-4.5,10.1-6.5h1.6l0,0h10.1h1.6h4.2l-2.3-2.6l-0.3-10.1
			c0,0-6.2-9.1-28.6-9.7c0,0-22.4-14.3-32.8-14.6c-10.4-0.3-35,0-35,0l-2.9-0.1l-1.6,1.8c0,0-20.1,4.2-22.4,6.8c0,0-9.1-1-8.1,0.3
			c1,1.3,2.9,3.2,1.9,4.5s-8.4,14-4.9,17.8c3.6,3.9,11,4.9,16.2,4.5c0,0,3.2,7.8,9.4,7.8S136.1,235.4,135.8,232.8z"/>
	</g>
	<g>
		<path class="st2" d="M348.7,232.8h62.6c0,0,4.5,6.8,10.4,6.5c5.8-0.3,9.7-4.5,10.1-6.5h1.6l0,0h10.1h1.6h4.2l-2.3-2.6l-0.3-10.1
			c0,0-6.2-9.1-28.6-9.7c0,0-22.4-14.3-32.8-14.6c-10.4-0.3-35,0-35,0l-2.9-0.1l-1.6,1.8c0,0-20.1,4.2-22.4,6.8c0,0-9.1-1-8.1,0.3
			c1,1.3,2.9,3.2,1.9,4.5c-1,1.3-8.4,14-4.9,17.8c3.6,3.9,11,4.9,16.2,4.5c0,0,3.2,7.8,9.4,7.8C344.1,239.3,349,235.4,348.7,232.8z"
			/>
	</g>
	<g>
		<path class="st2" d="M1040,244h62.6c0,0,4.5,6.8,10.4,6.5c5.8-0.3,9.7-4.5,10.1-6.5h1.6l0,0h10.1h1.6h4.2l-2.3-2.6l-0.3-10.1
			c0,0-6.2-9.1-28.6-9.7c0,0-22.4-14.3-32.8-14.6c-10.4-0.3-35,0-35,0l-2.9-0.1l-1.6,1.8c0,0-20.1,4.2-22.4,6.8c0,0-9.1-1-8.1,0.3
			s2.9,3.2,1.9,4.5c-1,1.3-8.4,14-4.9,17.8c3.6,3.9,11,4.9,16.2,4.5c0,0,3.2,7.8,9.4,7.8S1040.3,246.6,1040,244z"/>
	</g>
	<g>
		<path class="st2" d="M563.8,214l62.5-4.3c0,0,5,6.5,10.8,5.8c5.8-0.7,9.4-5.2,9.6-7.2l1.6-0.1l0,0l10-0.7l1.6-0.1l4.2-0.3
			l-2.4-2.4l-1-10c0,0-6.8-8.6-29.2-7.7c0,0-23.3-12.7-33.7-12.3c-10.4,0.4-35,2.4-35,2.4l-2.9,0.1l-1.5,1.9c0,0-19.8,5.6-21.9,8.3
			c0,0-9.1-0.3-8.1,0.9c1.1,1.2,3.1,3,2.3,4.4c-0.9,1.4-7.4,14.5-3.6,18.1c3.8,3.6,11.3,4.1,16.5,3.4c0,0,3.8,7.6,9.9,7.1
			S564.3,216.5,563.8,214z"/>
	</g>
	<g>
		<path class="st2" d="M801.2,230.9l62.6,1.6c0,0,4.4,6.9,10.2,6.7c5.8-0.2,9.8-4.3,10.2-6.2l1.6,0l0,0l10.1,0.3l1.6,0l4.2,0.1
			l-2.2-2.7l-0.1-10.1c0,0-5.9-9.2-28.3-10.4c0,0-22-14.8-32.4-15.4c-10.4-0.6-35-0.9-35-0.9l-2.9-0.2l-1.7,1.7
			c0,0-20.2,3.7-22.6,6.2c0,0-9.1-1.2-8.1,0.1c0.9,1.3,2.8,3.3,1.8,4.6c-1,1.3-8.8,13.7-5.3,17.7s10.9,5.1,16.1,4.9c0,0,3,7.9,9.2,8
			S801.5,233.5,801.2,230.9z"/>
	</g>
	<g>
		<path class="st3" d="M232.9,284.2h-38.8c-1.9,0-3.5-1.6-3.5-3.5l0,0c0-1.9,1.6-3.5,3.5-3.5h38.8c1.9,0,3.5,1.6,3.5,3.5l0,0
			C236.4,282.6,234.8,284.2,232.9,284.2z"/>
	</g>
	<g>
		<path class="st4" d="M183.9,284.2h-38.8c-1.9,0-3.5-1.6-3.5-3.5l0,0c0-1.9,1.6-3.5,3.5-3.5h38.8c1.9,0,3.5,1.6,3.5,3.5l0,0
			C187.4,282.6,185.8,284.2,183.9,284.2z"/>
	</g>
	<g>
		<path class="st4" d="M183.9,274.7h-38.8c-1.9,0-3.5-1.6-3.5-3.5l0,0c0-1.9,1.6-3.5,3.5-3.5h38.8c1.9,0,3.5,1.6,3.5,3.5l0,0
			C187.4,273.1,185.8,274.7,183.9,274.7z"/>
	</g>
	<g>
		<path class="st4" d="M183.9,265.1h-38.8c-1.9,0-3.5-1.6-3.5-3.5l0,0c0-1.9,1.6-3.5,3.5-3.5h38.8c1.9,0,3.5,1.6,3.5,3.5l0,0
			C187.4,263.6,185.8,265.1,183.9,265.1z"/>
	</g>
	<g>
		<path class="st4" d="M183.9,255.6h-38.8c-1.9,0-3.5-1.6-3.5-3.5l0,0c0-1.9,1.6-3.5,3.5-3.5h38.8c1.9,0,3.5,1.6,3.5,3.5l0,0
			C187.4,254,185.8,255.6,183.9,255.6z"/>
	</g>
	<g>
		<path class="st5" d="M135.7,284.2H96.8c-1.9,0-3.5-1.6-3.5-3.5l0,0c0-1.9,1.6-3.5,3.5-3.5h38.8c1.9,0,3.5,1.6,3.5,3.5l0,0
			C139.1,282.6,137.6,284.2,135.7,284.2z"/>
	</g>
	<g>
		<g>
			<path class="st1" d="M550,29.7v-4.9l-0.3,0.7c-0.1,0.3-0.3,0.5-0.4,0.7s-0.2,0.4-0.4,0.5c-0.1,0.1-0.3,0.2-0.5,0.3
				c-0.2,0.1-0.4,0.1-0.6,0.1c-0.2,0-0.4,0-0.6-0.1c-0.2-0.1-0.3-0.2-0.5-0.3c-0.1-0.1-0.3-0.3-0.4-0.5s-0.2-0.4-0.4-0.7l-0.3-0.7v5
				H543V20h2.3l2.3,4.2c0.1,0.1,0.1,0.2,0.2,0.2s0.1,0,0.2-0.1l2.3-4.2h2.3v9.7H550z"/>
			<path class="st1" d="M558.7,29.9c-1.5,0-2.7-0.4-3.6-1.3c-0.8-0.9-1.2-2.1-1.2-3.7c0-0.6,0.1-1.2,0.3-1.8
				c0.2-0.6,0.5-1.1,0.8-1.6c0.4-0.5,0.9-0.9,1.5-1.1c0.6-0.3,1.3-0.4,2.2-0.4c0.9,0,1.7,0.1,2.3,0.4c0.6,0.3,1.1,0.7,1.5,1.1
				c0.4,0.5,0.6,1,0.8,1.6c0.2,0.6,0.2,1.2,0.2,1.8c0,0.6-0.1,1.3-0.3,1.9c-0.2,0.6-0.5,1.1-0.8,1.6s-0.9,0.9-1.5,1.1
				C560.3,29.7,559.5,29.9,558.7,29.9z M558.6,27.5c0.4,0,0.7-0.1,0.9-0.2c0.3-0.1,0.5-0.3,0.6-0.6s0.3-0.5,0.4-0.9
				c0.1-0.3,0.1-0.7,0.1-1s0-0.7-0.1-1c-0.1-0.3-0.2-0.6-0.3-0.8s-0.4-0.4-0.6-0.6c-0.3-0.1-0.6-0.2-1-0.2s-0.7,0.1-0.9,0.2
				c-0.3,0.1-0.5,0.3-0.6,0.6c-0.2,0.2-0.3,0.5-0.3,0.8c-0.1,0.3-0.1,0.7-0.1,1c0,0.3,0,0.6,0.1,1c0.1,0.3,0.2,0.6,0.3,0.9
				c0.2,0.3,0.4,0.5,0.6,0.6C557.9,27.4,558.3,27.5,558.6,27.5z"/>
			<path class="st1" d="M566.4,29.7v-7.4h-2.7V20h8v2.3h-2.7v7.4H566.4z"/>
			<path class="st1" d="M576.8,29.9c-1.5,0-2.7-0.4-3.6-1.3c-0.8-0.9-1.2-2.1-1.2-3.7c0-0.6,0.1-1.2,0.3-1.8
				c0.2-0.6,0.5-1.1,0.8-1.6c0.4-0.5,0.9-0.9,1.5-1.1c0.6-0.3,1.3-0.4,2.2-0.4c0.9,0,1.7,0.1,2.3,0.4c0.6,0.3,1.1,0.7,1.5,1.1
				c0.4,0.5,0.6,1,0.8,1.6c0.2,0.6,0.2,1.2,0.2,1.8c0,0.6-0.1,1.3-0.3,1.9c-0.2,0.6-0.5,1.1-0.8,1.6s-0.9,0.9-1.5,1.1
				C578.5,29.7,577.7,29.9,576.8,29.9z M576.8,27.5c0.4,0,0.7-0.1,0.9-0.2c0.3-0.1,0.5-0.3,0.6-0.6s0.3-0.5,0.4-0.9
				c0.1-0.3,0.1-0.7,0.1-1s0-0.7-0.1-1c-0.1-0.3-0.2-0.6-0.3-0.8s-0.4-0.4-0.6-0.6c-0.3-0.1-0.6-0.2-1-0.2s-0.7,0.1-0.9,0.2
				c-0.3,0.1-0.5,0.3-0.6,0.6c-0.2,0.2-0.3,0.5-0.3,0.8c-0.1,0.3-0.1,0.7-0.1,1c0,0.3,0,0.6,0.1,1c0.1,0.3,0.2,0.6,0.3,0.9
				c0.2,0.3,0.4,0.5,0.6,0.6C576.1,27.4,576.4,27.5,576.8,27.5z"/>
			<path class="st1" d="M589.1,30l-2.3-2.9c-0.2-0.3-0.4-0.5-0.5-0.6c-0.1-0.1-0.3-0.2-0.5-0.2h-0.1v3.3h-2.7V20h4
				c0.5,0,0.9,0.1,1.4,0.2c0.4,0.1,0.8,0.3,1.1,0.5c0.3,0.2,0.5,0.5,0.7,0.9s0.2,0.7,0.2,1.2c0,0.4-0.1,0.8-0.2,1.1
				c-0.1,0.3-0.3,0.6-0.4,0.8c-0.2,0.2-0.4,0.4-0.6,0.6c-0.2,0.1-0.5,0.3-0.7,0.3c0.2,0.1,0.4,0.2,0.5,0.3c0.2,0.1,0.3,0.3,0.4,0.4
				l1.8,2.3L589.1,30z M585.6,24.1h0.9c0.4,0,0.7-0.1,0.9-0.3c0.2-0.2,0.3-0.4,0.3-0.7c0-0.4-0.1-0.7-0.3-0.8
				c-0.2-0.1-0.5-0.2-0.9-0.2h-0.9V24.1z"/>
			<path class="st1" d="M601.1,30l-0.7-2.7h-3.1l-0.8,2.7l-2.6-0.6l2.2-7.5c0.1-0.3,0.2-0.7,0.4-0.9c0.1-0.3,0.3-0.5,0.6-0.7
				c0.2-0.2,0.5-0.3,0.8-0.4c0.3-0.1,0.7-0.1,1.1-0.1c0.4,0,0.8,0,1.1,0.1c0.3,0.1,0.5,0.2,0.7,0.4s0.4,0.4,0.5,0.6
				c0.1,0.2,0.2,0.5,0.3,0.8l2.2,7.6L601.1,30z M599.7,25l-0.8-2.9c0-0.1-0.1-0.1-0.1-0.1c-0.1,0-0.1,0-0.1,0.1l-0.9,2.9H599.7z"/>
			<path class="st1" d="M615.2,29c-0.3,0.2-0.6,0.3-0.9,0.4c-0.3,0.1-0.6,0.2-0.9,0.3c-0.3,0.1-0.6,0.1-0.9,0.2
				c-0.3,0-0.7,0.1-1.1,0.1c-0.9,0-1.6-0.1-2.2-0.4c-0.6-0.3-1.1-0.6-1.5-1.1s-0.7-1-0.9-1.6c-0.2-0.6-0.3-1.3-0.3-2
				c0-0.7,0.1-1.4,0.3-2c0.2-0.6,0.6-1.1,1-1.6c0.4-0.4,1-0.8,1.6-1c0.6-0.2,1.4-0.4,2.2-0.4c0.6,0,1.2,0.1,1.8,0.3s1,0.4,1.5,0.6
				l-0.8,2.1c-0.3-0.1-0.6-0.2-0.8-0.3s-0.5-0.2-0.7-0.2c-0.2,0-0.4-0.1-0.5-0.1s-0.3,0-0.5,0c-0.7,0-1.3,0.2-1.7,0.7
				s-0.6,1.1-0.6,2c0,0.9,0.2,1.6,0.6,2c0.4,0.4,1,0.7,1.7,0.7c0.2,0,0.4,0,0.6,0c0.2,0,0.4-0.1,0.6-0.1s0.4-0.1,0.7-0.2
				c0.2-0.1,0.5-0.2,0.9-0.4L615.2,29z"/>
			<path class="st1" d="M620.4,29.9c-1.5,0-2.7-0.4-3.6-1.3c-0.8-0.9-1.2-2.1-1.2-3.7c0-0.6,0.1-1.2,0.3-1.8
				c0.2-0.6,0.5-1.1,0.8-1.6c0.4-0.5,0.9-0.9,1.5-1.1c0.6-0.3,1.3-0.4,2.2-0.4c0.9,0,1.7,0.1,2.3,0.4c0.6,0.3,1.1,0.7,1.5,1.1
				c0.4,0.5,0.6,1,0.8,1.6c0.2,0.6,0.2,1.2,0.2,1.8c0,0.6-0.1,1.3-0.3,1.9c-0.2,0.6-0.5,1.1-0.8,1.6s-0.9,0.9-1.5,1.1
				C622.1,29.7,621.3,29.9,620.4,29.9z M620.4,27.5c0.4,0,0.7-0.1,0.9-0.2c0.3-0.1,0.5-0.3,0.6-0.6s0.3-0.5,0.4-0.9
				c0.1-0.3,0.1-0.7,0.1-1s0-0.7-0.1-1c-0.1-0.3-0.2-0.6-0.3-0.8s-0.4-0.4-0.6-0.6c-0.3-0.1-0.6-0.2-1-0.2s-0.7,0.1-0.9,0.2
				c-0.3,0.1-0.5,0.3-0.6,0.6c-0.2,0.2-0.3,0.5-0.3,0.8c-0.1,0.3-0.1,0.7-0.1,1c0,0.3,0,0.6,0.1,1c0.1,0.3,0.2,0.6,0.3,0.9
				c0.2,0.3,0.4,0.5,0.6,0.6C619.7,27.4,620,27.5,620.4,27.5z"/>
			<path class="st1" d="M633.5,29.7v-4.9l-0.3,0.7c-0.1,0.3-0.3,0.5-0.4,0.7s-0.2,0.4-0.4,0.5c-0.1,0.1-0.3,0.2-0.5,0.3
				c-0.2,0.1-0.4,0.1-0.6,0.1c-0.2,0-0.4,0-0.6-0.1c-0.2-0.1-0.3-0.2-0.5-0.3c-0.1-0.1-0.3-0.3-0.4-0.5s-0.2-0.4-0.4-0.7l-0.3-0.7v5
				h-2.6V20h2.3l2.3,4.2c0.1,0.1,0.1,0.2,0.2,0.2s0.1,0,0.2-0.1l2.3-4.2h2.3v9.7H633.5z"/>
			<path class="st1" d="M637.8,29.7V20h4.1c0.5,0,0.9,0,1.3,0.1s0.8,0.2,1,0.4c0.3,0.2,0.5,0.4,0.7,0.8c0.2,0.3,0.2,0.7,0.2,1.1
				c0,0.5-0.1,0.9-0.3,1.2c-0.2,0.3-0.4,0.6-0.7,0.8c0.5,0.2,0.8,0.5,1.1,0.9c0.3,0.4,0.4,0.8,0.4,1.3s-0.1,0.9-0.3,1.3
				c-0.2,0.4-0.4,0.7-0.7,0.9s-0.7,0.4-1.1,0.6c-0.4,0.1-0.9,0.2-1.4,0.2H637.8z M640.5,23.7h1.2c0.3,0,0.5-0.1,0.7-0.2
				s0.3-0.3,0.3-0.6c0-0.3-0.1-0.5-0.3-0.6c-0.2-0.1-0.5-0.1-1-0.1h-0.8V23.7z M640.5,27.5h1.4c0.1,0,0.2,0,0.4-0.1
				c0.1,0,0.2-0.1,0.3-0.2s0.2-0.2,0.2-0.3c0.1-0.1,0.1-0.2,0.1-0.4c0-0.2-0.1-0.5-0.3-0.6c-0.2-0.2-0.5-0.2-1-0.2h-1.2V27.5z"/>
			<path class="st1" d="M652.6,20h2.7v5.5c0,0.6-0.1,1.2-0.2,1.8c-0.1,0.5-0.3,1-0.7,1.4c-0.3,0.4-0.7,0.7-1.3,0.9
				c-0.5,0.2-1.2,0.3-2.1,0.3c-0.9,0-1.6-0.1-2.1-0.3c-0.5-0.2-1-0.5-1.3-0.8c-0.3-0.4-0.5-0.8-0.6-1.3c-0.1-0.5-0.2-1.1-0.2-1.8V20
				h2.7v5.4c0,0.4,0,0.7,0.1,0.9s0.1,0.5,0.2,0.7c0.1,0.2,0.3,0.3,0.5,0.4c0.2,0.1,0.5,0.1,0.8,0.1c0.3,0,0.6,0,0.7-0.1
				c0.2-0.1,0.3-0.2,0.5-0.4c0.1-0.2,0.2-0.4,0.2-0.7s0.1-0.6,0.1-0.9V20z"/>
			<path class="st1" d="M657,26.8c0.7,0.2,1.3,0.4,1.8,0.5c0.5,0.1,1,0.2,1.4,0.2c0.5,0,0.9-0.1,1.1-0.2c0.2-0.1,0.3-0.3,0.3-0.5
				c0-0.3-0.1-0.5-0.4-0.6s-0.7-0.2-1.2-0.4c-0.4-0.1-0.9-0.2-1.3-0.3c-0.4-0.1-0.7-0.3-1.1-0.5c-0.3-0.2-0.5-0.5-0.7-0.8
				c-0.2-0.3-0.3-0.7-0.3-1.2c0-0.4,0.1-0.8,0.2-1.2s0.4-0.7,0.7-1s0.7-0.5,1.3-0.7s1.2-0.3,1.9-0.3c0.6,0,1.3,0.1,1.9,0.2
				c0.6,0.1,1.2,0.3,1.6,0.5l-0.6,2.2c-1.2-0.4-2.2-0.6-3.1-0.6c-0.4,0-0.7,0.1-0.9,0.2c-0.2,0.1-0.3,0.3-0.3,0.5
				c0,0.2,0.1,0.4,0.3,0.5c0.2,0.1,0.6,0.3,1.1,0.4c0.4,0.1,0.9,0.2,1.3,0.3s0.8,0.3,1.1,0.5c0.3,0.2,0.6,0.5,0.8,0.8
				s0.3,0.8,0.3,1.3c0,0.5-0.1,0.9-0.3,1.3c-0.2,0.4-0.5,0.7-0.8,1s-0.8,0.5-1.3,0.7s-1.1,0.2-1.8,0.2c-0.4,0-0.8,0-1.2-0.1
				s-0.8-0.1-1.1-0.2c-0.3-0.1-0.7-0.2-0.9-0.3c-0.3-0.1-0.5-0.2-0.7-0.2L657,26.8z"/>
			<path class="st1" d="M667.8,29.7v-7.4h-2.7V20h8v2.3h-2.7v7.4H667.8z"/>
			<path class="st1" d="M674.1,29.7V20h2.7v9.7H674.1z"/>
			<path class="st1" d="M682.9,29.9c-1.5,0-2.7-0.4-3.6-1.3c-0.8-0.9-1.2-2.1-1.2-3.7c0-0.6,0.1-1.2,0.3-1.8
				c0.2-0.6,0.5-1.1,0.8-1.6c0.4-0.5,0.9-0.9,1.5-1.1c0.6-0.3,1.3-0.4,2.2-0.4c0.9,0,1.7,0.1,2.3,0.4c0.6,0.3,1.1,0.7,1.5,1.1
				c0.4,0.5,0.6,1,0.8,1.6c0.2,0.6,0.2,1.2,0.2,1.8c0,0.6-0.1,1.3-0.3,1.9c-0.2,0.6-0.5,1.1-0.8,1.6s-0.9,0.9-1.5,1.1
				C684.6,29.7,683.8,29.9,682.9,29.9z M682.9,27.5c0.4,0,0.7-0.1,0.9-0.2c0.3-0.1,0.5-0.3,0.6-0.6s0.3-0.5,0.4-0.9
				c0.1-0.3,0.1-0.7,0.1-1s0-0.7-0.1-1c-0.1-0.3-0.2-0.6-0.3-0.8s-0.4-0.4-0.6-0.6c-0.3-0.1-0.6-0.2-1-0.2s-0.7,0.1-0.9,0.2
				c-0.3,0.1-0.5,0.3-0.6,0.6c-0.2,0.2-0.3,0.5-0.3,0.8c-0.1,0.3-0.1,0.7-0.1,1c0,0.3,0,0.6,0.1,1c0.1,0.3,0.2,0.6,0.3,0.9
				c0.2,0.3,0.4,0.5,0.6,0.6C682.2,27.4,682.5,27.5,682.9,27.5z M682.6,19.4l-1.3-1.2l2.3-2.5l1.6,1.6L682.6,19.4z"/>
			<path class="st1" d="M691.6,24.7v4.9H689V20h2.4l3.6,6v-6h2.5v8c0,0.5-0.1,1-0.4,1.3c-0.2,0.3-0.7,0.5-1.2,0.5
				c-0.3,0-0.7-0.1-1-0.3c-0.3-0.2-0.6-0.5-0.9-1L691.6,24.7z"/>
		</g>
		<g>
			<path class="st1" d="M550,46.9V42l-0.3,0.7c-0.1,0.3-0.3,0.5-0.4,0.7s-0.2,0.4-0.4,0.5c-0.1,0.1-0.3,0.2-0.5,0.3
				c-0.2,0.1-0.4,0.1-0.6,0.1c-0.2,0-0.4,0-0.6-0.1c-0.2-0.1-0.3-0.2-0.5-0.3c-0.1-0.1-0.3-0.3-0.4-0.5s-0.2-0.4-0.4-0.7l-0.3-0.7v5
				H543v-9.7h2.3l2.3,4.2c0.1,0.1,0.1,0.2,0.2,0.2s0.1,0,0.2-0.1l2.3-4.2h2.3v9.7H550z"/>
			<path class="st1" d="M558.7,47.2c-1.5,0-2.7-0.4-3.6-1.3c-0.8-0.9-1.2-2.1-1.2-3.7c0-0.6,0.1-1.2,0.3-1.8
				c0.2-0.6,0.5-1.1,0.8-1.6c0.4-0.5,0.9-0.9,1.5-1.1c0.6-0.3,1.3-0.4,2.2-0.4c0.9,0,1.7,0.1,2.3,0.4c0.6,0.3,1.1,0.7,1.5,1.1
				c0.4,0.5,0.6,1,0.8,1.6c0.2,0.6,0.2,1.2,0.2,1.8c0,0.6-0.1,1.3-0.3,1.9c-0.2,0.6-0.5,1.1-0.8,1.6s-0.9,0.9-1.5,1.1
				C560.3,47,559.5,47.2,558.7,47.2z M558.6,44.8c0.4,0,0.7-0.1,0.9-0.2c0.3-0.1,0.5-0.3,0.6-0.6s0.3-0.5,0.4-0.9
				c0.1-0.3,0.1-0.7,0.1-1s0-0.7-0.1-1c-0.1-0.3-0.2-0.6-0.3-0.8s-0.4-0.4-0.6-0.6c-0.3-0.1-0.6-0.2-1-0.2s-0.7,0.1-0.9,0.2
				c-0.3,0.1-0.5,0.3-0.6,0.6c-0.2,0.2-0.3,0.5-0.3,0.8c-0.1,0.3-0.1,0.7-0.1,1c0,0.3,0,0.6,0.1,1c0.1,0.3,0.2,0.6,0.3,0.9
				c0.2,0.3,0.4,0.5,0.6,0.6C557.9,44.7,558.3,44.8,558.6,44.8z"/>
			<path class="st1" d="M566.4,46.9v-7.4h-2.7v-2.3h8v2.3h-2.7v7.4H566.4z"/>
			<path class="st1" d="M576.8,47.2c-1.5,0-2.7-0.4-3.6-1.3c-0.8-0.9-1.2-2.1-1.2-3.7c0-0.6,0.1-1.2,0.3-1.8
				c0.2-0.6,0.5-1.1,0.8-1.6c0.4-0.5,0.9-0.9,1.5-1.1c0.6-0.3,1.3-0.4,2.2-0.4c0.9,0,1.7,0.1,2.3,0.4c0.6,0.3,1.1,0.7,1.5,1.1
				c0.4,0.5,0.6,1,0.8,1.6c0.2,0.6,0.2,1.2,0.2,1.8c0,0.6-0.1,1.3-0.3,1.9c-0.2,0.6-0.5,1.1-0.8,1.6s-0.9,0.9-1.5,1.1
				C578.5,47,577.7,47.2,576.8,47.2z M576.8,44.8c0.4,0,0.7-0.1,0.9-0.2c0.3-0.1,0.5-0.3,0.6-0.6s0.3-0.5,0.4-0.9
				c0.1-0.3,0.1-0.7,0.1-1s0-0.7-0.1-1c-0.1-0.3-0.2-0.6-0.3-0.8s-0.4-0.4-0.6-0.6c-0.3-0.1-0.6-0.2-1-0.2s-0.7,0.1-0.9,0.2
				c-0.3,0.1-0.5,0.3-0.6,0.6c-0.2,0.2-0.3,0.5-0.3,0.8c-0.1,0.3-0.1,0.7-0.1,1c0,0.3,0,0.6,0.1,1c0.1,0.3,0.2,0.6,0.3,0.9
				c0.2,0.3,0.4,0.5,0.6,0.6C576.1,44.7,576.4,44.8,576.8,44.8z"/>
			<path class="st1" d="M589.1,47.3l-2.3-2.9c-0.2-0.3-0.4-0.5-0.5-0.6c-0.1-0.1-0.3-0.2-0.5-0.2h-0.1v3.3h-2.7v-9.7h4
				c0.5,0,0.9,0.1,1.4,0.2c0.4,0.1,0.8,0.3,1.1,0.5c0.3,0.2,0.5,0.5,0.7,0.9s0.2,0.7,0.2,1.2c0,0.4-0.1,0.8-0.2,1.1
				c-0.1,0.3-0.3,0.6-0.4,0.8c-0.2,0.2-0.4,0.4-0.6,0.6c-0.2,0.1-0.5,0.3-0.7,0.3c0.2,0.1,0.4,0.2,0.5,0.3c0.2,0.1,0.3,0.3,0.4,0.4
				l1.8,2.3L589.1,47.3z M585.6,41.4h0.9c0.4,0,0.7-0.1,0.9-0.3c0.2-0.2,0.3-0.4,0.3-0.7c0-0.4-0.1-0.7-0.3-0.8
				c-0.2-0.1-0.5-0.2-0.9-0.2h-0.9V41.4z"/>
			<path class="st1" d="M594.6,46.9v-9.7h7.2v2.2h-4.6v1.3h3.5V43h-3.5v1.7h4.7v2.2H594.6z"/>
			<path class="st1" d="M603.2,46.9v-9.7h2.7v7.4h4.6v2.3H603.2z"/>
			<path class="st1" d="M611.5,46.9v-9.7h7.2v2.2h-4.6v1.3h3.5V43h-3.5v1.7h4.7v2.2H611.5z"/>
			<path class="st1" d="M628.1,46.2c-0.3,0.2-0.6,0.3-0.9,0.4c-0.3,0.1-0.6,0.2-0.9,0.3c-0.3,0.1-0.6,0.1-0.9,0.2
				c-0.3,0-0.7,0.1-1.1,0.1c-0.9,0-1.6-0.1-2.2-0.4c-0.6-0.3-1.1-0.6-1.5-1.1s-0.7-1-0.9-1.6c-0.2-0.6-0.3-1.3-0.3-2
				c0-0.7,0.1-1.4,0.3-2c0.2-0.6,0.6-1.1,1-1.6c0.4-0.4,1-0.8,1.6-1c0.6-0.2,1.4-0.4,2.2-0.4c0.6,0,1.2,0.1,1.8,0.3s1,0.4,1.5,0.6
				l-0.8,2.1c-0.3-0.1-0.6-0.2-0.8-0.3s-0.5-0.2-0.7-0.2c-0.2,0-0.4-0.1-0.5-0.1s-0.3,0-0.5,0c-0.7,0-1.3,0.2-1.7,0.7
				s-0.6,1.1-0.6,2c0,0.9,0.2,1.6,0.6,2c0.4,0.4,1,0.7,1.7,0.7c0.2,0,0.4,0,0.6,0c0.2,0,0.4-0.1,0.6-0.1s0.4-0.1,0.7-0.2
				c0.2-0.1,0.5-0.2,0.9-0.4L628.1,46.2z"/>
			<path class="st1" d="M631.5,46.9v-7.4h-2.7v-2.3h8v2.3h-2.7v7.4H631.5z"/>
			<path class="st1" d="M644,47.3l-2.3-2.9c-0.2-0.3-0.4-0.5-0.5-0.6c-0.1-0.1-0.3-0.2-0.5-0.2h-0.1v3.3h-2.7v-9.7h4
				c0.5,0,0.9,0.1,1.4,0.2c0.4,0.1,0.8,0.3,1.1,0.5c0.3,0.2,0.5,0.5,0.7,0.9s0.2,0.7,0.2,1.2c0,0.4-0.1,0.8-0.2,1.1
				c-0.1,0.3-0.3,0.6-0.4,0.8c-0.2,0.2-0.4,0.4-0.6,0.6c-0.2,0.1-0.5,0.3-0.7,0.3c0.2,0.1,0.4,0.2,0.5,0.3c0.2,0.1,0.3,0.3,0.4,0.4
				l1.8,2.3L644,47.3z M640.5,41.4h0.9c0.4,0,0.7-0.1,0.9-0.3c0.2-0.2,0.3-0.4,0.3-0.7c0-0.4-0.1-0.7-0.3-0.8
				c-0.2-0.1-0.5-0.2-0.9-0.2h-0.9V41.4z"/>
			<path class="st1" d="M647.9,36.7l-1.3-1.2l2.3-2.5l1.6,1.6L647.9,36.7z M647,46.9v-9.7h2.7v9.7H647z"/>
			<path class="st1" d="M659.7,46.2c-0.3,0.2-0.6,0.3-0.9,0.4c-0.3,0.1-0.6,0.2-0.9,0.3c-0.3,0.1-0.6,0.1-0.9,0.2
				c-0.3,0-0.7,0.1-1.1,0.1c-0.9,0-1.6-0.1-2.2-0.4c-0.6-0.3-1.1-0.6-1.5-1.1s-0.7-1-0.9-1.6c-0.2-0.6-0.3-1.3-0.3-2
				c0-0.7,0.1-1.4,0.3-2c0.2-0.6,0.6-1.1,1-1.6c0.4-0.4,1-0.8,1.6-1c0.6-0.2,1.4-0.4,2.2-0.4c0.6,0,1.2,0.1,1.8,0.3s1,0.4,1.5,0.6
				l-0.8,2.1c-0.3-0.1-0.6-0.2-0.8-0.3s-0.5-0.2-0.7-0.2c-0.2,0-0.4-0.1-0.5-0.1s-0.3,0-0.5,0c-0.7,0-1.3,0.2-1.7,0.7
				s-0.6,1.1-0.6,2c0,0.9,0.2,1.6,0.6,2c0.4,0.4,1,0.7,1.7,0.7c0.2,0,0.4,0,0.6,0c0.2,0,0.4-0.1,0.6-0.1s0.4-0.1,0.7-0.2
				c0.2-0.1,0.5-0.2,0.9-0.4L659.7,46.2z"/>
			<path class="st1" d="M664.9,47.2c-1.5,0-2.7-0.4-3.6-1.3c-0.8-0.9-1.2-2.1-1.2-3.7c0-0.6,0.1-1.2,0.3-1.8
				c0.2-0.6,0.5-1.1,0.8-1.6c0.4-0.5,0.9-0.9,1.5-1.1c0.6-0.3,1.3-0.4,2.2-0.4c0.9,0,1.7,0.1,2.3,0.4c0.6,0.3,1.1,0.7,1.5,1.1
				c0.4,0.5,0.6,1,0.8,1.6c0.2,0.6,0.2,1.2,0.2,1.8c0,0.6-0.1,1.3-0.3,1.9c-0.2,0.6-0.5,1.1-0.8,1.6s-0.9,0.9-1.5,1.1
				C666.5,47,665.8,47.2,664.9,47.2z M664.9,44.8c0.4,0,0.7-0.1,0.9-0.2c0.3-0.1,0.5-0.3,0.6-0.6s0.3-0.5,0.4-0.9
				c0.1-0.3,0.1-0.7,0.1-1s0-0.7-0.1-1c-0.1-0.3-0.2-0.6-0.3-0.8s-0.4-0.4-0.6-0.6c-0.3-0.1-0.6-0.2-1-0.2s-0.7,0.1-0.9,0.2
				c-0.3,0.1-0.5,0.3-0.6,0.6c-0.2,0.2-0.3,0.5-0.3,0.8c-0.1,0.3-0.1,0.7-0.1,1c0,0.3,0,0.6,0.1,1c0.1,0.3,0.2,0.6,0.3,0.9
				c0.2,0.3,0.4,0.5,0.6,0.6C664.2,44.7,664.5,44.8,664.9,44.8z"/>
		</g>
		<g>
			<path class="st1" d="M549,61.3h-1.4v-2.2h4V64c-0.5,0.3-1.2,0.5-1.9,0.7c-0.7,0.2-1.5,0.3-2.2,0.3c-0.9,0-1.7-0.1-2.3-0.4
				c-0.6-0.3-1.1-0.6-1.5-1.1s-0.7-1-0.8-1.6c-0.2-0.6-0.3-1.3-0.3-2c0-0.7,0.1-1.4,0.4-2c0.2-0.6,0.6-1.1,1.1-1.6
				c0.5-0.4,1-0.8,1.7-1c0.7-0.2,1.4-0.4,2.3-0.4c0.7,0,1.3,0.1,1.8,0.2c0.5,0.1,1.1,0.3,1.6,0.5l-0.8,2.2c-0.4-0.1-0.7-0.2-0.9-0.3
				c-0.3-0.1-0.5-0.1-0.7-0.2s-0.4-0.1-0.6-0.1c-0.2,0-0.3,0-0.5,0c-0.4,0-0.7,0.1-1,0.2c-0.3,0.1-0.6,0.3-0.8,0.5
				c-0.2,0.2-0.4,0.5-0.5,0.8c-0.1,0.3-0.2,0.7-0.2,1.1c0,0.9,0.2,1.6,0.6,2c0.4,0.4,0.9,0.7,1.6,0.7c0.3,0,0.6,0,0.8,0
				c0.3,0,0.5-0.1,0.7-0.2V61.3z"/>
			<path class="st1" d="M553.3,64.8v-9.7h7.2v2.2h-4.6v1.3h3.5v2.2h-3.5v1.7h4.7v2.2H553.3z"/>
			<path class="st1" d="M564.5,59.9v4.9h-2.6v-9.7h2.4l3.6,6v-6h2.5v8c0,0.5-0.1,1-0.4,1.3c-0.2,0.3-0.7,0.5-1.2,0.5
				c-0.3,0-0.7-0.1-1-0.3c-0.3-0.2-0.6-0.5-0.9-1L564.5,59.9z"/>
			<path class="st1" d="M572.1,64.8v-9.7h7.2v2.2h-4.6v1.3h3.5v2.2h-3.5v1.7h4.7v2.2H572.1z"/>
			<path class="st1" d="M586.9,65.2l-2.3-2.9c-0.2-0.3-0.4-0.5-0.5-0.6c-0.1-0.1-0.3-0.2-0.5-0.2h-0.1v3.3h-2.7v-9.7h4
				c0.5,0,0.9,0.1,1.4,0.2c0.4,0.1,0.8,0.3,1.1,0.5c0.3,0.2,0.5,0.5,0.7,0.9s0.2,0.7,0.2,1.2c0,0.4-0.1,0.8-0.2,1.1
				c-0.1,0.3-0.3,0.6-0.4,0.8c-0.2,0.2-0.4,0.4-0.6,0.6c-0.2,0.1-0.5,0.3-0.7,0.3c0.2,0.1,0.4,0.2,0.5,0.3c0.2,0.1,0.3,0.3,0.4,0.4
				l1.8,2.3L586.9,65.2z M583.4,59.3h0.9c0.4,0,0.7-0.1,0.9-0.3c0.2-0.2,0.3-0.4,0.3-0.7c0-0.4-0.1-0.7-0.3-0.8
				c-0.2-0.1-0.5-0.2-0.9-0.2h-0.9V59.3z"/>
			<path class="st1" d="M596.7,65.1l-0.7-2.7h-3.1l-0.8,2.7l-2.6-0.6l2.2-7.5c0.1-0.3,0.2-0.7,0.4-0.9c0.1-0.3,0.3-0.5,0.6-0.7
				c0.2-0.2,0.5-0.3,0.8-0.4c0.3-0.1,0.7-0.1,1.1-0.1c0.4,0,0.8,0,1.1,0.1c0.3,0.1,0.5,0.2,0.7,0.4s0.4,0.4,0.5,0.6
				c0.1,0.2,0.2,0.5,0.3,0.8l2.2,7.6L596.7,65.1z M595.3,60.2l-0.8-2.9c0-0.1-0.1-0.1-0.1-0.1c-0.1,0-0.1,0-0.1,0.1l-0.9,2.9H595.3z
				"/>
			<path class="st1" d="M600.3,64.8v-9.7h4.2c0.8,0,1.4,0.1,2,0.3c0.6,0.2,1.1,0.6,1.5,1s0.7,0.9,1,1.5s0.3,1.2,0.3,2
				c0,0.7-0.1,1.4-0.3,2c-0.2,0.6-0.5,1.1-0.9,1.5c-0.4,0.4-0.9,0.8-1.5,1c-0.6,0.2-1.3,0.4-2.2,0.4H600.3z M603,62.5h1.5
				c0.7,0,1.2-0.2,1.6-0.6c0.4-0.4,0.5-1,0.5-1.9c0-0.9-0.2-1.6-0.5-2s-0.9-0.6-1.6-0.6H603V62.5z"/>
			<path class="st1" d="M615.1,65c-1.5,0-2.7-0.4-3.6-1.3c-0.8-0.9-1.2-2.1-1.2-3.7c0-0.6,0.1-1.2,0.3-1.8c0.2-0.6,0.5-1.1,0.8-1.6
				c0.4-0.5,0.9-0.9,1.5-1.1c0.6-0.3,1.3-0.4,2.2-0.4c0.9,0,1.7,0.1,2.3,0.4c0.6,0.3,1.1,0.7,1.5,1.1c0.4,0.5,0.6,1,0.8,1.6
				c0.2,0.6,0.2,1.2,0.2,1.8c0,0.6-0.1,1.3-0.3,1.9c-0.2,0.6-0.5,1.1-0.8,1.6s-0.9,0.9-1.5,1.1C616.7,64.9,615.9,65,615.1,65z
				 M615.1,62.7c0.4,0,0.7-0.1,0.9-0.2c0.3-0.1,0.5-0.3,0.6-0.6s0.3-0.5,0.4-0.9c0.1-0.3,0.1-0.7,0.1-1s0-0.7-0.1-1
				c-0.1-0.3-0.2-0.6-0.3-0.8s-0.4-0.4-0.6-0.6c-0.3-0.1-0.6-0.2-1-0.2s-0.7,0.1-0.9,0.2c-0.3,0.1-0.5,0.3-0.6,0.6
				c-0.2,0.2-0.3,0.5-0.3,0.8c-0.1,0.3-0.1,0.7-0.1,1c0,0.3,0,0.6,0.1,1c0.1,0.3,0.2,0.6,0.3,0.9c0.2,0.3,0.4,0.5,0.6,0.6
				C614.3,62.6,614.7,62.7,615.1,62.7z"/>
			<path class="st1" d="M627.4,65.2l-2.3-2.9c-0.2-0.3-0.4-0.5-0.5-0.6c-0.1-0.1-0.3-0.2-0.5-0.2h-0.1v3.3h-2.7v-9.7h4
				c0.5,0,0.9,0.1,1.4,0.2c0.4,0.1,0.8,0.3,1.1,0.5c0.3,0.2,0.5,0.5,0.7,0.9s0.2,0.7,0.2,1.2c0,0.4-0.1,0.8-0.2,1.1
				c-0.1,0.3-0.3,0.6-0.4,0.8c-0.2,0.2-0.4,0.4-0.6,0.6c-0.2,0.1-0.5,0.3-0.7,0.3c0.2,0.1,0.4,0.2,0.5,0.3c0.2,0.1,0.3,0.3,0.4,0.4
				l1.8,2.3L627.4,65.2z M623.8,59.3h0.9c0.4,0,0.7-0.1,0.9-0.3c0.2-0.2,0.3-0.4,0.3-0.7c0-0.4-0.1-0.7-0.3-0.8
				c-0.2-0.1-0.5-0.2-0.9-0.2h-0.9V59.3z"/>
			<path class="st1" d="M632.8,64.8v-9.7h7.2v2.2h-4.6v1.3h3.5v2.2h-3.5v1.7h4.7v2.2H632.8z"/>
			<path class="st1" d="M641.4,64.8v-9.7h2.7v7.4h4.6v2.3H641.4z"/>
			<path class="st1" d="M649.7,64.8v-9.7h7.2v2.2h-4.6v1.3h3.5v2.2h-3.5v1.7h4.7v2.2H649.7z"/>
			<path class="st1" d="M666.4,64.1c-0.3,0.2-0.6,0.3-0.9,0.4c-0.3,0.1-0.6,0.2-0.9,0.3c-0.3,0.1-0.6,0.1-0.9,0.2
				c-0.3,0-0.7,0.1-1.1,0.1c-0.9,0-1.6-0.1-2.2-0.4c-0.6-0.3-1.1-0.6-1.5-1.1s-0.7-1-0.9-1.6c-0.2-0.6-0.3-1.3-0.3-2
				c0-0.7,0.1-1.4,0.3-2c0.2-0.6,0.6-1.1,1-1.6c0.4-0.4,1-0.8,1.6-1c0.6-0.2,1.4-0.4,2.2-0.4c0.6,0,1.2,0.1,1.8,0.3s1,0.4,1.5,0.6
				l-0.8,2.1c-0.3-0.1-0.6-0.2-0.8-0.3s-0.5-0.2-0.7-0.2c-0.2,0-0.4-0.1-0.5-0.1s-0.3,0-0.5,0c-0.7,0-1.3,0.2-1.7,0.7
				s-0.6,1.1-0.6,2c0,0.9,0.2,1.6,0.6,2c0.4,0.4,1,0.7,1.7,0.7c0.2,0,0.4,0,0.6,0c0.2,0,0.4-0.1,0.6-0.1s0.4-0.1,0.7-0.2
				c0.2-0.1,0.5-0.2,0.9-0.4L666.4,64.1z"/>
			<path class="st1" d="M669.7,64.8v-7.4h-2.7v-2.3h8v2.3h-2.7v7.4H669.7z"/>
			<path class="st1" d="M682.2,65.2l-2.3-2.9c-0.2-0.3-0.4-0.5-0.5-0.6c-0.1-0.1-0.3-0.2-0.5-0.2h-0.1v3.3H676v-9.7h4
				c0.5,0,0.9,0.1,1.4,0.2c0.4,0.1,0.8,0.3,1.1,0.5c0.3,0.2,0.5,0.5,0.7,0.9s0.2,0.7,0.2,1.2c0,0.4-0.1,0.8-0.2,1.1
				c-0.1,0.3-0.3,0.6-0.4,0.8c-0.2,0.2-0.4,0.4-0.6,0.6c-0.2,0.1-0.5,0.3-0.7,0.3c0.2,0.1,0.4,0.2,0.5,0.3c0.2,0.1,0.3,0.3,0.4,0.4
				l1.8,2.3L682.2,65.2z M678.7,59.3h0.9c0.4,0,0.7-0.1,0.9-0.3c0.2-0.2,0.3-0.4,0.3-0.7c0-0.4-0.1-0.7-0.3-0.8
				c-0.2-0.1-0.5-0.2-0.9-0.2h-0.9V59.3z"/>
			<path class="st1" d="M686.1,54.6l-1.3-1.2l2.3-2.5l1.6,1.6L686.1,54.6z M685.3,64.8v-9.7h2.7v9.7H685.3z"/>
			<path class="st1" d="M697.9,64.1c-0.3,0.2-0.6,0.3-0.9,0.4c-0.3,0.1-0.6,0.2-0.9,0.3c-0.3,0.1-0.6,0.1-0.9,0.2
				c-0.3,0-0.7,0.1-1.1,0.1c-0.9,0-1.6-0.1-2.2-0.4c-0.6-0.3-1.1-0.6-1.5-1.1s-0.7-1-0.9-1.6c-0.2-0.6-0.3-1.3-0.3-2
				c0-0.7,0.1-1.4,0.3-2c0.2-0.6,0.6-1.1,1-1.6c0.4-0.4,1-0.8,1.6-1c0.6-0.2,1.4-0.4,2.2-0.4c0.6,0,1.2,0.1,1.8,0.3s1,0.4,1.5,0.6
				l-0.8,2.1c-0.3-0.1-0.6-0.2-0.8-0.3s-0.5-0.2-0.7-0.2c-0.2,0-0.4-0.1-0.5-0.1s-0.3,0-0.5,0c-0.7,0-1.3,0.2-1.7,0.7
				s-0.6,1.1-0.6,2c0,0.9,0.2,1.6,0.6,2c0.4,0.4,1,0.7,1.7,0.7c0.2,0,0.4,0,0.6,0c0.2,0,0.4-0.1,0.6-0.1s0.4-0.1,0.7-0.2
				c0.2-0.1,0.5-0.2,0.9-0.4L697.9,64.1z"/>
			<path class="st1" d="M703.2,65c-1.5,0-2.7-0.4-3.6-1.3c-0.8-0.9-1.2-2.1-1.2-3.7c0-0.6,0.1-1.2,0.3-1.8c0.2-0.6,0.5-1.1,0.8-1.6
				c0.4-0.5,0.9-0.9,1.5-1.1c0.6-0.3,1.3-0.4,2.2-0.4c0.9,0,1.7,0.1,2.3,0.4c0.6,0.3,1.1,0.7,1.5,1.1c0.4,0.5,0.6,1,0.8,1.6
				c0.2,0.6,0.2,1.2,0.2,1.8c0,0.6-0.1,1.3-0.3,1.9c-0.2,0.6-0.5,1.1-0.8,1.6s-0.9,0.9-1.5,1.1C704.8,64.9,704,65,703.2,65z
				 M703.1,62.7c0.4,0,0.7-0.1,0.9-0.2c0.3-0.1,0.5-0.3,0.6-0.6s0.3-0.5,0.4-0.9c0.1-0.3,0.1-0.7,0.1-1s0-0.7-0.1-1
				c-0.1-0.3-0.2-0.6-0.3-0.8s-0.4-0.4-0.6-0.6c-0.3-0.1-0.6-0.2-1-0.2s-0.7,0.1-0.9,0.2c-0.3,0.1-0.5,0.3-0.6,0.6
				c-0.2,0.2-0.3,0.5-0.3,0.8c-0.1,0.3-0.1,0.7-0.1,1c0,0.3,0,0.6,0.1,1c0.1,0.3,0.2,0.6,0.3,0.9c0.2,0.3,0.4,0.5,0.6,0.6
				C702.4,62.6,702.7,62.7,703.1,62.7z"/>
		</g>
		<g>
			<path class="st3" d="M521.4,64.8h-38.8c-1.9,0-3.5-1.6-3.5-3.5v0c0-1.9,1.6-3.5,3.5-3.5h38.8c1.9,0,3.5,1.6,3.5,3.5v0
				C524.9,63.2,523.3,64.8,521.4,64.8z"/>
		</g>
		<g>
			<path class="st4" d="M521.4,46.9h-38.8c-1.9,0-3.5-1.6-3.5-3.5v0c0-1.9,1.6-3.5,3.5-3.5h38.8c1.9,0,3.5,1.6,3.5,3.5v0
				C524.9,45.4,523.3,46.9,521.4,46.9z"/>
		</g>
		<g>
			<path class="st5" d="M521.4,29.7h-38.8c-1.9,0-3.5-1.6-3.5-3.5v0c0-1.9,1.6-3.5,3.5-3.5h38.8c1.9,0,3.5,1.6,3.5,3.5v0
				C524.9,28.1,523.3,29.7,521.4,29.7z"/>
		</g>
	</g>
	<g>
		<path class="st3" d="M444.7,284.2h-38.8c-1.9,0-3.5-1.6-3.5-3.5l0,0c0-1.9,1.6-3.5,3.5-3.5h38.8c1.9,0,3.5,1.6,3.5,3.5l0,0
			C448.2,282.6,446.6,284.2,444.7,284.2z"/>
	</g>
	<g>
		<path class="st3" d="M444.7,274.7h-38.8c-1.9,0-3.5-1.6-3.5-3.5l0,0c0-1.9,1.6-3.5,3.5-3.5h38.8c1.9,0,3.5,1.6,3.5,3.5l0,0
			C448.2,273.1,446.6,274.7,444.7,274.7z"/>
	</g>
	<g>
		<path class="st4" d="M395.7,284.2h-38.8c-1.9,0-3.5-1.6-3.5-3.5l0,0c0-1.9,1.6-3.5,3.5-3.5h38.8c1.9,0,3.5,1.6,3.5,3.5l0,0
			C399.2,282.6,397.7,284.2,395.7,284.2z"/>
	</g>
	<g>
		<path class="st4" d="M395.7,274.7h-38.8c-1.9,0-3.5-1.6-3.5-3.5l0,0c0-1.9,1.6-3.5,3.5-3.5h38.8c1.9,0,3.5,1.6,3.5,3.5l0,0
			C399.2,273.1,397.7,274.7,395.7,274.7z"/>
	</g>
	<g>
		<path class="st5" d="M347.5,284.2h-38.8c-1.9,0-3.5-1.6-3.5-3.5l0,0c0-1.9,1.6-3.5,3.5-3.5h38.8c1.9,0,3.5,1.6,3.5,3.5l0,0
			C351,282.6,349.4,284.2,347.5,284.2z"/>
	</g>
	<g>
		<path class="st5" d="M347.5,274.7h-38.8c-1.9,0-3.5-1.6-3.5-3.5l0,0c0-1.9,1.6-3.5,3.5-3.5h38.8c1.9,0,3.5,1.6,3.5,3.5l0,0
			C351,273.1,349.4,274.7,347.5,274.7z"/>
	</g>
	<g>
		<path class="st3" d="M663.1,284.2h-38.8c-1.9,0-3.5-1.6-3.5-3.5l0,0c0-1.9,1.6-3.5,3.5-3.5h38.8c1.9,0,3.5,1.6,3.5,3.5l0,0
			C666.6,282.6,665,284.2,663.1,284.2z"/>
	</g>
	<g>
		<path class="st3" d="M663.1,274.7h-38.8c-1.9,0-3.5-1.6-3.5-3.5l0,0c0-1.9,1.6-3.5,3.5-3.5h38.8c1.9,0,3.5,1.6,3.5,3.5l0,0
			C666.6,273.1,665,274.7,663.1,274.7z"/>
	</g>
	<g>
		<path class="st3" d="M663.1,265.1h-38.8c-1.9,0-3.5-1.6-3.5-3.5l0,0c0-1.9,1.6-3.5,3.5-3.5h38.8c1.9,0,3.5,1.6,3.5,3.5l0,0
			C666.6,263.6,665,265.1,663.1,265.1z"/>
	</g>
	<g>
		<path class="st3" d="M663.1,255.6h-38.8c-1.9,0-3.5-1.6-3.5-3.5l0,0c0-1.9,1.6-3.5,3.5-3.5h38.8c1.9,0,3.5,1.6,3.5,3.5l0,0
			C666.6,254,665,255.6,663.1,255.6z"/>
	</g>
	<g>
		<path class="st4" d="M614.1,284.2h-38.8c-1.9,0-3.5-1.6-3.5-3.5l0,0c0-1.9,1.6-3.5,3.5-3.5h38.8c1.9,0,3.5,1.6,3.5,3.5l0,0
			C617.6,282.6,616,284.2,614.1,284.2z"/>
	</g>
	<g>
		<path class="st4" d="M614.1,274.7h-38.8c-1.9,0-3.5-1.6-3.5-3.5l0,0c0-1.9,1.6-3.5,3.5-3.5h38.8c1.9,0,3.5,1.6,3.5,3.5l0,0
			C617.6,273.1,616,274.7,614.1,274.7z"/>
	</g>
	<g>
		<path class="st4" d="M614.1,265.1h-38.8c-1.9,0-3.5-1.6-3.5-3.5l0,0c0-1.9,1.6-3.5,3.5-3.5h38.8c1.9,0,3.5,1.6,3.5,3.5l0,0
			C617.6,263.6,616,265.1,614.1,265.1z"/>
	</g>
	<g>
		<path class="st5" d="M565.9,284.2H527c-1.9,0-3.5-1.6-3.5-3.5l0,0c0-1.9,1.6-3.5,3.5-3.5h38.8c1.9,0,3.5,1.6,3.5,3.5l0,0
			C569.3,282.6,567.8,284.2,565.9,284.2z"/>
	</g>
	<g>
		<path class="st5" d="M565.9,274.7H527c-1.9,0-3.5-1.6-3.5-3.5l0,0c0-1.9,1.6-3.5,3.5-3.5h38.8c1.9,0,3.5,1.6,3.5,3.5l0,0
			C569.3,273.1,567.8,274.7,565.9,274.7z"/>
	</g>
	<g>
		<path class="st5" d="M565.9,265.1H527c-1.9,0-3.5-1.6-3.5-3.5l0,0c0-1.9,1.6-3.5,3.5-3.5h38.8c1.9,0,3.5,1.6,3.5,3.5l0,0
			C569.3,263.6,567.8,265.1,565.9,265.1z"/>
	</g>
	<g>
		<path class="st5" d="M565.9,255.6H527c-1.9,0-3.5-1.6-3.5-3.5l0,0c0-1.9,1.6-3.5,3.5-3.5h38.8c1.9,0,3.5,1.6,3.5,3.5l0,0
			C569.3,254,567.8,255.6,565.9,255.6z"/>
	</g>
	<g>
		<path class="st3" d="M901,284.2h-38.8c-1.9,0-3.5-1.6-3.5-3.5l0,0c0-1.9,1.6-3.5,3.5-3.5H901c1.9,0,3.5,1.6,3.5,3.5l0,0
			C904.4,282.6,902.9,284.2,901,284.2z"/>
	</g>
	<g>
		<path class="st3" d="M901,274.7h-38.8c-1.9,0-3.5-1.6-3.5-3.5l0,0c0-1.9,1.6-3.5,3.5-3.5H901c1.9,0,3.5,1.6,3.5,3.5l0,0
			C904.4,273.1,902.9,274.7,901,274.7z"/>
	</g>
	<g>
		<path class="st3" d="M901,265.1h-38.8c-1.9,0-3.5-1.6-3.5-3.5l0,0c0-1.9,1.6-3.5,3.5-3.5H901c1.9,0,3.5,1.6,3.5,3.5l0,0
			C904.4,263.6,902.9,265.1,901,265.1z"/>
	</g>
	<g>
		<path class="st3" d="M901,255.6h-38.8c-1.9,0-3.5-1.6-3.5-3.5l0,0c0-1.9,1.6-3.5,3.5-3.5H901c1.9,0,3.5,1.6,3.5,3.5l0,0
			C904.4,254,902.9,255.6,901,255.6z"/>
	</g>
	<g>
		<path class="st4" d="M852,284.2h-38.8c-1.9,0-3.5-1.6-3.5-3.5l0,0c0-1.9,1.6-3.5,3.5-3.5H852c1.9,0,3.5,1.6,3.5,3.5l0,0
			C855.5,282.6,853.9,284.2,852,284.2z"/>
	</g>
	<g>
		<path class="st5" d="M803.7,284.2h-38.8c-1.9,0-3.5-1.6-3.5-3.5l0,0c0-1.9,1.6-3.5,3.5-3.5h38.8c1.9,0,3.5,1.6,3.5,3.5l0,0
			C807.2,282.6,805.7,284.2,803.7,284.2z"/>
	</g>
	<g>
		<path class="st3" d="M1139.7,284.2h-38.8c-1.9,0-3.5-1.6-3.5-3.5l0,0c0-1.9,1.6-3.5,3.5-3.5h38.8c1.9,0,3.5,1.6,3.5,3.5l0,0
			C1143.2,282.6,1141.6,284.2,1139.7,284.2z"/>
	</g>
	<g>
		<path class="st4" d="M1090.7,284.2h-38.8c-1.9,0-3.5-1.6-3.5-3.5l0,0c0-1.9,1.6-3.5,3.5-3.5h38.8c1.9,0,3.5,1.6,3.5,3.5l0,0
			C1094.2,282.6,1092.6,284.2,1090.7,284.2z"/>
	</g>
	<g>
		<path class="st5" d="M1042.5,284.2h-38.8c-1.9,0-3.5-1.6-3.5-3.5l0,0c0-1.9,1.6-3.5,3.5-3.5h38.8c1.9,0,3.5,1.6,3.5,3.5l0,0
			C1045.9,282.6,1044.4,284.2,1042.5,284.2z"/>
	</g>
	<g>
		<path class="st1" d="M79.2,118.4l-0.7-2.7h-3.1l-0.8,2.7l-2.6-0.6l2.2-7.5c0.1-0.3,0.2-0.7,0.4-0.9s0.3-0.5,0.6-0.7
			c0.2-0.2,0.5-0.3,0.8-0.4c0.3-0.1,0.7-0.1,1.1-0.1c0.4,0,0.8,0,1.1,0.1s0.5,0.2,0.7,0.4c0.2,0.2,0.4,0.4,0.5,0.6
			c0.1,0.2,0.2,0.5,0.3,0.8l2.2,7.6L79.2,118.4z M77.8,113.5l-0.8-2.9c0-0.1-0.1-0.1-0.1-0.1c-0.1,0-0.1,0-0.1,0.1l-0.9,2.9H77.8z"
			/>
		<path class="st1" d="M89,118.5l-2.3-2.9c-0.2-0.3-0.4-0.5-0.5-0.6c-0.1-0.1-0.3-0.2-0.5-0.2h-0.1v3.3h-2.7v-9.7h4
			c0.5,0,0.9,0.1,1.4,0.2s0.8,0.3,1.1,0.5c0.3,0.2,0.5,0.5,0.7,0.9c0.2,0.3,0.2,0.7,0.2,1.2c0,0.4-0.1,0.8-0.2,1.1
			c-0.1,0.3-0.3,0.6-0.4,0.8s-0.4,0.4-0.6,0.6c-0.2,0.1-0.5,0.3-0.7,0.3c0.2,0.1,0.4,0.2,0.5,0.3c0.2,0.1,0.3,0.3,0.4,0.4l1.8,2.3
			L89,118.5z M85.4,112.6h0.9c0.4,0,0.7-0.1,0.9-0.3c0.2-0.2,0.3-0.4,0.3-0.7c0-0.4-0.1-0.7-0.3-0.8c-0.2-0.1-0.5-0.2-0.9-0.2h-0.9
			V112.6z"/>
		<path class="st1" d="M98.2,118.5l-2.3-2.9c-0.2-0.3-0.4-0.5-0.5-0.6c-0.1-0.1-0.3-0.2-0.5-0.2h-0.1v3.3H92v-9.7h4
			c0.5,0,0.9,0.1,1.4,0.2s0.8,0.3,1.1,0.5c0.3,0.2,0.5,0.5,0.7,0.9c0.2,0.3,0.2,0.7,0.2,1.2c0,0.4-0.1,0.8-0.2,1.1
			c-0.1,0.3-0.3,0.6-0.4,0.8s-0.4,0.4-0.6,0.6c-0.2,0.1-0.5,0.3-0.7,0.3c0.2,0.1,0.4,0.2,0.5,0.3c0.2,0.1,0.3,0.3,0.4,0.4l1.8,2.3
			L98.2,118.5z M94.7,112.6h0.9c0.4,0,0.7-0.1,0.9-0.3c0.2-0.2,0.3-0.4,0.3-0.7c0-0.4-0.1-0.7-0.3-0.8c-0.2-0.1-0.5-0.2-0.9-0.2
			h-0.9V112.6z"/>
		<path class="st1" d="M108,118.4l-0.7-2.7h-3.1l-0.8,2.7l-2.6-0.6l2.2-7.5c0.1-0.3,0.2-0.7,0.4-0.9s0.3-0.5,0.6-0.7
			c0.2-0.2,0.5-0.3,0.8-0.4c0.3-0.1,0.7-0.1,1.1-0.1c0.4,0,0.8,0,1.1,0.1s0.5,0.2,0.7,0.4c0.2,0.2,0.4,0.4,0.5,0.6
			c0.1,0.2,0.2,0.5,0.3,0.8l2.2,7.6L108,118.4z M106.6,113.5l-0.8-2.9c0-0.1-0.1-0.1-0.1-0.1c-0.1,0-0.1,0-0.1,0.1l-0.9,2.9H106.6z"
			/>
		<path class="st1" d="M114.2,113.2v4.9h-2.6v-9.7h2.4l3.6,6v-6h2.5v8c0,0.5-0.1,1-0.4,1.3c-0.3,0.3-0.7,0.5-1.2,0.5
			c-0.3,0-0.7-0.1-1-0.3c-0.3-0.2-0.6-0.5-0.9-1L114.2,113.2z"/>
		<path class="st1" d="M129.2,120.3l-1.7-2.1c-0.2,0.1-0.4,0.1-0.7,0.1c-0.2,0-0.5,0-0.7,0c-0.9,0-1.7-0.1-2.3-0.4
			c-0.6-0.3-1.1-0.7-1.5-1.2c-0.4-0.5-0.6-1-0.8-1.6c-0.2-0.6-0.2-1.2-0.2-1.9c0-0.6,0.1-1.2,0.3-1.8s0.5-1.1,0.9-1.6
			c0.4-0.5,0.9-0.8,1.5-1.1c0.6-0.3,1.3-0.4,2.2-0.4c0.9,0,1.7,0.1,2.3,0.4c0.6,0.3,1.1,0.7,1.5,1.1c0.4,0.5,0.6,1,0.8,1.6
			s0.2,1.2,0.2,1.8c0,0.7-0.1,1.3-0.3,2c-0.2,0.7-0.5,1.2-1,1.7l1.5,1.8L129.2,120.3z M126.1,116c0.4,0,0.7-0.1,0.9-0.2
			c0.3-0.1,0.5-0.3,0.6-0.6c0.2-0.2,0.3-0.5,0.4-0.9c0.1-0.3,0.1-0.7,0.1-1s0-0.7-0.1-1c-0.1-0.3-0.2-0.6-0.3-0.8
			c-0.2-0.2-0.4-0.4-0.6-0.6c-0.3-0.1-0.6-0.2-1-0.2c-0.4,0-0.7,0.1-0.9,0.2c-0.3,0.1-0.5,0.3-0.6,0.6c-0.2,0.2-0.3,0.5-0.3,0.8
			c-0.1,0.3-0.1,0.7-0.1,1c0,0.3,0,0.6,0.1,1c0.1,0.3,0.2,0.6,0.3,0.9c0.2,0.3,0.4,0.5,0.6,0.6C125.4,115.9,125.7,116,126.1,116z"/>
		<path class="st1" d="M138,108.4h2.7v5.5c0,0.6-0.1,1.2-0.2,1.8c-0.1,0.5-0.3,1-0.7,1.4c-0.3,0.4-0.7,0.7-1.3,0.9s-1.2,0.3-2.1,0.3
			c-0.9,0-1.6-0.1-2.1-0.3s-1-0.5-1.3-0.8c-0.3-0.4-0.5-0.8-0.6-1.3c-0.1-0.5-0.2-1.1-0.2-1.8v-5.7h2.7v5.4c0,0.4,0,0.7,0.1,0.9
			c0,0.3,0.1,0.5,0.2,0.7c0.1,0.2,0.3,0.3,0.5,0.4c0.2,0.1,0.5,0.1,0.8,0.1c0.3,0,0.6,0,0.7-0.1c0.2-0.1,0.3-0.2,0.5-0.4
			c0.1-0.2,0.2-0.4,0.2-0.7c0-0.3,0.1-0.6,0.1-0.9V108.4z"/>
		<path class="st1" d="M142.3,118.1v-9.7h7.2v2.2H145v1.3h3.5v2.2H145v1.7h4.7v2.2H142.3z"/>
		<path class="st1" d="M150.5,119.2l4.6-11.2h2.3l-4.6,11.2H150.5z"/>
		<path class="st1" d="M166.1,117.4c-0.3,0.2-0.6,0.3-0.9,0.4c-0.3,0.1-0.6,0.2-0.9,0.3c-0.3,0.1-0.6,0.1-0.9,0.2
			c-0.3,0-0.7,0.1-1.1,0.1c-0.9,0-1.6-0.1-2.2-0.4c-0.6-0.3-1.1-0.6-1.5-1.1c-0.4-0.5-0.7-1-0.9-1.6c-0.2-0.6-0.3-1.3-0.3-2
			c0-0.7,0.1-1.4,0.3-2c0.2-0.6,0.6-1.1,1-1.6c0.4-0.4,1-0.8,1.6-1c0.6-0.2,1.4-0.4,2.2-0.4c0.6,0,1.2,0.1,1.8,0.3
			c0.6,0.2,1,0.4,1.5,0.6l-0.8,2.1c-0.3-0.1-0.6-0.2-0.8-0.3s-0.5-0.2-0.7-0.2s-0.4-0.1-0.5-0.1c-0.2,0-0.3,0-0.5,0
			c-0.7,0-1.3,0.2-1.7,0.7c-0.4,0.5-0.6,1.1-0.6,2c0,0.9,0.2,1.6,0.6,2c0.4,0.4,1,0.7,1.7,0.7c0.2,0,0.4,0,0.6,0
			c0.2,0,0.4-0.1,0.6-0.1c0.2-0.1,0.4-0.1,0.7-0.2c0.2-0.1,0.5-0.2,0.9-0.4L166.1,117.4z"/>
		<path class="st1" d="M171.4,118.3c-1.5,0-2.7-0.4-3.6-1.3c-0.8-0.9-1.2-2.1-1.2-3.7c0-0.6,0.1-1.2,0.3-1.8
			c0.2-0.6,0.5-1.1,0.8-1.6c0.4-0.5,0.9-0.9,1.5-1.1c0.6-0.3,1.3-0.4,2.2-0.4c0.9,0,1.7,0.1,2.3,0.4c0.6,0.3,1.1,0.7,1.5,1.1
			c0.4,0.5,0.6,1,0.8,1.6c0.2,0.6,0.2,1.2,0.2,1.8c0,0.6-0.1,1.3-0.3,1.9c-0.2,0.6-0.5,1.1-0.8,1.6s-0.9,0.9-1.5,1.1
			C173,118.2,172.3,118.3,171.4,118.3z M171.4,116c0.4,0,0.7-0.1,0.9-0.2c0.3-0.1,0.5-0.3,0.6-0.6c0.2-0.2,0.3-0.5,0.4-0.9
			c0.1-0.3,0.1-0.7,0.1-1s0-0.7-0.1-1c-0.1-0.3-0.2-0.6-0.3-0.8c-0.2-0.2-0.4-0.4-0.6-0.6c-0.3-0.1-0.6-0.2-1-0.2
			c-0.4,0-0.7,0.1-0.9,0.2c-0.3,0.1-0.5,0.3-0.6,0.6c-0.2,0.2-0.3,0.5-0.3,0.8c-0.1,0.3-0.1,0.7-0.1,1c0,0.3,0,0.6,0.1,1
			c0.1,0.3,0.2,0.6,0.3,0.9c0.2,0.3,0.4,0.5,0.6,0.6C170.7,115.9,171,116,171.4,116z"/>
		<path class="st1" d="M180.1,113.2v4.9h-2.6v-9.7h2.4l3.6,6v-6h2.5v8c0,0.5-0.1,1-0.4,1.3c-0.3,0.3-0.7,0.5-1.2,0.5
			c-0.3,0-0.7-0.1-1-0.3c-0.3-0.2-0.6-0.5-0.9-1L180.1,113.2z"/>
		<path class="st1" d="M187.7,118.1v-9.7h4.2c0.8,0,1.4,0.1,2,0.3c0.6,0.2,1.1,0.6,1.5,1s0.7,0.9,1,1.5c0.2,0.6,0.3,1.2,0.3,2
			c0,0.7-0.1,1.4-0.3,2c-0.2,0.6-0.5,1.1-0.9,1.5c-0.4,0.4-0.9,0.8-1.5,1c-0.6,0.2-1.3,0.4-2.2,0.4H187.7z M190.4,115.8h1.5
			c0.7,0,1.2-0.2,1.6-0.6s0.5-1,0.5-1.9c0-0.9-0.2-1.6-0.5-2c-0.4-0.4-0.9-0.6-1.6-0.6h-1.5V115.8z"/>
		<path class="st1" d="M203.7,108.4h2.7v5.5c0,0.6-0.1,1.2-0.2,1.8c-0.1,0.5-0.3,1-0.7,1.4c-0.3,0.4-0.7,0.7-1.3,0.9
			s-1.2,0.3-2.1,0.3c-0.9,0-1.6-0.1-2.1-0.3s-1-0.5-1.3-0.8c-0.3-0.4-0.5-0.8-0.6-1.3c-0.1-0.5-0.2-1.1-0.2-1.8v-5.7h2.7v5.4
			c0,0.4,0,0.7,0.1,0.9c0,0.3,0.1,0.5,0.2,0.7c0.1,0.2,0.3,0.3,0.5,0.4c0.2,0.1,0.5,0.1,0.8,0.1c0.3,0,0.6,0,0.7-0.1
			c0.2-0.1,0.3-0.2,0.5-0.4c0.1-0.2,0.2-0.4,0.2-0.7c0-0.3,0.1-0.6,0.1-0.9V108.4z"/>
		<path class="st1" d="M216.3,117.4c-0.3,0.2-0.6,0.3-0.9,0.4c-0.3,0.1-0.6,0.2-0.9,0.3c-0.3,0.1-0.6,0.1-0.9,0.2
			c-0.3,0-0.7,0.1-1.1,0.1c-0.9,0-1.6-0.1-2.2-0.4c-0.6-0.3-1.1-0.6-1.5-1.1c-0.4-0.5-0.7-1-0.9-1.6c-0.2-0.6-0.3-1.3-0.3-2
			c0-0.7,0.1-1.4,0.3-2c0.2-0.6,0.6-1.1,1-1.6c0.4-0.4,1-0.8,1.6-1c0.6-0.2,1.4-0.4,2.2-0.4c0.6,0,1.2,0.1,1.8,0.3
			c0.6,0.2,1,0.4,1.5,0.6l-0.8,2.1c-0.3-0.1-0.6-0.2-0.8-0.3s-0.5-0.2-0.7-0.2s-0.4-0.1-0.5-0.1c-0.2,0-0.3,0-0.5,0
			c-0.7,0-1.3,0.2-1.7,0.7c-0.4,0.5-0.6,1.1-0.6,2c0,0.9,0.2,1.6,0.6,2c0.4,0.4,1,0.7,1.7,0.7c0.2,0,0.4,0,0.6,0
			c0.2,0,0.4-0.1,0.6-0.1c0.2-0.1,0.4-0.1,0.7-0.2c0.2-0.1,0.5-0.2,0.9-0.4L216.3,117.4z"/>
		<path class="st1" d="M225.4,117.4c-0.3,0.2-0.6,0.3-0.9,0.4c-0.3,0.1-0.6,0.2-0.9,0.3c-0.3,0.1-0.6,0.1-0.9,0.2
			c-0.3,0-0.7,0.1-1.1,0.1c-0.9,0-1.6-0.1-2.2-0.4c-0.6-0.3-1.1-0.6-1.5-1.1c-0.4-0.5-0.7-1-0.9-1.6c-0.2-0.6-0.3-1.3-0.3-2
			c0-0.7,0.1-1.4,0.3-2c0.2-0.6,0.6-1.1,1-1.6c0.4-0.4,1-0.8,1.6-1c0.6-0.2,1.4-0.4,2.2-0.4c0.6,0,1.2,0.1,1.8,0.3
			c0.6,0.2,1,0.4,1.5,0.6l-0.8,2.1c-0.3-0.1-0.6-0.2-0.8-0.3c-0.2-0.1-0.5-0.2-0.7-0.2s-0.4-0.1-0.5-0.1c-0.2,0-0.3,0-0.5,0
			c-0.7,0-1.3,0.2-1.7,0.7c-0.4,0.5-0.6,1.1-0.6,2c0,0.9,0.2,1.6,0.6,2c0.4,0.4,1,0.7,1.7,0.7c0.2,0,0.4,0,0.6,0
			c0.2,0,0.4-0.1,0.6-0.1c0.2-0.1,0.4-0.1,0.7-0.2c0.2-0.1,0.5-0.2,0.9-0.4L225.4,117.4z"/>
		<path class="st1" d="M226.5,118.1v-9.7h2.7v9.7H226.5z"/>
		<path class="st1" d="M235.3,118.3c-1.5,0-2.7-0.4-3.6-1.3c-0.8-0.9-1.2-2.1-1.2-3.7c0-0.6,0.1-1.2,0.3-1.8
			c0.2-0.6,0.5-1.1,0.8-1.6c0.4-0.5,0.9-0.9,1.5-1.1c0.6-0.3,1.3-0.4,2.2-0.4c0.9,0,1.7,0.1,2.3,0.4c0.6,0.3,1.1,0.7,1.5,1.1
			c0.4,0.5,0.6,1,0.8,1.6c0.2,0.6,0.2,1.2,0.2,1.8c0,0.6-0.1,1.3-0.3,1.9c-0.2,0.6-0.5,1.1-0.8,1.6s-0.9,0.9-1.5,1.1
			C236.9,118.2,236.2,118.3,235.3,118.3z M235.3,116c0.4,0,0.7-0.1,0.9-0.2c0.3-0.1,0.5-0.3,0.6-0.6s0.3-0.5,0.4-0.9
			c0.1-0.3,0.1-0.7,0.1-1s0-0.7-0.1-1c-0.1-0.3-0.2-0.6-0.3-0.8s-0.4-0.4-0.6-0.6c-0.3-0.1-0.6-0.2-1-0.2s-0.7,0.1-0.9,0.2
			c-0.3,0.1-0.5,0.3-0.6,0.6c-0.2,0.2-0.3,0.5-0.3,0.8c-0.1,0.3-0.1,0.7-0.1,1c0,0.3,0,0.6,0.1,1c0.1,0.3,0.2,0.6,0.3,0.9
			c0.2,0.3,0.4,0.5,0.6,0.6C234.6,115.9,234.9,116,235.3,116z M235,107.9l-1.3-1.2l2.3-2.5l1.6,1.6L235,107.9z"/>
		<path class="st1" d="M244,113.2v4.9h-2.6v-9.7h2.4l3.6,6v-6h2.5v8c0,0.5-0.1,1-0.4,1.3c-0.2,0.3-0.7,0.5-1.2,0.5
			c-0.3,0-0.7-0.1-1-0.3c-0.3-0.2-0.6-0.5-0.9-1L244,113.2z"/>
		<path class="st1" d="M88.6,134.3l-0.7-2.7h-3.1l-0.8,2.7l-2.6-0.6l2.2-7.5c0.1-0.3,0.2-0.7,0.4-0.9s0.3-0.5,0.6-0.7
			c0.2-0.2,0.5-0.3,0.8-0.4c0.3-0.1,0.7-0.1,1.1-0.1c0.4,0,0.8,0,1.1,0.1s0.5,0.2,0.7,0.4c0.2,0.2,0.4,0.4,0.5,0.6
			c0.1,0.2,0.2,0.5,0.3,0.8l2.2,7.6L88.6,134.3z M87.2,129.4l-0.8-2.9c0-0.1-0.1-0.1-0.1-0.1c-0.1,0-0.1,0-0.1,0.1l-0.9,2.9H87.2z"
			/>
		<path class="st1" d="M101,124.1l2.6,0.6l-2.2,7.7c-0.1,0.3-0.2,0.5-0.3,0.7c-0.2,0.2-0.3,0.4-0.6,0.6c-0.2,0.2-0.5,0.3-0.8,0.4
			c-0.3,0.1-0.7,0.1-1,0.1c-0.8,0-1.4-0.2-1.8-0.5c-0.4-0.3-0.7-0.8-0.9-1.4l-2.2-7.7l2.6-0.5l2.2,7.7c0,0.1,0.1,0.2,0.1,0.2
			c0,0,0.1,0,0.1,0s0.1,0,0.1,0c0,0,0.1-0.1,0.1-0.2L101,124.1z"/>
		<path class="st1" d="M104.5,134v-9.7h7.2v2.2h-4.6v1.3h3.5v2.2h-3.5v1.7h4.7v2.2H104.5z"/>
		<path class="st1" d="M113.1,134v-9.7h2.7v7.4h4.6v2.3H113.1z"/>
		<path class="st1" d="M125.5,134.3c-1.5,0-2.7-0.4-3.6-1.3c-0.8-0.9-1.2-2.1-1.2-3.7c0-0.6,0.1-1.2,0.3-1.8
			c0.2-0.6,0.5-1.1,0.8-1.6c0.4-0.5,0.9-0.9,1.5-1.1c0.6-0.3,1.3-0.4,2.2-0.4c0.9,0,1.7,0.1,2.3,0.4c0.6,0.3,1.1,0.7,1.5,1.1
			c0.4,0.5,0.6,1,0.8,1.6c0.2,0.6,0.2,1.2,0.2,1.8c0,0.6-0.1,1.3-0.3,1.9c-0.2,0.6-0.5,1.1-0.8,1.6s-0.9,0.9-1.5,1.1
			C127.1,134.1,126.4,134.3,125.5,134.3z M125.5,131.9c0.4,0,0.7-0.1,0.9-0.2c0.3-0.1,0.5-0.3,0.6-0.6c0.2-0.2,0.3-0.5,0.4-0.9
			c0.1-0.3,0.1-0.7,0.1-1s0-0.7-0.1-1c-0.1-0.3-0.2-0.6-0.3-0.8c-0.2-0.2-0.4-0.4-0.6-0.6c-0.3-0.1-0.6-0.2-1-0.2
			c-0.4,0-0.7,0.1-0.9,0.2c-0.3,0.1-0.5,0.3-0.6,0.6c-0.2,0.2-0.3,0.5-0.3,0.8c-0.1,0.3-0.1,0.7-0.1,1c0,0.3,0,0.6,0.1,1
			c0.1,0.3,0.2,0.6,0.3,0.9c0.2,0.3,0.4,0.5,0.6,0.6C124.8,131.8,125.1,131.9,125.5,131.9z"/>
		<path class="st1" d="M139.8,133.3c-0.3,0.2-0.6,0.3-0.9,0.4c-0.3,0.1-0.6,0.2-0.9,0.3c-0.3,0.1-0.6,0.1-0.9,0.2
			c-0.3,0-0.7,0.1-1.1,0.1c-0.9,0-1.6-0.1-2.2-0.4c-0.6-0.3-1.1-0.6-1.5-1.1c-0.4-0.5-0.7-1-0.9-1.6c-0.2-0.6-0.3-1.3-0.3-2
			c0-0.7,0.1-1.4,0.3-2c0.2-0.6,0.6-1.1,1-1.6c0.4-0.4,1-0.8,1.6-1c0.6-0.2,1.4-0.4,2.2-0.4c0.6,0,1.2,0.1,1.8,0.3
			c0.6,0.2,1,0.4,1.5,0.6l-0.8,2.1c-0.3-0.1-0.6-0.2-0.8-0.3s-0.5-0.2-0.7-0.2s-0.4-0.1-0.5-0.1c-0.2,0-0.3,0-0.5,0
			c-0.7,0-1.3,0.2-1.7,0.7c-0.4,0.5-0.6,1.1-0.6,2c0,0.9,0.2,1.6,0.6,2c0.4,0.4,1,0.7,1.7,0.7c0.2,0,0.4,0,0.6,0
			c0.2,0,0.4-0.1,0.6-0.1c0.2-0.1,0.4-0.1,0.7-0.2c0.2-0.1,0.5-0.2,0.9-0.4L139.8,133.3z"/>
		<path class="st1" d="M140.9,134v-9.7h2.7v9.7H140.9z"/>
		<path class="st1" d="M145.3,134v-9.7h4.2c0.8,0,1.4,0.1,2,0.3c0.6,0.2,1.1,0.6,1.5,1s0.7,0.9,1,1.5c0.2,0.6,0.3,1.2,0.3,2
			c0,0.7-0.1,1.4-0.3,2c-0.2,0.6-0.5,1.1-0.9,1.5c-0.4,0.4-0.9,0.8-1.5,1c-0.6,0.2-1.3,0.4-2.2,0.4H145.3z M148,131.8h1.5
			c0.7,0,1.2-0.2,1.6-0.6s0.5-1,0.5-1.9c0-0.9-0.2-1.6-0.5-2c-0.4-0.4-0.9-0.6-1.6-0.6H148V131.8z"/>
		<path class="st1" d="M162.1,134.3l-0.7-2.7h-3.1l-0.8,2.7l-2.6-0.6l2.2-7.5c0.1-0.3,0.2-0.7,0.4-0.9s0.3-0.5,0.6-0.7
			c0.2-0.2,0.5-0.3,0.8-0.4c0.3-0.1,0.7-0.1,1.1-0.1c0.4,0,0.8,0,1.1,0.1s0.5,0.2,0.7,0.4c0.2,0.2,0.4,0.4,0.5,0.6
			c0.1,0.2,0.2,0.5,0.3,0.8l2.2,7.6L162.1,134.3z M160.7,129.4l-0.8-2.9c0-0.1-0.1-0.1-0.1-0.1c-0.1,0-0.1,0-0.1,0.1l-0.9,2.9H160.7
			z"/>
		<path class="st1" d="M165.7,134v-9.7h4.2c0.8,0,1.4,0.1,2,0.3c0.6,0.2,1.1,0.6,1.5,1s0.7,0.9,1,1.5c0.2,0.6,0.3,1.2,0.3,2
			c0,0.7-0.1,1.4-0.3,2c-0.2,0.6-0.5,1.1-0.9,1.5c-0.4,0.4-0.9,0.8-1.5,1c-0.6,0.2-1.3,0.4-2.2,0.4H165.7z M168.4,131.8h1.5
			c0.7,0,1.2-0.2,1.6-0.6s0.5-1,0.5-1.9c0-0.9-0.2-1.6-0.5-2c-0.4-0.4-0.9-0.6-1.6-0.6h-1.5V131.8z"/>
		<path class="st1" d="M176.1,134v-9.7h7.2v2.2h-4.6v1.3h3.5v2.2h-3.5v1.7h4.7v2.2H176.1z"/>
		<path class="st1" d="M184.8,131.2c0.7,0.2,1.3,0.4,1.8,0.5c0.5,0.1,1,0.2,1.4,0.2c0.5,0,0.9-0.1,1.1-0.2c0.2-0.1,0.3-0.3,0.3-0.5
			c0-0.3-0.1-0.5-0.4-0.6c-0.3-0.1-0.7-0.2-1.2-0.4c-0.4-0.1-0.9-0.2-1.3-0.3c-0.4-0.1-0.7-0.3-1.1-0.5c-0.3-0.2-0.5-0.5-0.7-0.8
			c-0.2-0.3-0.3-0.7-0.3-1.2c0-0.4,0.1-0.8,0.2-1.2s0.4-0.7,0.7-1s0.7-0.5,1.3-0.7c0.5-0.2,1.2-0.3,1.9-0.3c0.6,0,1.3,0.1,1.9,0.2
			c0.6,0.1,1.2,0.3,1.6,0.5l-0.6,2.2c-1.2-0.4-2.2-0.6-3.1-0.6c-0.4,0-0.7,0.1-0.9,0.2c-0.2,0.1-0.3,0.3-0.3,0.5
			c0,0.2,0.1,0.4,0.3,0.5c0.2,0.1,0.6,0.3,1.1,0.4c0.4,0.1,0.9,0.2,1.3,0.3c0.4,0.1,0.8,0.3,1.1,0.5c0.3,0.2,0.6,0.5,0.8,0.8
			s0.3,0.8,0.3,1.3c0,0.5-0.1,0.9-0.3,1.3c-0.2,0.4-0.5,0.7-0.8,1s-0.8,0.5-1.3,0.7s-1.1,0.2-1.8,0.2c-0.4,0-0.8,0-1.2-0.1
			s-0.8-0.1-1.1-0.2s-0.6-0.2-0.9-0.3c-0.3-0.1-0.5-0.2-0.7-0.2L184.8,131.2z"/>
		<path class="st1" d="M196,134v-9.7h4.1c0.5,0,0.9,0,1.3,0.1c0.4,0.1,0.8,0.2,1,0.4c0.3,0.2,0.5,0.4,0.7,0.8
			c0.2,0.3,0.2,0.7,0.2,1.1c0,0.5-0.1,0.9-0.3,1.2c-0.2,0.3-0.4,0.6-0.7,0.8c0.5,0.2,0.8,0.5,1.1,0.9c0.3,0.4,0.4,0.8,0.4,1.3
			s-0.1,0.9-0.3,1.3c-0.2,0.4-0.4,0.7-0.7,0.9c-0.3,0.3-0.7,0.4-1.1,0.6c-0.4,0.1-0.9,0.2-1.4,0.2H196z M198.6,128.1h1.2
			c0.3,0,0.5-0.1,0.7-0.2c0.2-0.1,0.3-0.3,0.3-0.6c0-0.3-0.1-0.5-0.3-0.6c-0.2-0.1-0.5-0.1-1-0.1h-0.8V128.1z M198.6,131.8h1.4
			c0.1,0,0.2,0,0.4-0.1c0.1,0,0.2-0.1,0.3-0.2c0.1-0.1,0.2-0.2,0.2-0.3c0.1-0.1,0.1-0.2,0.1-0.4c0-0.2-0.1-0.5-0.3-0.6
			c-0.2-0.2-0.5-0.2-1-0.2h-1.2V131.8z"/>
		<path class="st1" d="M211.6,134.3l-0.7-2.7h-3.1l-0.8,2.7l-2.6-0.6l2.2-7.5c0.1-0.3,0.2-0.7,0.4-0.9s0.3-0.5,0.6-0.7
			c0.2-0.2,0.5-0.3,0.8-0.4c0.3-0.1,0.7-0.1,1.1-0.1c0.4,0,0.8,0,1.1,0.1s0.5,0.2,0.7,0.4c0.2,0.2,0.4,0.4,0.5,0.6
			c0.1,0.2,0.2,0.5,0.3,0.8l2.2,7.6L211.6,134.3z M210.2,129.4l-0.8-2.9c0-0.1-0.1-0.1-0.1-0.1c-0.1,0-0.1,0-0.1,0.1l-0.9,2.9H210.2
			z"/>
		<path class="st1" d="M218.8,124.4h2.7v6.5c0,1.1-0.3,2-0.9,2.5s-1.5,0.9-2.7,0.9c-0.3,0-0.6,0-0.9-0.1c-0.3,0-0.6-0.1-0.9-0.2
			c-0.3-0.1-0.5-0.2-0.8-0.3s-0.4-0.2-0.6-0.3l1-2.2c0.3,0.2,0.6,0.3,1,0.4c0.4,0.1,0.7,0.2,1,0.2c0.1,0,0.2,0,0.4,0
			c0.1,0,0.2-0.1,0.4-0.2c0.1-0.1,0.2-0.2,0.3-0.3s0.1-0.3,0.1-0.5V124.4z"/>
		<path class="st1" d="M229.6,134.3l-0.7-2.7h-3.1l-0.8,2.7l-2.6-0.6l2.2-7.5c0.1-0.3,0.2-0.7,0.4-0.9c0.1-0.3,0.3-0.5,0.6-0.7
			c0.2-0.2,0.5-0.3,0.8-0.4c0.3-0.1,0.7-0.1,1.1-0.1c0.4,0,0.8,0,1.1,0.1c0.3,0.1,0.5,0.2,0.7,0.4s0.4,0.4,0.5,0.6
			c0.1,0.2,0.2,0.5,0.3,0.8l2.2,7.6L229.6,134.3z M228.2,129.4l-0.8-2.9c0-0.1-0.1-0.1-0.1-0.1c-0.1,0-0.1,0-0.1,0.1l-0.9,2.9H228.2
			z"/>
		<path class="st1" d="M233.4,131.2c0.7,0.2,1.3,0.4,1.8,0.5c0.5,0.1,1,0.2,1.4,0.2c0.5,0,0.9-0.1,1.1-0.2c0.2-0.1,0.3-0.3,0.3-0.5
			c0-0.3-0.1-0.5-0.4-0.6s-0.7-0.2-1.2-0.4c-0.4-0.1-0.9-0.2-1.3-0.3c-0.4-0.1-0.7-0.3-1.1-0.5c-0.3-0.2-0.5-0.5-0.7-0.8
			c-0.2-0.3-0.3-0.7-0.3-1.2c0-0.4,0.1-0.8,0.2-1.2s0.4-0.7,0.7-1s0.7-0.5,1.3-0.7s1.2-0.3,1.9-0.3c0.6,0,1.3,0.1,1.9,0.2
			c0.6,0.1,1.2,0.3,1.6,0.5l-0.6,2.2c-1.2-0.4-2.2-0.6-3.1-0.6c-0.4,0-0.7,0.1-0.9,0.2c-0.2,0.1-0.3,0.3-0.3,0.5
			c0,0.2,0.1,0.4,0.3,0.5c0.2,0.1,0.6,0.3,1.1,0.4c0.4,0.1,0.9,0.2,1.3,0.3s0.8,0.3,1.1,0.5c0.3,0.2,0.6,0.5,0.8,0.8
			s0.3,0.8,0.3,1.3c0,0.5-0.1,0.9-0.3,1.3c-0.2,0.4-0.5,0.7-0.8,1s-0.8,0.5-1.3,0.7s-1.1,0.2-1.8,0.2c-0.4,0-0.8,0-1.2-0.1
			s-0.8-0.1-1.1-0.2c-0.3-0.1-0.7-0.2-0.9-0.3c-0.3-0.1-0.5-0.2-0.7-0.2L233.4,131.2z"/>
		<path class="st1" d="M130,149.9v-3.3c-0.3-0.1-0.6-0.3-0.8-0.6s-0.4-0.6-0.6-1l-1.8-4.1l2.4-1l2,4.4c0,0.1,0.1,0.1,0.2,0.1
			c0.1,0,0.1,0,0.2-0.1l2-4.4l2.5,1l-1.9,4.1c-0.2,0.4-0.4,0.7-0.6,1c-0.2,0.2-0.5,0.5-0.8,0.6v3.3H130z"/>
		<path class="st1" d="M146.3,149.9V145l-0.3,0.7c-0.1,0.3-0.3,0.5-0.4,0.7c-0.1,0.2-0.2,0.4-0.4,0.5c-0.1,0.1-0.3,0.2-0.5,0.3
			c-0.2,0.1-0.4,0.1-0.6,0.1c-0.2,0-0.4,0-0.6-0.1c-0.2-0.1-0.3-0.2-0.5-0.3c-0.1-0.1-0.3-0.3-0.4-0.5c-0.1-0.2-0.3-0.4-0.4-0.7
			l-0.3-0.7v5h-2.6v-9.7h2.3l2.3,4.2c0.1,0.1,0.1,0.2,0.2,0.2c0.1,0,0.1,0,0.2-0.1l2.3-4.2h2.3v9.7H146.3z"/>
		<path class="st1" d="M150.6,149.9v-9.7h7.2v2.2h-4.6v1.3h3.5v2.2h-3.5v1.7h4.7v2.2H150.6z"/>
		<path class="st1" d="M159.3,149.9v-9.7h4.2c0.8,0,1.4,0.1,2,0.3c0.6,0.2,1.1,0.6,1.5,1s0.7,0.9,1,1.5c0.2,0.6,0.3,1.2,0.3,2
			c0,0.7-0.1,1.4-0.3,2c-0.2,0.6-0.5,1.1-0.9,1.5c-0.4,0.4-0.9,0.8-1.5,1c-0.6,0.2-1.3,0.4-2.2,0.4H159.3z M161.9,147.7h1.5
			c0.7,0,1.2-0.2,1.6-0.6s0.5-1,0.5-1.9c0-0.9-0.2-1.6-0.5-2c-0.4-0.4-0.9-0.6-1.6-0.6h-1.5V147.7z"/>
		<path class="st1" d="M169.6,149.9v-9.7h2.7v9.7H169.6z"/>
		<path class="st1" d="M180.6,150.3l-0.7-2.7h-3.1l-0.8,2.7l-2.6-0.6l2.2-7.5c0.1-0.3,0.2-0.7,0.4-0.9s0.3-0.5,0.6-0.7
			c0.2-0.2,0.5-0.3,0.8-0.4c0.3-0.1,0.7-0.1,1.1-0.1c0.4,0,0.8,0,1.1,0.1s0.5,0.2,0.7,0.4c0.2,0.2,0.4,0.4,0.5,0.6
			c0.1,0.2,0.2,0.5,0.3,0.8l2.2,7.6L180.6,150.3z M179.2,145.3l-0.8-2.9c0-0.1-0.1-0.1-0.1-0.1c-0.1,0-0.1,0-0.1,0.1l-0.9,2.9H179.2
			z"/>
		<path class="st1" d="M184.4,147.1c0.7,0.2,1.3,0.4,1.8,0.5c0.5,0.1,1,0.2,1.4,0.2c0.5,0,0.9-0.1,1.1-0.2c0.2-0.1,0.3-0.3,0.3-0.5
			c0-0.3-0.1-0.5-0.4-0.6c-0.3-0.1-0.7-0.2-1.2-0.4c-0.4-0.1-0.9-0.2-1.3-0.3c-0.4-0.1-0.7-0.3-1.1-0.5c-0.3-0.2-0.5-0.5-0.7-0.8
			c-0.2-0.3-0.3-0.7-0.3-1.2c0-0.4,0.1-0.8,0.2-1.2s0.4-0.7,0.7-1s0.7-0.5,1.3-0.7c0.5-0.2,1.2-0.3,1.9-0.3c0.6,0,1.3,0.1,1.9,0.2
			c0.6,0.1,1.2,0.3,1.6,0.5l-0.6,2.2c-1.2-0.4-2.2-0.6-3.1-0.6c-0.4,0-0.7,0.1-0.9,0.2c-0.2,0.1-0.3,0.3-0.3,0.5
			c0,0.2,0.1,0.4,0.3,0.5c0.2,0.1,0.6,0.3,1.1,0.4c0.4,0.1,0.9,0.2,1.3,0.3c0.4,0.1,0.8,0.3,1.1,0.5c0.3,0.2,0.6,0.5,0.8,0.8
			s0.3,0.8,0.3,1.3c0,0.5-0.1,0.9-0.3,1.3c-0.2,0.4-0.5,0.7-0.8,1s-0.8,0.5-1.3,0.7s-1.1,0.2-1.8,0.2c-0.4,0-0.8,0-1.2-0.1
			s-0.8-0.1-1.1-0.2s-0.6-0.2-0.9-0.3c-0.3-0.1-0.5-0.2-0.7-0.2L184.4,147.1z"/>
		<path class="st1" d="M194.2,150.2c-0.4,0-0.7-0.1-1-0.4c-0.2-0.2-0.3-0.6-0.3-1c0-0.4,0.1-0.7,0.3-1c0.2-0.3,0.5-0.4,1-0.4
			c0.4,0,0.8,0.1,1,0.4c0.2,0.3,0.3,0.6,0.3,1c0,0.4-0.1,0.7-0.3,1C194.9,150,194.6,150.2,194.2,150.2z"/>
	</g>
	<g>
		<path class="st1" d="M342.6,117.4c-0.3,0.2-0.6,0.3-0.9,0.4c-0.3,0.1-0.6,0.2-0.9,0.3c-0.3,0.1-0.6,0.1-0.9,0.2
			c-0.3,0-0.7,0.1-1.1,0.1c-0.9,0-1.6-0.1-2.2-0.4c-0.6-0.3-1.1-0.6-1.5-1.1s-0.7-1-0.9-1.6c-0.2-0.6-0.3-1.3-0.3-2
			c0-0.7,0.1-1.4,0.3-2c0.2-0.6,0.6-1.1,1-1.6c0.4-0.4,1-0.8,1.6-1c0.6-0.2,1.4-0.4,2.2-0.4c0.6,0,1.2,0.1,1.8,0.3s1,0.4,1.5,0.6
			l-0.8,2.1c-0.3-0.1-0.6-0.2-0.8-0.3s-0.5-0.2-0.7-0.2c-0.2,0-0.4-0.1-0.5-0.1s-0.3,0-0.5,0c-0.7,0-1.3,0.2-1.7,0.7s-0.6,1.1-0.6,2
			c0,0.9,0.2,1.6,0.6,2c0.4,0.4,1,0.7,1.7,0.7c0.2,0,0.4,0,0.6,0c0.2,0,0.4-0.1,0.6-0.1s0.4-0.1,0.7-0.2c0.2-0.1,0.5-0.2,0.9-0.4
			L342.6,117.4z"/>
		<path class="st1" d="M347.8,118.3c-1.5,0-2.7-0.4-3.6-1.3c-0.8-0.9-1.2-2.1-1.2-3.7c0-0.6,0.1-1.2,0.3-1.8
			c0.2-0.6,0.5-1.1,0.8-1.6c0.4-0.5,0.9-0.9,1.5-1.1c0.6-0.3,1.3-0.4,2.2-0.4c0.9,0,1.7,0.1,2.3,0.4c0.6,0.3,1.1,0.7,1.5,1.1
			c0.4,0.5,0.6,1,0.8,1.6c0.2,0.6,0.2,1.2,0.2,1.8c0,0.6-0.1,1.3-0.3,1.9c-0.2,0.6-0.5,1.1-0.8,1.6s-0.9,0.9-1.5,1.1
			C349.5,118.2,348.7,118.3,347.8,118.3z M347.8,116c0.4,0,0.7-0.1,0.9-0.2c0.3-0.1,0.5-0.3,0.6-0.6s0.3-0.5,0.4-0.9
			c0.1-0.3,0.1-0.7,0.1-1s0-0.7-0.1-1c-0.1-0.3-0.2-0.6-0.3-0.8s-0.4-0.4-0.6-0.6c-0.3-0.1-0.6-0.2-1-0.2s-0.7,0.1-0.9,0.2
			c-0.3,0.1-0.5,0.3-0.6,0.6c-0.2,0.2-0.3,0.5-0.3,0.8c-0.1,0.3-0.1,0.7-0.1,1c0,0.3,0,0.6,0.1,1c0.1,0.3,0.2,0.6,0.3,0.9
			c0.2,0.3,0.4,0.5,0.6,0.6C347.1,115.9,347.4,116,347.8,116z"/>
		<path class="st1" d="M356.6,113.2v4.9H354v-9.7h2.4l3.6,6v-6h2.5v8c0,0.5-0.1,1-0.4,1.3c-0.2,0.3-0.7,0.5-1.2,0.5
			c-0.3,0-0.7-0.1-1-0.3c-0.3-0.2-0.6-0.5-0.9-1L356.6,113.2z"/>
		<path class="st1" d="M364.1,118.1v-9.7h4.2c0.8,0,1.4,0.1,2,0.3c0.6,0.2,1.1,0.6,1.5,1s0.7,0.9,1,1.5s0.3,1.2,0.3,2
			c0,0.7-0.1,1.4-0.3,2c-0.2,0.6-0.5,1.1-0.9,1.5c-0.4,0.4-0.9,0.8-1.5,1c-0.6,0.2-1.3,0.4-2.2,0.4H364.1z M366.8,115.8h1.5
			c0.7,0,1.2-0.2,1.6-0.6c0.4-0.4,0.5-1,0.5-1.9c0-0.9-0.2-1.6-0.5-2s-0.9-0.6-1.6-0.6h-1.5V115.8z"/>
		<path class="st1" d="M380.2,108.4h2.7v5.5c0,0.6-0.1,1.2-0.2,1.8c-0.1,0.5-0.3,1-0.7,1.4c-0.3,0.4-0.7,0.7-1.3,0.9
			c-0.5,0.2-1.2,0.3-2.1,0.3c-0.9,0-1.6-0.1-2.1-0.3c-0.5-0.2-1-0.5-1.3-0.8c-0.3-0.4-0.5-0.8-0.6-1.3c-0.1-0.5-0.2-1.1-0.2-1.8
			v-5.7h2.7v5.4c0,0.4,0,0.7,0.1,0.9s0.1,0.5,0.2,0.7c0.1,0.2,0.3,0.3,0.5,0.4c0.2,0.1,0.5,0.1,0.8,0.1c0.3,0,0.6,0,0.7-0.1
			c0.2-0.1,0.3-0.2,0.5-0.4c0.1-0.2,0.2-0.4,0.2-0.7s0.1-0.6,0.1-0.9V108.4z"/>
		<path class="st1" d="M392.7,117.4c-0.3,0.2-0.6,0.3-0.9,0.4c-0.3,0.1-0.6,0.2-0.9,0.3c-0.3,0.1-0.6,0.1-0.9,0.2
			c-0.3,0-0.7,0.1-1.1,0.1c-0.9,0-1.6-0.1-2.2-0.4c-0.6-0.3-1.1-0.6-1.5-1.1s-0.7-1-0.9-1.6c-0.2-0.6-0.3-1.3-0.3-2
			c0-0.7,0.1-1.4,0.3-2c0.2-0.6,0.6-1.1,1-1.6c0.4-0.4,1-0.8,1.6-1c0.6-0.2,1.4-0.4,2.2-0.4c0.6,0,1.2,0.1,1.8,0.3s1,0.4,1.5,0.6
			l-0.8,2.1c-0.3-0.1-0.6-0.2-0.8-0.3s-0.5-0.2-0.7-0.2c-0.2,0-0.4-0.1-0.5-0.1s-0.3,0-0.5,0c-0.7,0-1.3,0.2-1.7,0.7s-0.6,1.1-0.6,2
			c0,0.9,0.2,1.6,0.6,2c0.4,0.4,1,0.7,1.7,0.7c0.2,0,0.4,0,0.6,0c0.2,0,0.4-0.1,0.6-0.1s0.4-0.1,0.7-0.2c0.2-0.1,0.5-0.2,0.9-0.4
			L392.7,117.4z"/>
		<path class="st1" d="M401.8,117.4c-0.3,0.2-0.6,0.3-0.9,0.4c-0.3,0.1-0.6,0.2-0.9,0.3c-0.3,0.1-0.6,0.1-0.9,0.2
			c-0.3,0-0.7,0.1-1.1,0.1c-0.9,0-1.6-0.1-2.2-0.4c-0.6-0.3-1.1-0.6-1.5-1.1s-0.7-1-0.9-1.6c-0.2-0.6-0.3-1.3-0.3-2
			c0-0.7,0.1-1.4,0.3-2c0.2-0.6,0.6-1.1,1-1.6c0.4-0.4,1-0.8,1.6-1c0.6-0.2,1.4-0.4,2.2-0.4c0.6,0,1.2,0.1,1.8,0.3s1,0.4,1.5,0.6
			l-0.8,2.1c-0.3-0.1-0.6-0.2-0.8-0.3s-0.5-0.2-0.7-0.2c-0.2,0-0.4-0.1-0.5-0.1s-0.3,0-0.5,0c-0.7,0-1.3,0.2-1.7,0.7s-0.6,1.1-0.6,2
			c0,0.9,0.2,1.6,0.6,2c0.4,0.4,1,0.7,1.7,0.7c0.2,0,0.4,0,0.6,0c0.2,0,0.4-0.1,0.6-0.1s0.4-0.1,0.7-0.2c0.2-0.1,0.5-0.2,0.9-0.4
			L401.8,117.4z"/>
		<path class="st1" d="M402.9,118.1v-9.7h2.7v9.7H402.9z"/>
		<path class="st1" d="M411.7,118.3c-1.5,0-2.7-0.4-3.6-1.3c-0.8-0.9-1.2-2.1-1.2-3.7c0-0.6,0.1-1.2,0.3-1.8
			c0.2-0.6,0.5-1.1,0.8-1.6c0.4-0.5,0.9-0.9,1.5-1.1c0.6-0.3,1.3-0.4,2.2-0.4c0.9,0,1.7,0.1,2.3,0.4c0.6,0.3,1.1,0.7,1.5,1.1
			c0.4,0.5,0.6,1,0.8,1.6c0.2,0.6,0.2,1.2,0.2,1.8c0,0.6-0.1,1.3-0.3,1.9c-0.2,0.6-0.5,1.1-0.8,1.6s-0.9,0.9-1.5,1.1
			C413.3,118.2,412.6,118.3,411.7,118.3z M411.7,116c0.4,0,0.7-0.1,0.9-0.2c0.3-0.1,0.5-0.3,0.6-0.6s0.3-0.5,0.4-0.9
			c0.1-0.3,0.1-0.7,0.1-1s0-0.7-0.1-1c-0.1-0.3-0.2-0.6-0.3-0.8s-0.4-0.4-0.6-0.6c-0.3-0.1-0.6-0.2-1-0.2s-0.7,0.1-0.9,0.2
			c-0.3,0.1-0.5,0.3-0.6,0.6c-0.2,0.2-0.3,0.5-0.3,0.8c-0.1,0.3-0.1,0.7-0.1,1c0,0.3,0,0.6,0.1,1c0.1,0.3,0.2,0.6,0.3,0.9
			c0.2,0.3,0.4,0.5,0.6,0.6C411,115.9,411.3,116,411.7,116z M411.4,107.9l-1.3-1.2l2.3-2.5l1.6,1.6L411.4,107.9z"/>
		<path class="st1" d="M420.4,113.2v4.9h-2.6v-9.7h2.4l3.6,6v-6h2.5v8c0,0.5-0.1,1-0.4,1.3c-0.2,0.3-0.7,0.5-1.2,0.5
			c-0.3,0-0.7-0.1-1-0.3c-0.3-0.2-0.6-0.5-0.9-1L420.4,113.2z"/>
		<path class="st1" d="M354.1,129.1v4.9h-2.6v-9.7h2.4l3.6,6v-6h2.5v8c0,0.5-0.1,1-0.4,1.3c-0.2,0.3-0.7,0.5-1.2,0.5
			c-0.3,0-0.7-0.1-1-0.3c-0.3-0.2-0.6-0.5-0.9-1L354.1,129.1z"/>
		<path class="st1" d="M366,134.3c-1.5,0-2.7-0.4-3.6-1.3c-0.8-0.9-1.2-2.1-1.2-3.7c0-0.6,0.1-1.2,0.3-1.8c0.2-0.6,0.5-1.1,0.8-1.6
			c0.4-0.5,0.9-0.9,1.5-1.1c0.6-0.3,1.3-0.4,2.2-0.4c0.9,0,1.7,0.1,2.3,0.4c0.6,0.3,1.1,0.7,1.5,1.1c0.4,0.5,0.6,1,0.8,1.6
			c0.2,0.6,0.2,1.2,0.2,1.8c0,0.6-0.1,1.3-0.3,1.9c-0.2,0.6-0.5,1.1-0.8,1.6s-0.9,0.9-1.5,1.1C367.6,134.1,366.9,134.3,366,134.3z
			 M366,131.9c0.4,0,0.7-0.1,0.9-0.2c0.3-0.1,0.5-0.3,0.6-0.6s0.3-0.5,0.4-0.9c0.1-0.3,0.1-0.7,0.1-1s0-0.7-0.1-1
			c-0.1-0.3-0.2-0.6-0.3-0.8s-0.4-0.4-0.6-0.6c-0.3-0.1-0.6-0.2-1-0.2s-0.7,0.1-0.9,0.2c-0.3,0.1-0.5,0.3-0.6,0.6
			c-0.2,0.2-0.3,0.5-0.3,0.8c-0.1,0.3-0.1,0.7-0.1,1c0,0.3,0,0.6,0.1,1c0.1,0.3,0.2,0.6,0.3,0.9c0.2,0.3,0.4,0.5,0.6,0.6
			C365.3,131.8,365.6,131.9,366,131.9z"/>
		<path class="st1" d="M378.3,134.4l-2.3-2.9c-0.2-0.3-0.4-0.5-0.5-0.6c-0.1-0.1-0.3-0.2-0.5-0.2h-0.1v3.3h-2.7v-9.7h4
			c0.5,0,0.9,0.1,1.4,0.2c0.4,0.1,0.8,0.3,1.1,0.5c0.3,0.2,0.5,0.5,0.7,0.9s0.2,0.7,0.2,1.2c0,0.4-0.1,0.8-0.2,1.1
			c-0.1,0.3-0.3,0.6-0.4,0.8c-0.2,0.2-0.4,0.4-0.6,0.6c-0.2,0.1-0.5,0.3-0.7,0.3c0.2,0.1,0.4,0.2,0.5,0.3c0.2,0.1,0.3,0.3,0.4,0.4
			l1.8,2.3L378.3,134.4z M374.8,128.5h0.9c0.4,0,0.7-0.1,0.9-0.3c0.2-0.2,0.3-0.4,0.3-0.7c0-0.4-0.1-0.7-0.3-0.8
			c-0.2-0.1-0.5-0.2-0.9-0.2h-0.9V128.5z"/>
		<path class="st1" d="M388.3,134v-4.9l-0.3,0.7c-0.1,0.3-0.3,0.5-0.4,0.7s-0.2,0.4-0.4,0.5c-0.1,0.1-0.3,0.2-0.5,0.3
			c-0.2,0.1-0.4,0.1-0.6,0.1c-0.2,0-0.4,0-0.6-0.1c-0.2-0.1-0.3-0.2-0.5-0.3c-0.1-0.1-0.3-0.3-0.4-0.5s-0.2-0.4-0.4-0.7L384,129v5
			h-2.6v-9.7h2.3l2.3,4.2c0.1,0.1,0.1,0.2,0.2,0.2s0.1,0,0.2-0.1l2.3-4.2h2.3v9.7H388.3z"/>
		<path class="st1" d="M399.1,134.3l-0.7-2.7h-3.1l-0.8,2.7l-2.6-0.6l2.2-7.5c0.1-0.3,0.2-0.7,0.4-0.9c0.1-0.3,0.3-0.5,0.6-0.7
			c0.2-0.2,0.5-0.3,0.8-0.4c0.3-0.1,0.7-0.1,1.1-0.1c0.4,0,0.8,0,1.1,0.1c0.3,0.1,0.5,0.2,0.7,0.4s0.4,0.4,0.5,0.6
			c0.1,0.2,0.2,0.5,0.3,0.8l2.2,7.6L399.1,134.3z M397.8,129.4l-0.8-2.9c0-0.1-0.1-0.1-0.1-0.1c-0.1,0-0.1,0-0.1,0.1l-0.9,2.9H397.8
			z"/>
		<path class="st1" d="M402.8,134v-9.7h2.7v7.4h4.6v2.3H402.8z"/>
	</g>
	<g>
		<path class="st1" d="M552.7,118.4l-0.7-2.7h-3.1l-0.8,2.7l-2.6-0.6l2.2-7.5c0.1-0.3,0.2-0.7,0.4-0.9c0.1-0.3,0.3-0.5,0.6-0.7
			c0.2-0.2,0.5-0.3,0.8-0.4c0.3-0.1,0.7-0.1,1.1-0.1c0.4,0,0.8,0,1.1,0.1c0.3,0.1,0.5,0.2,0.7,0.4s0.4,0.4,0.5,0.6
			c0.1,0.2,0.2,0.5,0.3,0.8l2.2,7.6L552.7,118.4z M551.4,113.5l-0.8-2.9c0-0.1-0.1-0.1-0.1-0.1c-0.1,0-0.1,0-0.1,0.1l-0.9,2.9H551.4
			z"/>
		<path class="st1" d="M564.4,117.4c-0.3,0.2-0.6,0.3-0.9,0.4c-0.3,0.1-0.6,0.2-0.9,0.3c-0.3,0.1-0.6,0.1-0.9,0.2
			c-0.3,0-0.7,0.1-1.1,0.1c-0.9,0-1.6-0.1-2.2-0.4c-0.6-0.3-1.1-0.6-1.5-1.1s-0.7-1-0.9-1.6c-0.2-0.6-0.3-1.3-0.3-2
			c0-0.7,0.1-1.4,0.3-2c0.2-0.6,0.6-1.1,1-1.6c0.4-0.4,1-0.8,1.6-1c0.6-0.2,1.4-0.4,2.2-0.4c0.6,0,1.2,0.1,1.8,0.3s1,0.4,1.5,0.6
			l-0.8,2.1c-0.3-0.1-0.6-0.2-0.8-0.3s-0.5-0.2-0.7-0.2c-0.2,0-0.4-0.1-0.5-0.1s-0.3,0-0.5,0c-0.7,0-1.3,0.2-1.7,0.7s-0.6,1.1-0.6,2
			c0,0.9,0.2,1.6,0.6,2c0.4,0.4,1,0.7,1.7,0.7c0.2,0,0.4,0,0.6,0c0.2,0,0.4-0.1,0.6-0.1s0.4-0.1,0.7-0.2c0.2-0.1,0.5-0.2,0.9-0.4
			L564.4,117.4z"/>
		<path class="st1" d="M565.5,118.1v-9.7h7.2v2.2h-4.6v1.3h3.5v2.2h-3.5v1.7h4.7v2.2H565.5z"/>
		<path class="st1" d="M574.1,118.1v-9.7h2.7v7.4h4.6v2.3H574.1z"/>
		<path class="st1" d="M582.4,118.1v-9.7h7.2v2.2h-4.6v1.3h3.5v2.2h-3.5v1.7h4.7v2.2H582.4z"/>
		<path class="st1" d="M597.2,118.5l-2.3-2.9c-0.2-0.3-0.4-0.5-0.5-0.6c-0.1-0.1-0.3-0.2-0.5-0.2h-0.1v3.3H591v-9.7h4
			c0.5,0,0.9,0.1,1.4,0.2c0.4,0.1,0.8,0.3,1.1,0.5c0.3,0.2,0.5,0.5,0.7,0.9s0.2,0.7,0.2,1.2c0,0.4-0.1,0.8-0.2,1.1
			c-0.1,0.3-0.3,0.6-0.4,0.8c-0.2,0.2-0.4,0.4-0.6,0.6c-0.2,0.1-0.5,0.3-0.7,0.3c0.2,0.1,0.4,0.2,0.5,0.3c0.2,0.1,0.3,0.3,0.4,0.4
			l1.8,2.3L597.2,118.5z M593.7,112.6h0.9c0.4,0,0.7-0.1,0.9-0.3c0.2-0.2,0.3-0.4,0.3-0.7c0-0.4-0.1-0.7-0.3-0.8
			c-0.2-0.1-0.5-0.2-0.9-0.2h-0.9V112.6z"/>
		<path class="st1" d="M607,118.4l-0.7-2.7h-3.1l-0.8,2.7l-2.6-0.6l2.2-7.5c0.1-0.3,0.2-0.7,0.4-0.9c0.1-0.3,0.3-0.5,0.6-0.7
			c0.2-0.2,0.5-0.3,0.8-0.4c0.3-0.1,0.7-0.1,1.1-0.1c0.4,0,0.8,0,1.1,0.1c0.3,0.1,0.5,0.2,0.7,0.4s0.4,0.4,0.5,0.6
			c0.1,0.2,0.2,0.5,0.3,0.8l2.2,7.6L607,118.4z M605.7,113.5l-0.8-2.9c0-0.1-0.1-0.1-0.1-0.1c-0.1,0-0.1,0-0.1,0.1l-0.9,2.9H605.7z"
			/>
		<path class="st1" d="M618.7,117.4c-0.3,0.2-0.6,0.3-0.9,0.4c-0.3,0.1-0.6,0.2-0.9,0.3c-0.3,0.1-0.6,0.1-0.9,0.2
			c-0.3,0-0.7,0.1-1.1,0.1c-0.9,0-1.6-0.1-2.2-0.4c-0.6-0.3-1.1-0.6-1.5-1.1s-0.7-1-0.9-1.6c-0.2-0.6-0.3-1.3-0.3-2
			c0-0.7,0.1-1.4,0.3-2c0.2-0.6,0.6-1.1,1-1.6c0.4-0.4,1-0.8,1.6-1c0.6-0.2,1.4-0.4,2.2-0.4c0.6,0,1.2,0.1,1.8,0.3s1,0.4,1.5,0.6
			l-0.8,2.1c-0.3-0.1-0.6-0.2-0.8-0.3s-0.5-0.2-0.7-0.2c-0.2,0-0.4-0.1-0.5-0.1s-0.3,0-0.5,0c-0.7,0-1.3,0.2-1.7,0.7s-0.6,1.1-0.6,2
			c0,0.9,0.2,1.6,0.6,2c0.4,0.4,1,0.7,1.7,0.7c0.2,0,0.4,0,0.6,0c0.2,0,0.4-0.1,0.6-0.1s0.4-0.1,0.7-0.2c0.2-0.1,0.5-0.2,0.9-0.4
			L618.7,117.4z"/>
		<path class="st1" d="M619.8,118.1v-9.7h2.7v9.7H619.8z"/>
		<path class="st1" d="M628.6,118.3c-1.5,0-2.7-0.4-3.6-1.3c-0.8-0.9-1.2-2.1-1.2-3.7c0-0.6,0.1-1.2,0.3-1.8
			c0.2-0.6,0.5-1.1,0.8-1.6c0.4-0.5,0.9-0.9,1.5-1.1c0.6-0.3,1.3-0.4,2.2-0.4c0.9,0,1.7,0.1,2.3,0.4c0.6,0.3,1.1,0.7,1.5,1.1
			c0.4,0.5,0.6,1,0.8,1.6c0.2,0.6,0.2,1.2,0.2,1.8c0,0.6-0.1,1.3-0.3,1.9c-0.2,0.6-0.5,1.1-0.8,1.6s-0.9,0.9-1.5,1.1
			C630.2,118.2,629.5,118.3,628.6,118.3z M628.6,116c0.4,0,0.7-0.1,0.9-0.2c0.3-0.1,0.5-0.3,0.6-0.6s0.3-0.5,0.4-0.9
			c0.1-0.3,0.1-0.7,0.1-1s0-0.7-0.1-1c-0.1-0.3-0.2-0.6-0.3-0.8s-0.4-0.4-0.6-0.6c-0.3-0.1-0.6-0.2-1-0.2s-0.7,0.1-0.9,0.2
			c-0.3,0.1-0.5,0.3-0.6,0.6c-0.2,0.2-0.3,0.5-0.3,0.8c-0.1,0.3-0.1,0.7-0.1,1c0,0.3,0,0.6,0.1,1c0.1,0.3,0.2,0.6,0.3,0.9
			c0.2,0.3,0.4,0.5,0.6,0.6C627.9,115.9,628.2,116,628.6,116z M628.3,107.9l-1.3-1.2l2.3-2.5l1.6,1.6L628.3,107.9z"/>
		<path class="st1" d="M637.3,113.2v4.9h-2.6v-9.7h2.4l3.6,6v-6h2.5v8c0,0.5-0.1,1-0.4,1.3c-0.2,0.3-0.7,0.5-1.2,0.5
			c-0.3,0-0.7-0.1-1-0.3c-0.3-0.2-0.6-0.5-0.9-1L637.3,113.2z"/>
		<path class="st1" d="M569.1,134v-9.7h7.2v2.2h-4.5v1.4h3.5v2.2h-3.5v3.8H569.1z"/>
		<path class="st1" d="M583.3,124.4h2.7v5.5c0,0.6-0.1,1.2-0.2,1.8c-0.1,0.5-0.3,1-0.7,1.4c-0.3,0.4-0.7,0.7-1.3,0.9
			c-0.5,0.2-1.2,0.3-2.1,0.3c-0.9,0-1.6-0.1-2.1-0.3c-0.5-0.2-1-0.5-1.3-0.8c-0.3-0.4-0.5-0.8-0.6-1.3c-0.1-0.5-0.2-1.1-0.2-1.8
			v-5.7h2.7v5.4c0,0.4,0,0.7,0.1,0.9s0.1,0.5,0.2,0.7c0.1,0.2,0.3,0.3,0.5,0.4c0.2,0.1,0.5,0.1,0.8,0.1c0.3,0,0.6,0,0.7-0.1
			c0.2-0.1,0.3-0.2,0.5-0.4c0.1-0.2,0.2-0.4,0.2-0.7s0.1-0.6,0.1-0.9V124.4z"/>
		<path class="st1" d="M587.6,134v-9.7h7.2v2.2h-4.6v1.3h3.5v2.2h-3.5v1.7h4.7v2.2H587.6z"/>
		<path class="st1" d="M602.4,134.4l-2.3-2.9c-0.2-0.3-0.4-0.5-0.5-0.6c-0.1-0.1-0.3-0.2-0.5-0.2h-0.1v3.3h-2.7v-9.7h4
			c0.5,0,0.9,0.1,1.4,0.2c0.4,0.1,0.8,0.3,1.1,0.5c0.3,0.2,0.5,0.5,0.7,0.9s0.2,0.7,0.2,1.2c0,0.4-0.1,0.8-0.2,1.1
			c-0.1,0.3-0.3,0.6-0.4,0.8c-0.2,0.2-0.4,0.4-0.6,0.6c-0.2,0.1-0.5,0.3-0.7,0.3c0.2,0.1,0.4,0.2,0.5,0.3c0.2,0.1,0.3,0.3,0.4,0.4
			l1.8,2.3L602.4,134.4z M598.9,128.5h0.9c0.4,0,0.7-0.1,0.9-0.3c0.2-0.2,0.3-0.4,0.3-0.7c0-0.4-0.1-0.7-0.3-0.8
			c-0.2-0.1-0.5-0.2-0.9-0.2h-0.9V128.5z"/>
		<path class="st1" d="M607.1,134v-7.4h-2.7v-2.3h8v2.3h-2.7v7.4H607.1z"/>
		<path class="st1" d="M613.4,134v-9.7h7.2v2.2H616v1.3h3.5v2.2H616v1.7h4.7v2.2H613.4z"/>
	</g>
	<g>
		<path class="st1" d="M770.5,118.1v-9.7h4.2c0.8,0,1.4,0.1,2,0.3c0.6,0.2,1.1,0.6,1.5,1s0.7,0.9,1,1.5s0.3,1.2,0.3,2
			c0,0.7-0.1,1.4-0.3,2c-0.2,0.6-0.5,1.1-0.9,1.5c-0.4,0.4-0.9,0.8-1.5,1c-0.6,0.2-1.3,0.4-2.2,0.4H770.5z M773.2,115.8h1.5
			c0.7,0,1.2-0.2,1.6-0.6c0.4-0.4,0.5-1,0.5-1.9c0-0.9-0.2-1.6-0.5-2s-0.9-0.6-1.6-0.6h-1.5V115.8z"/>
		<path class="st1" d="M780.9,118.1v-9.7h7.2v2.2h-4.6v1.3h3.5v2.2h-3.5v1.7h4.7v2.2H780.9z"/>
		<path class="st1" d="M789.6,115.3c0.7,0.2,1.3,0.4,1.8,0.5c0.5,0.1,1,0.2,1.4,0.2c0.5,0,0.9-0.1,1.1-0.2c0.2-0.1,0.3-0.3,0.3-0.5
			c0-0.3-0.1-0.5-0.4-0.6s-0.7-0.2-1.2-0.4c-0.4-0.1-0.9-0.2-1.3-0.3c-0.4-0.1-0.7-0.3-1.1-0.5c-0.3-0.2-0.5-0.5-0.7-0.8
			c-0.2-0.3-0.3-0.7-0.3-1.2c0-0.4,0.1-0.8,0.2-1.2s0.4-0.7,0.7-1s0.7-0.5,1.3-0.7s1.2-0.3,1.9-0.3c0.6,0,1.3,0.1,1.9,0.2
			c0.6,0.1,1.2,0.3,1.6,0.5l-0.6,2.2c-1.2-0.4-2.2-0.6-3.1-0.6c-0.4,0-0.7,0.1-0.9,0.2c-0.2,0.1-0.3,0.3-0.3,0.5
			c0,0.2,0.1,0.4,0.3,0.5c0.2,0.1,0.6,0.3,1.1,0.4c0.4,0.1,0.9,0.2,1.3,0.3s0.8,0.3,1.1,0.5c0.3,0.2,0.6,0.5,0.8,0.8
			s0.3,0.8,0.3,1.3c0,0.5-0.1,0.9-0.3,1.3c-0.2,0.4-0.5,0.7-0.8,1s-0.8,0.5-1.3,0.7s-1.1,0.2-1.8,0.2c-0.4,0-0.8,0-1.2-0.1
			s-0.8-0.1-1.1-0.2c-0.3-0.1-0.7-0.2-0.9-0.3c-0.3-0.1-0.5-0.2-0.7-0.2L789.6,115.3z"/>
		<path class="st1" d="M804.9,118.4l-0.7-2.7H801l-0.8,2.7l-2.6-0.6l2.2-7.5c0.1-0.3,0.2-0.7,0.4-0.9c0.1-0.3,0.3-0.5,0.6-0.7
			c0.2-0.2,0.5-0.3,0.8-0.4c0.3-0.1,0.7-0.1,1.1-0.1c0.4,0,0.8,0,1.1,0.1c0.3,0.1,0.5,0.2,0.7,0.4s0.4,0.4,0.5,0.6
			c0.1,0.2,0.2,0.5,0.3,0.8l2.2,7.6L804.9,118.4z M803.5,113.5l-0.8-2.9c0-0.1-0.1-0.1-0.1-0.1c-0.1,0-0.1,0-0.1,0.1l-0.9,2.9H803.5
			z"/>
		<path class="st1" d="M816.6,117.4c-0.3,0.2-0.6,0.3-0.9,0.4c-0.3,0.1-0.6,0.2-0.9,0.3c-0.3,0.1-0.6,0.1-0.9,0.2
			c-0.3,0-0.7,0.1-1.1,0.1c-0.9,0-1.6-0.1-2.2-0.4c-0.6-0.3-1.1-0.6-1.5-1.1s-0.7-1-0.9-1.6c-0.2-0.6-0.3-1.3-0.3-2
			c0-0.7,0.1-1.4,0.3-2c0.2-0.6,0.6-1.1,1-1.6c0.4-0.4,1-0.8,1.6-1c0.6-0.2,1.4-0.4,2.2-0.4c0.6,0,1.2,0.1,1.8,0.3s1,0.4,1.5,0.6
			l-0.8,2.1c-0.3-0.1-0.6-0.2-0.8-0.3s-0.5-0.2-0.7-0.2c-0.2,0-0.4-0.1-0.5-0.1s-0.3,0-0.5,0c-0.7,0-1.3,0.2-1.7,0.7s-0.6,1.1-0.6,2
			c0,0.9,0.2,1.6,0.6,2c0.4,0.4,1,0.7,1.7,0.7c0.2,0,0.4,0,0.6,0c0.2,0,0.4-0.1,0.6-0.1s0.4-0.1,0.7-0.2c0.2-0.1,0.5-0.2,0.9-0.4
			L816.6,117.4z"/>
		<path class="st1" d="M817.7,118.1v-9.7h7.2v2.2h-4.6v1.3h3.5v2.2h-3.5v1.7h4.7v2.2H817.7z"/>
		<path class="st1" d="M826.3,118.1v-9.7h2.7v7.4h4.6v2.3H826.3z"/>
		<path class="st1" d="M834.6,118.1v-9.7h7.2v2.2h-4.6v1.3h3.5v2.2h-3.5v1.7h4.7v2.2H834.6z"/>
		<path class="st1" d="M849.4,118.5l-2.3-2.9c-0.2-0.3-0.4-0.5-0.5-0.6c-0.1-0.1-0.3-0.2-0.5-0.2h-0.1v3.3h-2.7v-9.7h4
			c0.5,0,0.9,0.1,1.4,0.2c0.4,0.1,0.8,0.3,1.1,0.5c0.3,0.2,0.5,0.5,0.7,0.9s0.2,0.7,0.2,1.2c0,0.4-0.1,0.8-0.2,1.1
			c-0.1,0.3-0.3,0.6-0.4,0.8c-0.2,0.2-0.4,0.4-0.6,0.6c-0.2,0.1-0.5,0.3-0.7,0.3c0.2,0.1,0.4,0.2,0.5,0.3c0.2,0.1,0.3,0.3,0.4,0.4
			l1.8,2.3L849.4,118.5z M845.9,112.6h0.9c0.4,0,0.7-0.1,0.9-0.3c0.2-0.2,0.3-0.4,0.3-0.7c0-0.4-0.1-0.7-0.3-0.8
			c-0.2-0.1-0.5-0.2-0.9-0.2h-0.9V112.6z"/>
		<path class="st1" d="M859.2,118.4l-0.7-2.7h-3.1l-0.8,2.7l-2.6-0.6l2.2-7.5c0.1-0.3,0.2-0.7,0.4-0.9c0.1-0.3,0.3-0.5,0.6-0.7
			c0.2-0.2,0.5-0.3,0.8-0.4c0.3-0.1,0.7-0.1,1.1-0.1c0.4,0,0.8,0,1.1,0.1c0.3,0.1,0.5,0.2,0.7,0.4s0.4,0.4,0.5,0.6
			c0.1,0.2,0.2,0.5,0.3,0.8l2.2,7.6L859.2,118.4z M857.8,113.5l-0.8-2.9c0-0.1-0.1-0.1-0.1-0.1c-0.1,0-0.1,0-0.1,0.1l-0.9,2.9H857.8
			z"/>
		<path class="st1" d="M870.9,117.4c-0.3,0.2-0.6,0.3-0.9,0.4c-0.3,0.1-0.6,0.2-0.9,0.3c-0.3,0.1-0.6,0.1-0.9,0.2
			c-0.3,0-0.7,0.1-1.1,0.1c-0.9,0-1.6-0.1-2.2-0.4c-0.6-0.3-1.1-0.6-1.5-1.1s-0.7-1-0.9-1.6c-0.2-0.6-0.3-1.3-0.3-2
			c0-0.7,0.1-1.4,0.3-2c0.2-0.6,0.6-1.1,1-1.6c0.4-0.4,1-0.8,1.6-1c0.6-0.2,1.4-0.4,2.2-0.4c0.6,0,1.2,0.1,1.8,0.3s1,0.4,1.5,0.6
			l-0.8,2.1c-0.3-0.1-0.6-0.2-0.8-0.3s-0.5-0.2-0.7-0.2c-0.2,0-0.4-0.1-0.5-0.1s-0.3,0-0.5,0c-0.7,0-1.3,0.2-1.7,0.7s-0.6,1.1-0.6,2
			c0,0.9,0.2,1.6,0.6,2c0.4,0.4,1,0.7,1.7,0.7c0.2,0,0.4,0,0.6,0c0.2,0,0.4-0.1,0.6-0.1s0.4-0.1,0.7-0.2c0.2-0.1,0.5-0.2,0.9-0.4
			L870.9,117.4z"/>
		<path class="st1" d="M872,118.1v-9.7h2.7v9.7H872z"/>
		<path class="st1" d="M880.8,118.3c-1.5,0-2.7-0.4-3.6-1.3c-0.8-0.9-1.2-2.1-1.2-3.7c0-0.6,0.1-1.2,0.3-1.8
			c0.2-0.6,0.5-1.1,0.8-1.6c0.4-0.5,0.9-0.9,1.5-1.1c0.6-0.3,1.3-0.4,2.2-0.4c0.9,0,1.7,0.1,2.3,0.4c0.6,0.3,1.1,0.7,1.5,1.1
			c0.4,0.5,0.6,1,0.8,1.6c0.2,0.6,0.2,1.2,0.2,1.8c0,0.6-0.1,1.3-0.3,1.9c-0.2,0.6-0.5,1.1-0.8,1.6s-0.9,0.9-1.5,1.1
			C882.4,118.2,881.6,118.3,880.8,118.3z M880.8,116c0.4,0,0.7-0.1,0.9-0.2c0.3-0.1,0.5-0.3,0.6-0.6s0.3-0.5,0.4-0.9
			c0.1-0.3,0.1-0.7,0.1-1s0-0.7-0.1-1c-0.1-0.3-0.2-0.6-0.3-0.8s-0.4-0.4-0.6-0.6c-0.3-0.1-0.6-0.2-1-0.2s-0.7,0.1-0.9,0.2
			c-0.3,0.1-0.5,0.3-0.6,0.6c-0.2,0.2-0.3,0.5-0.3,0.8c-0.1,0.3-0.1,0.7-0.1,1c0,0.3,0,0.6,0.1,1c0.1,0.3,0.2,0.6,0.3,0.9
			c0.2,0.3,0.4,0.5,0.6,0.6C880,115.9,880.4,116,880.8,116z M880.5,107.9l-1.3-1.2l2.3-2.5l1.6,1.6L880.5,107.9z"/>
		<path class="st1" d="M889.5,113.2v4.9h-2.6v-9.7h2.4l3.6,6v-6h2.5v8c0,0.5-0.1,1-0.4,1.3c-0.2,0.3-0.7,0.5-1.2,0.5
			c-0.3,0-0.7-0.1-1-0.3c-0.3-0.2-0.6-0.5-0.9-1L889.5,113.2z"/>
		<path class="st1" d="M796.6,134v-3.3c-0.3-0.1-0.6-0.3-0.8-0.6s-0.4-0.6-0.6-1l-1.8-4.1l2.4-1l2,4.4c0,0.1,0.1,0.1,0.2,0.1
			s0.1,0,0.2-0.1l2-4.4l2.5,1l-1.9,4.1c-0.2,0.4-0.4,0.7-0.6,1c-0.2,0.2-0.5,0.5-0.8,0.6v3.3H796.6z"/>
		<path class="st1" d="M806,134v-9.7h7.2v2.2h-4.5v1.4h3.5v2.2h-3.5v3.8H806z"/>
		<path class="st1" d="M820.7,134.4l-2.3-2.9c-0.2-0.3-0.4-0.5-0.5-0.6c-0.1-0.1-0.3-0.2-0.5-0.2h-0.1v3.3h-2.7v-9.7h4
			c0.5,0,0.9,0.1,1.4,0.2c0.4,0.1,0.8,0.3,1.1,0.5c0.3,0.2,0.5,0.5,0.7,0.9s0.2,0.7,0.2,1.2c0,0.4-0.1,0.8-0.2,1.1
			c-0.1,0.3-0.3,0.6-0.4,0.8c-0.2,0.2-0.4,0.4-0.6,0.6c-0.2,0.1-0.5,0.3-0.7,0.3c0.2,0.1,0.4,0.2,0.5,0.3c0.2,0.1,0.3,0.3,0.4,0.4
			l1.8,2.3L820.7,134.4z M817.2,128.5h0.9c0.4,0,0.7-0.1,0.9-0.3c0.2-0.2,0.3-0.4,0.3-0.7c0-0.4-0.1-0.7-0.3-0.8
			c-0.2-0.1-0.5-0.2-0.9-0.2h-0.9V128.5z"/>
		<path class="st1" d="M823.7,134v-9.7h7.2v2.2h-4.6v1.3h3.5v2.2h-3.5v1.7h4.7v2.2H823.7z"/>
		<path class="st1" d="M835,129.1v4.9h-2.6v-9.7h2.4l3.6,6v-6h2.5v8c0,0.5-0.1,1-0.4,1.3c-0.2,0.3-0.7,0.5-1.2,0.5
			c-0.3,0-0.7-0.1-1-0.3c-0.3-0.2-0.6-0.5-0.9-1L835,129.1z"/>
		<path class="st1" d="M849,134.3l-0.7-2.7h-3.1l-0.8,2.7l-2.6-0.6l2.2-7.5c0.1-0.3,0.2-0.7,0.4-0.9c0.1-0.3,0.3-0.5,0.6-0.7
			c0.2-0.2,0.5-0.3,0.8-0.4c0.3-0.1,0.7-0.1,1.1-0.1c0.4,0,0.8,0,1.1,0.1c0.3,0.1,0.5,0.2,0.7,0.4s0.4,0.4,0.5,0.6
			c0.1,0.2,0.2,0.5,0.3,0.8l2.2,7.6L849,134.3z M847.6,129.4l-0.8-2.9c0-0.1-0.1-0.1-0.1-0.1c-0.1,0-0.1,0-0.1,0.1l-0.9,2.9H847.6z"
			/>
		<path class="st1" d="M852.6,134v-9.7h4.2c0.8,0,1.4,0.1,2,0.3c0.6,0.2,1.1,0.6,1.5,1s0.7,0.9,1,1.5s0.3,1.2,0.3,2
			c0,0.7-0.1,1.4-0.3,2c-0.2,0.6-0.5,1.1-0.9,1.5c-0.4,0.4-0.9,0.8-1.5,1c-0.6,0.2-1.3,0.4-2.2,0.4H852.6z M855.2,131.8h1.5
			c0.7,0,1.2-0.2,1.6-0.6c0.4-0.4,0.5-1,0.5-1.9c0-0.9-0.2-1.6-0.5-2s-0.9-0.6-1.6-0.6h-1.5V131.8z"/>
		<path class="st1" d="M867.3,134.3c-1.5,0-2.7-0.4-3.6-1.3c-0.8-0.9-1.2-2.1-1.2-3.7c0-0.6,0.1-1.2,0.3-1.8
			c0.2-0.6,0.5-1.1,0.8-1.6c0.4-0.5,0.9-0.9,1.5-1.1c0.6-0.3,1.3-0.4,2.2-0.4c0.9,0,1.7,0.1,2.3,0.4c0.6,0.3,1.1,0.7,1.5,1.1
			c0.4,0.5,0.6,1,0.8,1.6c0.2,0.6,0.2,1.2,0.2,1.8c0,0.6-0.1,1.3-0.3,1.9c-0.2,0.6-0.5,1.1-0.8,1.6s-0.9,0.9-1.5,1.1
			C868.9,134.1,868.2,134.3,867.3,134.3z M867.3,131.9c0.4,0,0.7-0.1,0.9-0.2c0.3-0.1,0.5-0.3,0.6-0.6s0.3-0.5,0.4-0.9
			c0.1-0.3,0.1-0.7,0.1-1s0-0.7-0.1-1c-0.1-0.3-0.2-0.6-0.3-0.8s-0.4-0.4-0.6-0.6c-0.3-0.1-0.6-0.2-1-0.2s-0.7,0.1-0.9,0.2
			c-0.3,0.1-0.5,0.3-0.6,0.6c-0.2,0.2-0.3,0.5-0.3,0.8c-0.1,0.3-0.1,0.7-0.1,1c0,0.3,0,0.6,0.1,1c0.1,0.3,0.2,0.6,0.3,0.9
			c0.2,0.3,0.4,0.5,0.6,0.6C866.6,131.8,866.9,131.9,867.3,131.9z"/>
	</g>
	<g>
		<path class="st1" d="M1043.1,118.1v-9.7h4c0.5,0,0.9,0.1,1.4,0.2s0.8,0.3,1.1,0.6s0.6,0.6,0.8,1s0.3,0.9,0.3,1.5
			c0,0.5-0.1,1-0.3,1.4c-0.2,0.4-0.4,0.7-0.8,1c-0.3,0.3-0.7,0.5-1.2,0.6c-0.4,0.1-0.9,0.2-1.4,0.2h-1.3v3.1H1043.1z M1045.8,112.8
			h1.1c0.1,0,0.3,0,0.4,0s0.2-0.1,0.3-0.2s0.2-0.2,0.2-0.3c0.1-0.1,0.1-0.3,0.1-0.5c0-0.2,0-0.4-0.1-0.5s-0.1-0.2-0.2-0.3
			c-0.1-0.1-0.2-0.1-0.4-0.2s-0.3,0-0.4,0h-1.1V112.8z"/>
		<path class="st1" d="M1057.8,118.4l-0.7-2.7h-3.1l-0.8,2.7l-2.6-0.6l2.2-7.5c0.1-0.3,0.2-0.7,0.4-0.9c0.1-0.3,0.3-0.5,0.6-0.7
			c0.2-0.2,0.5-0.3,0.8-0.4c0.3-0.1,0.7-0.1,1.1-0.1c0.4,0,0.8,0,1.1,0.1c0.3,0.1,0.5,0.2,0.7,0.4s0.4,0.4,0.5,0.6
			c0.1,0.2,0.2,0.5,0.3,0.8l2.2,7.6L1057.8,118.4z M1056.4,113.5l-0.8-2.9c0-0.1-0.1-0.1-0.1-0.1c-0.1,0-0.1,0-0.1,0.1l-0.9,2.9
			H1056.4z"/>
		<path class="st1" d="M1067.6,118.5l-2.3-2.9c-0.2-0.3-0.4-0.5-0.5-0.6c-0.1-0.1-0.3-0.2-0.5-0.2h-0.1v3.3h-2.7v-9.7h4
			c0.5,0,0.9,0.1,1.4,0.2c0.4,0.1,0.8,0.3,1.1,0.5c0.3,0.2,0.5,0.5,0.7,0.9s0.2,0.7,0.2,1.2c0,0.4-0.1,0.8-0.2,1.1
			c-0.1,0.3-0.3,0.6-0.4,0.8c-0.2,0.2-0.4,0.4-0.6,0.6c-0.2,0.1-0.5,0.3-0.7,0.3c0.2,0.1,0.4,0.2,0.5,0.3c0.2,0.1,0.3,0.3,0.4,0.4
			l1.8,2.3L1067.6,118.5z M1064.1,112.6h0.9c0.4,0,0.7-0.1,0.9-0.3c0.2-0.2,0.3-0.4,0.3-0.7c0-0.4-0.1-0.7-0.3-0.8
			c-0.2-0.1-0.5-0.2-0.9-0.2h-0.9V112.6z"/>
		<path class="st1" d="M1077.4,118.4l-0.7-2.7h-3.1l-0.8,2.7l-2.6-0.6l2.2-7.5c0.1-0.3,0.2-0.7,0.4-0.9c0.1-0.3,0.3-0.5,0.6-0.7
			c0.2-0.2,0.5-0.3,0.8-0.4c0.3-0.1,0.7-0.1,1.1-0.1c0.4,0,0.8,0,1.1,0.1c0.3,0.1,0.5,0.2,0.7,0.4s0.4,0.4,0.5,0.6
			c0.1,0.2,0.2,0.5,0.3,0.8l2.2,7.6L1077.4,118.4z M1076,113.5l-0.8-2.9c0-0.1-0.1-0.1-0.1-0.1c-0.1,0-0.1,0-0.1,0.1l-0.9,2.9H1076z
			"/>
		<path class="st1" d="M1081,118.1v-9.7h4.2c0.8,0,1.4,0.1,2,0.3c0.6,0.2,1.1,0.6,1.5,1s0.7,0.9,1,1.5s0.3,1.2,0.3,2
			c0,0.7-0.1,1.4-0.3,2c-0.2,0.6-0.5,1.1-0.9,1.5c-0.4,0.4-0.9,0.8-1.5,1c-0.6,0.2-1.3,0.4-2.2,0.4H1081z M1083.7,115.8h1.5
			c0.7,0,1.2-0.2,1.6-0.6c0.4-0.4,0.5-1,0.5-1.9c0-0.9-0.2-1.6-0.5-2s-0.9-0.6-1.6-0.6h-1.5V115.8z"/>
		<path class="st1" d="M1095.8,118.3c-1.5,0-2.7-0.4-3.6-1.3c-0.8-0.9-1.2-2.1-1.2-3.7c0-0.6,0.1-1.2,0.3-1.8
			c0.2-0.6,0.5-1.1,0.8-1.6c0.4-0.5,0.9-0.9,1.5-1.1c0.6-0.3,1.3-0.4,2.2-0.4c0.9,0,1.7,0.1,2.3,0.4c0.6,0.3,1.1,0.7,1.5,1.1
			c0.4,0.5,0.6,1,0.8,1.6c0.2,0.6,0.2,1.2,0.2,1.8c0,0.6-0.1,1.3-0.3,1.9c-0.2,0.6-0.5,1.1-0.8,1.6s-0.9,0.9-1.5,1.1
			C1097.4,118.2,1096.7,118.3,1095.8,118.3z M1095.8,116c0.4,0,0.7-0.1,0.9-0.2c0.3-0.1,0.5-0.3,0.6-0.6s0.3-0.5,0.4-0.9
			c0.1-0.3,0.1-0.7,0.1-1s0-0.7-0.1-1c-0.1-0.3-0.2-0.6-0.3-0.8s-0.4-0.4-0.6-0.6c-0.3-0.1-0.6-0.2-1-0.2s-0.7,0.1-0.9,0.2
			c-0.3,0.1-0.5,0.3-0.6,0.6c-0.2,0.2-0.3,0.5-0.3,0.8c-0.1,0.3-0.1,0.7-0.1,1c0,0.3,0,0.6,0.1,1c0.1,0.3,0.2,0.6,0.3,0.9
			c0.2,0.3,0.4,0.5,0.6,0.6C1095,115.9,1095.4,116,1095.8,116z"/>
	</g>
</g>
</svg>
