<?xml version="1.0" encoding="utf-8"?>
<!-- Generator: Adobe Illustrator 22.1.0, SVG Export Plug-In . SVG Version: 6.00 Build 0)  -->
<svg version="1.1" id="Layer_1" xmlns="http://www.w3.org/2000/svg" xmlns:xlink="http://www.w3.org/1999/xlink" x="0px" y="0px"
	 viewBox="0 0 901 264" style="enable-background:new 0 0 901 264;" xml:space="preserve">
<style type="text/css">
	.st0{fill:#404040;}
	.st1{fill:#DC1B2F;}
	.st2{fill:#1EA54A;}
	.st3{fill:#FEC92D;}
	.st4{fill:#FFFEFB;}
</style>
<g>
	<path class="st0" d="M104.3,136v-12.6l-0.9,1.8c-0.3,0.7-0.7,1.2-1,1.7c-0.3,0.5-0.6,0.9-1,1.3c-0.4,0.3-0.7,0.6-1.2,0.8
		s-0.9,0.3-1.5,0.3c-0.6,0-1.1-0.1-1.6-0.3c-0.4-0.2-0.9-0.4-1.2-0.8c-0.4-0.3-0.7-0.8-1-1.3s-0.6-1.1-1-1.8l-0.9-1.8V136h-6.6
		v-24.6h5.9l5.8,10.7c0.2,0.3,0.3,0.4,0.5,0.4s0.3-0.1,0.5-0.4l5.8-10.8h5.9V136H104.3z"/>
	<path class="st0" d="M126.4,136.6c-3.9,0-7-1.1-9.1-3.3c-2.1-2.2-3.2-5.4-3.2-9.6c0-1.6,0.2-3.2,0.7-4.7c0.4-1.5,1.2-2.9,2.1-4.1
		s2.2-2.2,3.8-2.9c1.5-0.7,3.4-1.1,5.6-1.1c2.3,0,4.3,0.4,5.9,1.1c1.6,0.7,2.8,1.7,3.8,2.9c1,1.2,1.6,2.6,2,4.1
		c0.4,1.5,0.6,3.1,0.6,4.7c0,1.6-0.2,3.2-0.7,4.7c-0.4,1.5-1.2,2.9-2.1,4.1s-2.2,2.2-3.8,2.9C130.5,136.2,128.6,136.6,126.4,136.6z
		 M126.4,130.5c0.9,0,1.7-0.2,2.4-0.5s1.2-0.9,1.6-1.5c0.4-0.6,0.8-1.4,1-2.2s0.3-1.7,0.3-2.6c0-0.9-0.1-1.8-0.3-2.6
		s-0.5-1.5-0.9-2.2s-1-1.1-1.6-1.5c-0.7-0.4-1.5-0.5-2.4-0.5s-1.8,0.2-2.4,0.5c-0.6,0.4-1.2,0.8-1.6,1.5s-0.7,1.3-0.9,2.2
		c-0.2,0.8-0.3,1.7-0.3,2.6c0,0.8,0.1,1.6,0.2,2.4c0.2,0.8,0.4,1.6,0.8,2.2c0.4,0.7,0.9,1.2,1.6,1.6
		C124.5,130.3,125.4,130.5,126.4,130.5z"/>
	<path class="st0" d="M146.2,136v-18.8h-6.8v-5.8h20.4v5.8h-6.8V136H146.2z"/>
	<path class="st0" d="M172.8,136.6c-3.9,0-7-1.1-9.1-3.3c-2.1-2.2-3.2-5.4-3.2-9.6c0-1.6,0.2-3.2,0.7-4.7c0.4-1.5,1.2-2.9,2.1-4.1
		s2.2-2.2,3.8-2.9c1.5-0.7,3.4-1.1,5.6-1.1c2.3,0,4.3,0.4,5.9,1.1c1.6,0.7,2.8,1.7,3.8,2.9c1,1.2,1.6,2.6,2,4.1
		c0.4,1.5,0.6,3.1,0.6,4.7c0,1.6-0.2,3.2-0.7,4.7c-0.4,1.5-1.2,2.9-2.1,4.1s-2.2,2.2-3.8,2.9C176.9,136.2,175,136.6,172.8,136.6z
		 M172.7,130.5c0.9,0,1.7-0.2,2.4-0.5s1.2-0.9,1.6-1.5c0.4-0.6,0.8-1.4,1-2.2s0.3-1.7,0.3-2.6c0-0.9-0.1-1.8-0.3-2.6
		s-0.5-1.5-0.9-2.2s-1-1.1-1.6-1.5c-0.7-0.4-1.5-0.5-2.4-0.5s-1.8,0.2-2.4,0.5c-0.6,0.4-1.2,0.8-1.6,1.5s-0.7,1.3-0.9,2.2
		c-0.2,0.8-0.3,1.7-0.3,2.6c0,0.8,0.1,1.6,0.2,2.4c0.2,0.8,0.4,1.6,0.8,2.2c0.4,0.7,0.9,1.2,1.6,1.6
		C170.9,130.3,171.7,130.5,172.7,130.5z"/>
	<path class="st0" d="M204.1,136.9l-5.9-7.3c-0.5-0.7-1-1.2-1.4-1.5c-0.4-0.3-0.8-0.5-1.3-0.5h-0.4v8.3h-6.8v-24.6h10.3
		c1.3,0,2.4,0.1,3.5,0.4c1.1,0.3,2,0.7,2.7,1.3c0.8,0.6,1.4,1.3,1.8,2.2c0.4,0.9,0.6,1.9,0.6,3.1c0,1-0.1,2-0.4,2.8
		c-0.3,0.8-0.7,1.5-1.1,2.1c-0.5,0.6-1,1.1-1.6,1.5s-1.2,0.7-1.7,0.8c0.5,0.2,1,0.4,1.4,0.8c0.4,0.4,0.7,0.7,1.1,1.1l4.7,5.9
		L204.1,136.9z M195.1,121.9h2.3c1.1,0,1.9-0.2,2.4-0.6c0.5-0.4,0.7-1,0.7-1.8c0-1-0.3-1.7-0.8-2.1s-1.3-0.5-2.2-0.5h-2.3V121.9z"/>
	<path class="st0" d="M234.6,136.8l-1.9-6.9h-8l-2,6.9l-6.6-1.5l5.5-19c0.3-0.9,0.6-1.7,0.9-2.3c0.4-0.7,0.8-1.2,1.4-1.7
		c0.6-0.4,1.3-0.8,2.1-1c0.8-0.2,1.7-0.3,2.8-0.3c1,0,1.9,0.1,2.7,0.3s1.4,0.5,1.9,1s0.9,0.9,1.3,1.6c0.3,0.6,0.6,1.3,0.9,2.1
		l5.5,19.5L234.6,136.8z M231.1,124.2l-1.9-7.5c0-0.2-0.2-0.3-0.4-0.3s-0.3,0.1-0.4,0.3l-2.2,7.5H231.1z"/>
	<path class="st0" d="M29.5,174.4c-0.8,0.4-1.5,0.7-2.3,1c-0.7,0.3-1.4,0.5-2.2,0.8s-1.5,0.4-2.4,0.5c-0.8,0.1-1.7,0.2-2.8,0.2
		c-2.2,0-4.1-0.3-5.7-1s-2.9-1.6-3.8-2.7c-1-1.2-1.7-2.5-2.2-4.1c-0.5-1.6-0.7-3.3-0.7-5.1c0-1.8,0.3-3.5,0.9-5.1
		c0.6-1.6,1.4-2.9,2.5-4c1.1-1.1,2.5-2,4.1-2.7c1.6-0.6,3.5-1,5.6-1c1.6,0,3.2,0.2,4.6,0.6c1.4,0.4,2.7,0.9,3.7,1.5l-2.1,5.5
		c-0.8-0.3-1.5-0.6-2.1-0.8c-0.6-0.2-1.2-0.4-1.7-0.5c-0.5-0.1-1-0.2-1.4-0.3c-0.4,0-0.8-0.1-1.2-0.1c-1.8,0-3.3,0.6-4.3,1.8
		c-1,1.2-1.6,2.9-1.6,5.1c0,2.4,0.5,4.1,1.6,5.2c1,1.1,2.5,1.7,4.3,1.7c0.5,0,1.1,0,1.5-0.1c0.5-0.1,1-0.2,1.5-0.3s1.1-0.3,1.7-0.6
		c0.6-0.2,1.4-0.5,2.2-0.9L29.5,174.4z"/>
	<path class="st0" d="M42.9,176.8c-3.9,0-7-1.1-9.1-3.3c-2.1-2.2-3.2-5.4-3.2-9.6c0-1.6,0.2-3.2,0.7-4.7c0.4-1.5,1.2-2.9,2.1-4.1
		s2.2-2.2,3.8-2.9c1.5-0.7,3.4-1.1,5.6-1.1c2.3,0,4.3,0.4,5.9,1.1c1.6,0.7,2.8,1.7,3.8,2.9s1.6,2.6,2,4.1c0.4,1.5,0.6,3.1,0.6,4.7
		c0,1.6-0.2,3.2-0.7,4.7s-1.2,2.9-2.1,4.1c-1,1.2-2.3,2.2-3.8,2.9C47,176.4,45.1,176.8,42.9,176.8z M42.9,170.8
		c0.9,0,1.7-0.2,2.4-0.5c0.7-0.4,1.2-0.9,1.6-1.5c0.4-0.6,0.8-1.4,1-2.2s0.3-1.7,0.3-2.6c0-0.9-0.1-1.8-0.3-2.6
		c-0.2-0.8-0.5-1.5-0.9-2.2s-1-1.1-1.6-1.5c-0.7-0.4-1.5-0.5-2.4-0.5s-1.8,0.2-2.4,0.5c-0.6,0.4-1.2,0.8-1.6,1.5s-0.7,1.3-0.9,2.2
		c-0.2,0.8-0.3,1.7-0.3,2.6c0,0.8,0.1,1.6,0.2,2.4c0.2,0.8,0.4,1.6,0.8,2.2c0.4,0.7,0.9,1.2,1.6,1.6C41,170.6,41.9,170.8,42.9,170.8
		z"/>
	<path class="st0" d="M76.3,176.2v-12.6l-0.9,1.8c-0.3,0.7-0.7,1.2-1,1.7c-0.3,0.5-0.6,0.9-1,1.3c-0.4,0.3-0.7,0.6-1.2,0.8
		c-0.4,0.2-0.9,0.3-1.5,0.3c-0.6,0-1.1-0.1-1.6-0.3s-0.9-0.4-1.2-0.8c-0.4-0.3-0.7-0.8-1-1.3c-0.3-0.5-0.6-1.1-1-1.8l-0.9-1.8v12.7
		h-6.6v-24.6h5.9l5.8,10.7c0.2,0.3,0.3,0.4,0.5,0.4c0.2,0,0.3-0.1,0.5-0.4l5.8-10.8h5.9v24.6H76.3z"/>
	<path class="st0" d="M87.3,176.2v-24.6h10.4c1.2,0,2.4,0.1,3.4,0.4c1,0.2,1.9,0.6,2.7,1.1c0.7,0.5,1.3,1.1,1.7,1.9s0.6,1.7,0.6,2.8
		c0,1.3-0.3,2.4-0.8,3.2s-1.1,1.5-1.8,2.1c1.2,0.5,2.1,1.2,2.7,2.2s1,2.1,1,3.3c0,1.3-0.2,2.4-0.7,3.3c-0.4,0.9-1.1,1.7-1.9,2.4
		s-1.7,1.1-2.9,1.5c-1.1,0.3-2.3,0.5-3.6,0.5H87.3z M94,161.1h2.9c0.7,0,1.2-0.2,1.7-0.5c0.5-0.3,0.7-0.8,0.7-1.6
		c0-0.8-0.2-1.3-0.7-1.5s-1.3-0.4-2.5-0.4H94V161.1z M94,170.6h3.7c0.3,0,0.6,0,0.9-0.1s0.6-0.2,0.8-0.4c0.2-0.2,0.5-0.4,0.6-0.7
		c0.2-0.3,0.2-0.6,0.2-1c0-0.6-0.2-1.2-0.7-1.6s-1.3-0.6-2.5-0.6h-3V170.6z"/>
	<path class="st0" d="M124.9,151.6h6.8v14c0,1.6-0.2,3.2-0.5,4.5c-0.3,1.4-0.9,2.6-1.7,3.5s-1.9,1.7-3.3,2.3
		c-1.4,0.5-3.1,0.8-5.2,0.8c-2.2,0-4-0.2-5.4-0.7c-1.4-0.5-2.5-1.2-3.3-2.1s-1.3-2.1-1.6-3.4s-0.4-2.8-0.4-4.5v-14.5h6.8v13.8
		c0,0.9,0.1,1.7,0.2,2.4s0.3,1.3,0.6,1.8s0.7,0.8,1.2,1.1c0.5,0.3,1.2,0.4,2,0.4c0.8,0,1.4-0.1,1.9-0.4s0.9-0.6,1.2-1.1
		c0.3-0.5,0.5-1.1,0.6-1.7c0.1-0.7,0.2-1.4,0.2-2.3V151.6z"/>
	<path class="st0" d="M136.1,169c1.7,0.6,3.2,1.1,4.5,1.4c1.3,0.3,2.5,0.5,3.6,0.5c1.4,0,2.3-0.2,2.9-0.5c0.6-0.3,0.9-0.8,0.9-1.3
		c0-0.7-0.3-1.2-1-1.5c-0.6-0.3-1.7-0.6-3.1-1c-1.1-0.2-2.2-0.5-3.2-0.9c-1-0.3-1.9-0.8-2.7-1.3s-1.4-1.2-1.8-2.1
		c-0.5-0.8-0.7-1.9-0.7-3.1c0-1.1,0.2-2.1,0.6-3.1s1-1.8,1.8-2.6c0.8-0.7,1.9-1.3,3.2-1.8c1.3-0.4,3-0.6,4.9-0.6
		c1.6,0,3.3,0.2,4.9,0.5c1.6,0.4,3,0.8,4.1,1.3l-1.6,5.5c-3-1-5.6-1.5-7.8-1.5c-1.1,0-1.9,0.1-2.4,0.4c-0.5,0.3-0.7,0.7-0.7,1.3
		c0,0.5,0.2,0.9,0.8,1.3c0.5,0.3,1.4,0.7,2.8,1c1.1,0.3,2.2,0.5,3.2,0.8s2,0.7,2.9,1.2c0.9,0.5,1.5,1.2,2.1,2.1
		c0.5,0.9,0.8,2,0.8,3.4c0,1.3-0.2,2.4-0.7,3.4c-0.5,1-1.2,1.9-2.1,2.6c-0.9,0.7-2.1,1.3-3.4,1.7c-1.4,0.4-2.9,0.6-4.6,0.6
		c-1,0-2-0.1-3-0.2s-1.9-0.3-2.8-0.5s-1.7-0.4-2.4-0.6s-1.3-0.4-1.8-0.6L136.1,169z"/>
	<path class="st0" d="M163.8,176.2v-18.8H157v-5.8h20.4v5.8h-6.8v18.8H163.8z"/>
	<path class="st0" d="M179.9,176.2v-24.6h6.9v24.6H179.9z"/>
	<path class="st0" d="M202.3,176.8c-3.9,0-7-1.1-9.1-3.3c-2.1-2.2-3.2-5.4-3.2-9.6c0-1.6,0.2-3.2,0.7-4.7c0.4-1.5,1.2-2.9,2.1-4.1
		s2.2-2.2,3.8-2.9c1.5-0.7,3.4-1.1,5.6-1.1c2.3,0,4.3,0.4,5.9,1.1c1.6,0.7,2.8,1.7,3.8,2.9c1,1.2,1.6,2.6,2,4.1
		c0.4,1.5,0.6,3.1,0.6,4.7c0,1.6-0.2,3.2-0.7,4.7s-1.2,2.9-2.1,4.1s-2.2,2.2-3.8,2.9C206.4,176.4,204.5,176.8,202.3,176.8z
		 M202.3,170.8c0.9,0,1.7-0.2,2.4-0.5s1.2-0.9,1.6-1.5s0.8-1.4,1-2.2s0.3-1.7,0.3-2.6c0-0.9-0.1-1.8-0.3-2.6s-0.5-1.5-0.9-2.2
		s-1-1.1-1.6-1.5c-0.7-0.4-1.5-0.5-2.4-0.5s-1.8,0.2-2.4,0.5c-0.6,0.4-1.2,0.8-1.6,1.5s-0.7,1.3-0.9,2.2c-0.2,0.8-0.3,1.7-0.3,2.6
		c0,0.8,0.1,1.6,0.2,2.4c0.2,0.8,0.4,1.6,0.8,2.2c0.4,0.7,0.9,1.2,1.6,1.6C200.4,170.6,201.3,170.8,202.3,170.8z M201.5,150.1
		l-3.2-3l5.8-6.5l4,4L201.5,150.1z"/>
	<path class="st0" d="M224.5,163.6v12.6h-6.6v-24.6h6.2l9.1,15.3v-15.3h6.3V172c0,1.4-0.3,2.5-1,3.3c-0.6,0.8-1.7,1.3-3.1,1.3
		c-0.9,0-1.7-0.2-2.5-0.7s-1.6-1.3-2.3-2.5L224.5,163.6z"/>
</g>
<g>
	<path class="st0" d="M722.7,104.9V92.3l-0.9,1.8c-0.3,0.7-0.7,1.2-1,1.7c-0.3,0.5-0.6,0.9-1,1.3c-0.4,0.3-0.7,0.6-1.2,0.8
		c-0.4,0.2-0.9,0.3-1.5,0.3c-0.6,0-1.1-0.1-1.6-0.3s-0.9-0.4-1.2-0.8c-0.4-0.3-0.7-0.8-1-1.3c-0.3-0.5-0.6-1.1-1-1.8l-0.9-1.8v12.7
		h-6.6V80.3h5.9l5.8,10.7c0.2,0.3,0.3,0.4,0.5,0.4c0.2,0,0.3-0.1,0.5-0.4l5.8-10.8h5.9v24.6H722.7z"/>
	<path class="st0" d="M744.8,105.5c-3.9,0-7-1.1-9.1-3.3c-2.1-2.2-3.2-5.4-3.2-9.6c0-1.6,0.2-3.2,0.7-4.7c0.4-1.5,1.2-2.9,2.1-4.1
		s2.2-2.2,3.8-2.9c1.5-0.7,3.4-1.1,5.6-1.1c2.3,0,4.3,0.4,5.9,1.1c1.6,0.7,2.8,1.7,3.8,2.9c1,1.2,1.6,2.6,2,4.1
		c0.4,1.5,0.6,3.1,0.6,4.7c0,1.6-0.2,3.2-0.7,4.7s-1.2,2.9-2.1,4.1s-2.2,2.2-3.8,2.9C749,105.1,747.1,105.5,744.8,105.5z
		 M744.8,99.5c0.9,0,1.7-0.2,2.4-0.5s1.2-0.9,1.6-1.5s0.8-1.4,1-2.2s0.3-1.7,0.3-2.6c0-0.9-0.1-1.8-0.3-2.6s-0.5-1.5-0.9-2.2
		s-1-1.1-1.6-1.5c-0.7-0.4-1.5-0.5-2.4-0.5s-1.8,0.2-2.4,0.5c-0.6,0.4-1.2,0.8-1.6,1.5s-0.7,1.3-0.9,2.2c-0.2,0.8-0.3,1.7-0.3,2.6
		c0,0.8,0.1,1.6,0.2,2.4c0.2,0.8,0.4,1.6,0.8,2.2c0.4,0.7,0.9,1.2,1.6,1.6C743,99.3,743.8,99.5,744.8,99.5z"/>
	<path class="st0" d="M764.6,104.9V86.1h-6.8v-5.8h20.4v5.8h-6.8v18.8H764.6z"/>
	<path class="st0" d="M791.2,105.5c-3.9,0-7-1.1-9.1-3.3c-2.1-2.2-3.2-5.4-3.2-9.6c0-1.6,0.2-3.2,0.7-4.7c0.4-1.5,1.2-2.9,2.1-4.1
		s2.2-2.2,3.8-2.9c1.5-0.7,3.4-1.1,5.6-1.1c2.3,0,4.3,0.4,5.9,1.1c1.6,0.7,2.8,1.7,3.8,2.9c1,1.2,1.6,2.6,2,4.1
		c0.4,1.5,0.6,3.1,0.6,4.7c0,1.6-0.2,3.2-0.7,4.7s-1.2,2.9-2.1,4.1s-2.2,2.2-3.8,2.9C795.3,105.1,793.4,105.5,791.2,105.5z
		 M791.1,99.5c0.9,0,1.7-0.2,2.4-0.5s1.2-0.9,1.6-1.5s0.8-1.4,1-2.2s0.3-1.7,0.3-2.6c0-0.9-0.1-1.8-0.3-2.6s-0.5-1.5-0.9-2.2
		s-1-1.1-1.6-1.5c-0.7-0.4-1.5-0.5-2.4-0.5s-1.8,0.2-2.4,0.5c-0.6,0.4-1.2,0.8-1.6,1.5s-0.7,1.3-0.9,2.2c-0.2,0.8-0.3,1.7-0.3,2.6
		c0,0.8,0.1,1.6,0.2,2.4c0.2,0.8,0.4,1.6,0.8,2.2c0.4,0.7,0.9,1.2,1.6,1.6C789.3,99.3,790.1,99.5,791.1,99.5z"/>
	<path class="st0" d="M822.5,105.9l-5.9-7.3c-0.5-0.7-1-1.2-1.4-1.5s-0.8-0.5-1.3-0.5h-0.4v8.3h-6.8V80.3h10.3
		c1.3,0,2.4,0.1,3.5,0.4c1.1,0.3,2,0.7,2.7,1.3c0.8,0.6,1.4,1.3,1.8,2.2c0.4,0.9,0.6,1.9,0.6,3.1c0,1-0.1,2-0.4,2.8
		c-0.3,0.8-0.7,1.5-1.1,2.1c-0.5,0.6-1,1.1-1.6,1.5s-1.2,0.7-1.7,0.8c0.5,0.2,1,0.4,1.4,0.8c0.4,0.4,0.7,0.7,1.1,1.1l4.7,5.9
		L822.5,105.9z M813.5,90.8h2.3c1.1,0,1.9-0.2,2.4-0.6c0.5-0.4,0.7-1,0.7-1.8c0-1-0.3-1.7-0.8-2.1s-1.3-0.5-2.2-0.5h-2.3V90.8z"/>
	<path class="st0" d="M704.9,145.2v-24.6h18.4v5.7h-11.6v3.3h8.9v5.7h-8.9v4.2h11.9v5.7H704.9z"/>
	<path class="st0" d="M726.9,145.2v-24.6h6.9v18.9h11.8v5.8H726.9z"/>
	<path class="st0" d="M748,145.2v-24.6h18.4v5.7h-11.6v3.3h8.9v5.7h-8.9v4.2h11.9v5.7H748z M757,119.1l-3.2-3l5.8-6.5l4,4L757,119.1
		z"/>
	<path class="st0" d="M790.5,143.3c-0.8,0.4-1.5,0.7-2.3,1s-1.4,0.5-2.2,0.8s-1.5,0.4-2.4,0.5c-0.8,0.1-1.8,0.2-2.8,0.2
		c-2.2,0-4.1-0.3-5.7-1c-1.6-0.7-2.9-1.6-3.8-2.7c-1-1.2-1.7-2.5-2.2-4.1c-0.5-1.6-0.7-3.3-0.7-5.1c0-1.8,0.3-3.5,0.9-5.1
		c0.6-1.6,1.4-2.9,2.5-4c1.1-1.1,2.5-2,4.1-2.7c1.6-0.6,3.5-1,5.6-1c1.6,0,3.2,0.2,4.6,0.6c1.4,0.4,2.7,0.9,3.7,1.5l-2.1,5.5
		c-0.8-0.3-1.5-0.6-2.1-0.8c-0.6-0.2-1.2-0.4-1.7-0.5c-0.5-0.1-1-0.2-1.4-0.3s-0.8-0.1-1.2-0.1c-1.8,0-3.3,0.6-4.3,1.8
		c-1,1.2-1.6,2.9-1.6,5.1c0,2.4,0.5,4.1,1.6,5.2c1,1.1,2.5,1.7,4.3,1.7c0.5,0,1.1,0,1.5-0.1c0.5-0.1,1-0.2,1.5-0.3s1.1-0.3,1.7-0.6
		c0.6-0.2,1.4-0.5,2.2-0.9L790.5,143.3z"/>
	<path class="st0" d="M799.1,145.2v-18.8h-6.8v-5.8h20.4v5.8h-6.8v18.8H799.1z"/>
	<path class="st0" d="M830.9,146.1l-5.9-7.3c-0.5-0.7-1-1.2-1.4-1.5s-0.8-0.5-1.3-0.5h-0.4v8.3h-6.8v-24.6h10.3
		c1.3,0,2.4,0.1,3.5,0.4c1.1,0.3,2,0.7,2.7,1.3c0.8,0.6,1.4,1.3,1.8,2.2c0.4,0.9,0.6,1.9,0.6,3.1c0,1-0.1,2-0.4,2.8
		c-0.3,0.8-0.7,1.5-1.1,2.1c-0.5,0.6-1,1.1-1.6,1.5s-1.2,0.7-1.7,0.8c0.5,0.2,1,0.4,1.4,0.8c0.4,0.4,0.7,0.7,1.1,1.1l4.7,5.9
		L830.9,146.1z M821.9,131.1h2.3c1.1,0,1.9-0.2,2.4-0.6c0.5-0.4,0.7-1,0.7-1.8c0-1-0.3-1.7-0.8-2.1s-1.3-0.5-2.2-0.5h-2.3V131.1z"/>
	<path class="st0" d="M838.7,145.2v-24.6h6.9v24.6H838.7z"/>
	<path class="st0" d="M870.9,143.3c-0.8,0.4-1.5,0.7-2.3,1s-1.4,0.5-2.2,0.8s-1.5,0.4-2.4,0.5c-0.8,0.1-1.8,0.2-2.8,0.2
		c-2.2,0-4.1-0.3-5.7-1c-1.6-0.7-2.9-1.6-3.8-2.7c-1-1.2-1.7-2.5-2.2-4.1c-0.5-1.6-0.7-3.3-0.7-5.1c0-1.8,0.3-3.5,0.9-5.1
		c0.6-1.6,1.4-2.9,2.5-4c1.1-1.1,2.5-2,4.1-2.7c1.6-0.6,3.5-1,5.6-1c1.6,0,3.2,0.2,4.6,0.6c1.4,0.4,2.7,0.9,3.7,1.5l-2.1,5.5
		c-0.8-0.3-1.5-0.6-2.1-0.8c-0.6-0.2-1.2-0.4-1.7-0.5c-0.5-0.1-1-0.2-1.4-0.3s-0.8-0.1-1.2-0.1c-1.8,0-3.3,0.6-4.3,1.8
		c-1,1.2-1.6,2.9-1.6,5.1c0,2.4,0.5,4.1,1.6,5.2c1,1.1,2.5,1.7,4.3,1.7c0.5,0,1.1,0,1.5-0.1c0.5-0.1,1-0.2,1.5-0.3s1.1-0.3,1.7-0.6
		c0.6-0.2,1.4-0.5,2.2-0.9L870.9,143.3z"/>
	<path class="st0" d="M884.3,145.7c-3.9,0-7-1.1-9.1-3.3c-2.1-2.2-3.2-5.4-3.2-9.6c0-1.6,0.2-3.2,0.7-4.7c0.4-1.5,1.2-2.9,2.1-4.1
		s2.2-2.2,3.8-2.9c1.5-0.7,3.4-1.1,5.6-1.1c2.3,0,4.3,0.4,5.9,1.1c1.6,0.7,2.8,1.7,3.8,2.9c1,1.2,1.6,2.6,2,4.1
		c0.4,1.5,0.6,3.1,0.6,4.7c0,1.6-0.2,3.2-0.7,4.7s-1.2,2.9-2.1,4.1s-2.2,2.2-3.8,2.9C888.5,145.4,886.6,145.7,884.3,145.7z
		 M884.3,139.7c0.9,0,1.7-0.2,2.4-0.5s1.2-0.9,1.6-1.5s0.8-1.4,1-2.2s0.3-1.7,0.3-2.6c0-0.9-0.1-1.8-0.3-2.6s-0.5-1.5-0.9-2.2
		c-0.4-0.6-1-1.1-1.6-1.5c-0.7-0.4-1.5-0.5-2.4-0.5s-1.8,0.2-2.4,0.5c-0.6,0.4-1.2,0.8-1.6,1.5c-0.4,0.6-0.7,1.3-0.9,2.2
		c-0.2,0.8-0.3,1.7-0.3,2.6c0,0.8,0.1,1.6,0.2,2.4c0.2,0.8,0.4,1.6,0.8,2.2c0.4,0.7,0.9,1.2,1.6,1.6
		C882.5,139.5,883.3,139.7,884.3,139.7z"/>
	<path class="st0" d="M711.3,185.4v-8.3c-0.9-0.3-1.6-0.8-2.1-1.5s-1.1-1.5-1.5-2.6l-4.7-10.4l6.2-2.5l5.1,11.1
		c0.1,0.2,0.3,0.3,0.5,0.3s0.4-0.1,0.5-0.3l5.1-11.2l6.3,2.4l-4.8,10.6c-0.5,1-1,1.9-1.5,2.5c-0.5,0.6-1.3,1.2-2.2,1.5v8.3H711.3z"
		/>
	<path class="st0" d="M735.1,185.4v-24.6h10.4c1.2,0,2.4,0.1,3.4,0.4c1,0.2,1.9,0.6,2.7,1.1c0.7,0.5,1.3,1.1,1.7,1.9
		s0.6,1.7,0.6,2.8c0,1.3-0.3,2.4-0.8,3.2s-1.1,1.5-1.8,2.1c1.2,0.5,2.1,1.2,2.7,2.2s1,2.1,1,3.3c0,1.3-0.2,2.4-0.7,3.3
		c-0.4,0.9-1.1,1.7-1.9,2.4s-1.7,1.1-2.9,1.5c-1.1,0.3-2.3,0.5-3.6,0.5H735.1z M741.8,170.3h2.9c0.7,0,1.2-0.2,1.7-0.5
		c0.5-0.3,0.7-0.8,0.7-1.6c0-0.8-0.2-1.3-0.7-1.5s-1.3-0.4-2.5-0.4h-2.2V170.3z M741.8,179.8h3.7c0.3,0,0.6,0,0.9-0.1
		s0.6-0.2,0.8-0.4c0.2-0.2,0.5-0.4,0.6-0.7c0.2-0.3,0.2-0.6,0.2-1c0-0.6-0.2-1.2-0.7-1.6s-1.3-0.6-2.5-0.6h-3V179.8z"/>
	<path class="st0" d="M774.9,186.2l-1.9-6.9h-8l-2,6.9l-6.6-1.5l5.5-19c0.3-0.9,0.6-1.7,0.9-2.3c0.4-0.7,0.8-1.2,1.4-1.7
		c0.6-0.4,1.3-0.8,2.1-1c0.8-0.2,1.7-0.3,2.8-0.3c1,0,1.9,0.1,2.7,0.3s1.4,0.5,1.9,1s0.9,0.9,1.3,1.6c0.3,0.6,0.6,1.3,0.9,2.1
		l5.5,19.5L774.9,186.2z M771.4,173.6l-1.9-7.5c0-0.2-0.2-0.3-0.4-0.3s-0.3,0.1-0.4,0.3l-2.2,7.5H771.4z"/>
	<path class="st0" d="M786.9,185.4v-18.8h-6.8v-5.8h20.4v5.8h-6.8v18.8H786.9z"/>
	<path class="st0" d="M803,185.4v-24.6h18.4v5.7h-11.6v3.3h8.9v5.7h-8.9v4.2h11.9v5.7H803z"/>
	<path class="st0" d="M840.8,186.4l-5.9-7.3c-0.5-0.7-1-1.2-1.4-1.5s-0.8-0.5-1.3-0.5h-0.4v8.3h-6.8v-24.6h10.3
		c1.3,0,2.4,0.1,3.5,0.4c1.1,0.3,2,0.7,2.7,1.3c0.8,0.6,1.4,1.3,1.8,2.2c0.4,0.9,0.6,1.9,0.6,3.1c0,1-0.1,2-0.4,2.8
		c-0.3,0.8-0.7,1.5-1.1,2.1c-0.5,0.6-1,1.1-1.6,1.5s-1.2,0.7-1.7,0.8c0.5,0.2,1,0.4,1.4,0.8c0.4,0.4,0.7,0.7,1.1,1.1l4.7,5.9
		L840.8,186.4z M831.8,171.3h2.3c1.1,0,1.9-0.2,2.4-0.6c0.5-0.4,0.7-1,0.7-1.8c0-1-0.3-1.7-0.8-2.1s-1.3-0.5-2.2-0.5h-2.3V171.3z"/>
	<path class="st0" d="M850.7,159.3l-3.2-3l5.8-6.5l4,4L850.7,159.3z M848.6,185.4v-24.6h6.9v24.6H848.6z"/>
	<path class="st0" d="M876.5,186.2l-1.9-6.9h-8l-2,6.9l-6.6-1.5l5.5-19c0.3-0.9,0.6-1.7,0.9-2.3c0.4-0.7,0.8-1.2,1.4-1.7
		c0.6-0.4,1.3-0.8,2.1-1c0.8-0.2,1.7-0.3,2.8-0.3c1,0,1.9,0.1,2.7,0.3s1.4,0.5,1.9,1s0.9,0.9,1.3,1.6c0.3,0.6,0.6,1.3,0.9,2.1
		l5.5,19.5L876.5,186.2z M873,173.6l-1.9-7.5c0-0.2-0.2-0.3-0.4-0.3s-0.3,0.1-0.4,0.3l-2.2,7.5H873z"/>
</g>
<g>
	<g>
		<path class="st1" d="M478,153.4v-11.3h-11.4v-12H478v-11.8h12.1v11.8h11.2v12h-11.2v11.3H478z"/>
	</g>
	<g>
		<path class="st2" d="M568.3,114.4v41.2c0,0,20.2,7,29.5,16.3c9.3,9.3,43.5,4.7,43.5,4.7s17.9-14,17.9-17.9s0-52,0-52
			s-7-5.4-13.2-5.4V91.1h-13.2v9.3h-11.7v-9.3h-13.2v8.5C607.9,99.7,576.8,115.2,568.3,114.4z"/>
	</g>
	<g>
		<g>
			<path class="st3" d="M300.3,125.3l29-16.6h14.5v-4.7h-15v-8.3h43v9.3h-20.2v3.1h20.2c0,0,8.3,5.2,8.3,22.8s0.5,31.1-5.2,34.7
				c-5.7,3.6-12.9,12-12.9,12h-33.7c0,0-18.1-16.2-28-16.7V125.3z"/>
		</g>
		<g>
			<polygon class="st3" points="282.2,121.1 287.3,121.1 287.3,136.8 293,136.8 293,148.6 287.6,148.6 287.6,162.1 282.2,162.1 			
				"/>
		</g>
		<g>
			<polygon class="st3" points="397.1,162.1 392,162.1 392,146.5 386.3,146.5 386.3,134.6 391.7,134.6 391.7,121.1 397.1,121.1 			
				"/>
		</g>
	</g>
	<g>
		<path class="st1" d="M581.7,36.5C537,15.2,491.7,16.3,461.6,21c-18.6,2.9-33.7,7.4-43.4,10.8l-1.5-3.4c-1.8-4.3-7.6-5-10.3-1.3
			l-7.2,9.6l-7.2,9.6c-2.8,3.7-0.5,9,4.1,9.6l11.9,1.5l11.9,1.5c4.6,0.6,8.1-4.1,6.3-8.3l-3.4-7.9c9.3-3.2,23.6-7.4,41-10.1
			c28.4-4.4,71.1-5.4,112.9,14.6c0.8,0.4,1.7,0.6,2.5,0.6c2.2,0,4.3-1.2,5.3-3.3C585.8,41.4,584.6,37.9,581.7,36.5z"/>
	</g>
	<g>
		<path class="st1" d="M394.1,234.5c44.7,21.3,90,20.2,120.1,15.5c18.6-2.9,33.7-7.4,43.4-10.8l1.5,3.4c1.8,4.3,7.6,5,10.3,1.3
			l7.2-9.6l7.2-9.6c2.8-3.7,0.5-9-4.1-9.6l-11.9-1.5l-11.9-1.5c-4.6-0.6-8.1,4.1-6.3,8.3l3.4,7.9c-9.3,3.2-23.6,7.4-41,10.1
			c-28.4,4.4-71.1,5.4-112.9-14.6c-0.8-0.4-1.7-0.6-2.5-0.6c-2.2,0-4.3,1.2-5.3,3.3C389.9,229.6,391.2,233.1,394.1,234.5z"/>
	</g>
	<g>
		<path class="st4" d="M343.5,124.9c0,0-11.3,15.9-10.5,22.9c0.8,7,5,10.5,10.5,10.5s10.5-4.3,10.5-10.5S349.3,130.7,343.5,124.9z"
			/>
	</g>
	<g>
		<polygon class="st4" points="615.3,116.6 637.1,116.6 623.5,138.3 637.1,138.3 611.1,163.6 620,142.2 609.1,142.2 		"/>
	</g>
</g>
</svg>
