<svg xmlns="http://www.w3.org/2000/svg" viewBox="-5 57.9 1010 884.2"><path d="M876.1 707.3c-8.6-3.7-17.9-8.8-28.6-14.6-7.9-4.3-16.8-9.2-26.3-13.9-5.6-2.9-11.4-6-17.4-9.1-52.1-27.4-116.4-61.4-196.7-78.1 26.3-33.9 49.1-78.7 77.3-151.6C698 406 698 373.8 698 336.6V286c2.5-34.9 4.2-68-2.4-89.9-13.7-48-36-82.2-68.2-104.8-32.1-22.5-74.2-33.5-128.7-33.5-54.5 0-96.6 10.9-128.7 33.5-32 22.7-54.3 56.9-68 104.9l-.1.4c-4 20-4.9 53.5-2.3 89.5v50.6c0 37.5 0 67.1 13.6 103.3v.1c26.7 65.6 48.2 115.7 77.1 151.6-84.4 17.4-151.6 52.1-211.7 87.2-9.5 4.8-18.4 9.6-26.2 13.9-10.7 5.9-20 10.9-28.7 14.6C-3.5 764.2-5 828.4-5 831.1v111h1010v-111c0-2.7-1.5-66.9-128.9-123.8zm-671.5-21.9c53.4-28.1 119.9-63.2 204.7-78.9l15-4.9-10-10c-31.6-36.2-56-89.1-82.9-157.4-12.9-32.2-12.9-59.6-12.9-97.5V319c0-4.2-.5-8.8-1-13.7-.6-5.8-1.2-12.3-1.2-19.4v-.4c-2.1-29.4-4.5-62.7 2-84.3v-.1C342 114.8 399.4 74.5 498.9 74.5c97.9 0 154.3 39 182.8 126.5 3.8 19.2 4.5 49.9 2.1 84.5v51.1c0 37.9 0 65.3-12.9 97.5v.1C645 503.1 621 556.2 588 591.4l-10.1 10.1 14.7 4.9.4.1c91.4 14.9 160.8 53.8 216.6 85.1l4.8 2.7c19.6 10.9 39.9 22.2 55.6 28.9 33 14.7 77.7 39.4 102.7 73.6 14.4 19.6 15.6 33.6 15.7 34.5v94.2H13.8v-94.3c0-.6 1.9-56.2 118.4-108 9-3.9 18.5-9 29.4-15 8.2-4.5 16.6-9.1 26.1-13.8 5.5-3 11.1-5.9 16.9-9z"/><path d="M790.9 775.4H549.1v109.3h241.8V775.4zm-225.2 92.7v-73.9H772v73.9H565.7z"/></svg>