<svg xmlns="http://www.w3.org/2000/svg" viewBox="0 0 792 576"><path fill="#FFF" d="M103.93 12.146h536.355V530.79H103.93z"/><path fill="#222" d="M644.785 535.29H99.43V7.646h545.355V535.29zm-536.356-9h527.354V16.646H108.43V526.29z"/><path fill="#FFF" d="M140.267 48.5H688.07v518.644H140.268z"/><path fill="#222" d="M692.57 571.645H135.767V44H692.57v527.645zm-547.803-9H683.57V53H144.767v509.645z"/><path d="M419.8 241.137c-9.436-.83-17.113-4.453-24.573-11.082L398.65 226c6.43 6.114 12.844 9.653 21.35 10.484v-29.56c-15.55-3.405-21.98-9.12-21.98-19.49 0-10.467 9.12-18.46 21.782-18.774v-6.015h4.968v6.214c7.975.73 13.79 3.52 20.02 8.505l-3.422 4.038c-5.5-4.77-10.783-7.16-16.798-7.876v29.126c15.768 3.323 22.397 9.238 22.397 19.39 0 11-9.238 18.775-22.198 19.19v10.153h-4.97v-10.25zm.217-39.495V173.33c-10.052.216-16.682 6.214-16.682 13.674-.016 6.962 3.09 11.315 16.682 14.638zm4.57 6.314v28.628c10.367-.216 17.113-6.214 17.113-14.106-.016-7.062-3.44-11.415-17.114-14.522z"/><path fill="#222" d="M256.64 324.93h337.29v9H256.64zM256.64 383.083h337.29v9H256.64zM256.64 441.236h337.29v9H256.64z"/></svg>