<svg xmlns="http://www.w3.org/2000/svg" viewBox="0 0 792 576"><path d="M473.93 383.76H230.894c-25.412 0-34.132-12.805-35.193-19.576-2.494-15.884-10.71-30.21-23.132-40.338-12.395-10.104-28.485-15.67-45.307-15.67-33.487 0-62.68 21.81-66.46 49.648-.62 4.596-2.79 8.163-6.276 10.313-1.606.992-3.43 1.518-5.27 1.518-5.294 0-10.02-4.272-10.183-9.172-.245-.74-2.08-2.447-3.18-3.474-.743-.694-1.51-1.41-2.27-2.187-2.632-2.7-4.08-6.272-4.08-10.065 0-7.972 6.5-14.24 14.795-14.274h1.37c.722-2.062 1.584-5.495 1.584-7.14v-24.04c0-4 1.66-9.518 9.56-13.078 1.165-.52 2.375-1.038 3.607-1.567 4.572-1.96 10.262-4.403 12.202-6.343 3.782-3.812 18.566-13.567 33.093-20.15 19.527-8.873 70.912-29.555 126.098-29.924l.76-.005.43.145c26.723-35.337 60.8-59.81 101.298-72.746 31.102-9.923 59.295-11.29 85.13-11.29 50.63 0 88.65 7.65 123.28 24.81 33.285 16.495 64.684 42.77 101.81 85.19 23.926 27.325 40.803 50.097 54.723 73.832.41.696.73 1.49 1.034 2.28 8.04.282 14.257 6.436 14.257 14.24 0 2.02-.393 3.867-1.17 5.49-.21.514-.32 2.53.67 4.44 1.004 1.94 1.964 3.83 2.857 5.595 1.598 3.08 1.895 6.648.817 10.006-1.08 3.365-3.4 6.11-6.543 7.737-.88.484-1.7.752-2.364.968l-.226.07c-1.365.38-9.192 1.664-17.517 2.31-5.146.402-10.155.598-15.31.598-22.565 0-35.97-7.555-39.845-22.454-7.992-30.96-35.576-52.58-67.082-52.58-34.64 0-63.444 24.24-68.493 57.636-1.855 12.405-11.244 19.24-26.432 19.24zm-346.67-84.583c18.887 0 36.997 6.284 50.993 17.693 14.145 11.53 23.498 27.84 26.337 45.92.487 3.105 6.363 11.97 26.302 11.97H473.93c15.8 0 17.106-8.716 17.535-11.58 5.72-37.837 38.27-65.295 77.393-65.295 35.61 0 66.778 24.394 75.795 59.32 1.01 3.882 4.084 15.712 31.13 15.712 4.92 0 9.7-.187 14.613-.57 7.905-.613 14.676-1.76 15.76-2 .31-.102.6-.2.716-.266l.164-.086c1.028-.524 1.788-1.415 2.14-2.507.338-1.058.247-2.178-.26-3.152-.9-1.78-1.85-3.644-2.842-5.562-2.07-4.01-2.395-9.135-.79-12.47.19-.397.286-.924.286-1.598 0-3.447-2.936-5.25-5.836-5.25h-2.078c-3.562 0-4.788-3.242-5.6-5.387-.17-.448-.428-1.126-.548-1.345-13.613-23.215-30.185-45.56-53.723-72.444-36.313-41.494-66.856-67.107-99.033-83.053-33.323-16.513-70.112-23.876-119.285-23.876-25.107 0-52.465 1.317-82.393 10.865-38.98 12.45-71.758 36.122-97.424 70.355l-.1.147c-.175.275-.43.676-.806 1.107-1.1 1.316-2.795 2.065-4.696 2.065-.955 0-1.902-.194-2.74-.56l-.2-.08c-53.153.553-102.726 20.52-121.637 29.115-14.71 6.665-28 15.852-30.436 18.305-3.176 3.177-9.202 5.763-15.03 8.263-1.195.513-2.37 1.017-3.48 1.51-4.236 1.91-4.236 3.98-4.236 4.864v24.04c0 .162-.986 16.14-8.095 16.14H44.35c-2.88.012-5.813 1.826-5.813 5.273 0 1.432.54 2.773 1.52 3.778.607.622 1.267 1.236 1.965 1.886 2.735 2.55 5.83 5.434 6.033 9.56.163.246.68.672 1.194.672.11 0 .286-.02.54-.176.426-.262 1.708-1.053 2.085-3.86 2.203-16.225 11.53-31.042 26.266-41.73 13.977-10.132 31.42-15.713 49.118-15.713zm463.1-48.226H450.283c-18.76 0-34.023-15.26-34.023-34.02v-21.1c0-18.01 14.1-32.66 31.43-32.66.978 0 1.975.047 2.96.14 56.564 5.255 98.25 24.917 143.873 67.866.896.85 8.335 8.186 5.912 14.537-.912 2.39-3.4 5.238-10.075 5.238zm-142.672-78.78c-12.367 0-22.43 10.615-22.43 23.66v21.1c0 13.797 11.227 25.022 25.024 25.022H590.36c.453 0 .826-.018 1.132-.046-.684-1.292-2.044-3.104-3.1-4.14l-.038-.035c-44.604-41.987-83.447-60.34-138.544-65.46-.71-.065-1.422-.1-2.122-.1zm-42.172 78.78H261.35c-6.197 0-10.15-7.16-10.15-12.092-.01-.095-.092-.61-.146-.952l-.015-.1c-.22-1.582-.41-2.947 6.68-11.253 2.63-3.08 8.13-9.2 15.39-15.567 35.103-30.62 75.307-42.147 102.853-46.427 1.544-.243 3.11-.365 4.648-.365 16.48 0 29.887 14.203 29.887 31.66v16.998c0 15.067.155 27.18.27 29.65l.166.517c.004.012.157.494.32 1.096.463 1.486.23 3.1-.65 4.385-1.068 1.558-2.922 2.45-5.088 2.45zm-143.884-9h140.144c-.236-5.876-.277-20.05-.277-29.1v-16.997c0-12.495-9.37-22.66-20.888-22.66-1.074 0-2.172.086-3.26.257-26.38 4.097-64.844 15.11-98.317 44.308-9.752 8.554-16.86 17.248-18.884 20.23.03.293.048.583.048.868-.002 1.017.825 2.63 1.432 3.095z"/><path d="M568.88 436.83c-32.76 0-59.41-26.658-59.41-59.424 0-32.767 26.65-59.424 59.41-59.424 32.742 0 59.4 26.656 59.424 59.42 0 32.77-26.658 59.427-59.423 59.427zm0-109.848c-27.796 0-50.41 22.62-50.41 50.424s22.614 50.423 50.41 50.423c27.805 0 50.424-22.62 50.424-50.425-.02-27.802-22.64-50.424-50.423-50.424zm-441.632 109.88c-4.975 0-9.96-.624-14.813-1.856-26.268-6.807-44.6-30.48-44.6-57.577 0-27.085 18.33-50.76 44.577-57.573 4.773-1.224 9.633-1.842 14.46-1.842h.41c32.726 0 59.378 26.653 59.378 59.413 0 32.77-26.652 59.433-59.412 59.433zm-.377-109.846c-4.07 0-8.18.523-12.21 1.557-22.264 5.78-37.823 25.872-37.823 48.856 0 22.993 15.56 43.085 37.835 48.857 4.11 1.044 8.35 1.575 12.578 1.575 27.797 0 50.412-22.625 50.412-50.435 0-27.797-22.615-50.412-50.412-50.412h-.377z"/><path d="M125.09 398.397c-12.33 0-22.36-10.03-22.36-22.362 0-12.33 10.03-22.36 22.36-22.36s22.363 10.03 22.363 22.36-10.032 22.362-22.362 22.362zm0-35.723c-7.367 0-13.36 5.994-13.36 13.36 0 7.37 5.993 13.363 13.36 13.363 7.37 0 13.363-5.994 13.363-13.362 0-7.367-5.994-13.36-13.362-13.36zm443.802 35.723c-12.33 0-22.362-10.03-22.362-22.362 0-12.33 10.03-22.36 22.362-22.36s22.362 10.03 22.362 22.36-10.03 22.362-22.362 22.362zm0-35.723c-7.368 0-13.362 5.994-13.362 13.36 0 7.37 5.994 13.363 13.362 13.363s13.362-5.994 13.362-13.362c0-7.367-5.994-13.36-13.362-13.36z" opacity=".4"/><path fill="#FFF" d="M490.737 143.468H757.95v315.957H490.737z"/><path fill="#020202" d="M762.45 463.926H486.235V138.968H762.45v324.958zm-267.214-9H753.45V147.968H495.235v306.958z"/><path fill="#FFF" d="M516.788 214.052h211.83V424.13h-211.83z"/><path fill="#020202" d="M733.117 428.63h-220.83V209.55h220.83v219.08zm-211.83-9h202.83V218.55h-202.83v201.08zM566.065 116.574h9v53.777h-9zM623.213 116.574h9v53.777h-9zM680.35 116.574h9v53.777h-9z"/><g><path d="M563.365 349.512l5.246-4.325c7.338 9.313 16.527 14.683 28.593 14.683 12.324 0 22.682-8.257 22.682-20.322v-.258c0-12.852-12.065-19.93-28.58-19.93h-4.987l-1.708-3.796 31.6-36.454h-48.127v-6.437h57.44v4.853l-31.085 35.545c17.435 1.047 32.523 9.18 32.523 25.964v.258c0 15.998-14.03 26.75-29.892 26.75-14.953-.003-26.232-6.822-33.702-16.528zM663 279.097l-17.706 6.033-1.842-5.38 20.985-7.74h5.246v92.444h-6.695v-85.356h.01z"/></g></svg>