<svg xmlns="http://www.w3.org/2000/svg" viewBox="0 0 137 38">
        <g fill="#707071" fill-rule="evenodd">
                <path d="M2.2 27.177h14.11V6.334H2.2v20.843zm7.055 4.586c-1.03 0-1.865-.825-1.865-1.845 0-1.018.835-1.843 1.865-1.843s1.866.825 1.866 1.843c0 1.02-.835 1.845-1.866 1.845zM15.709 0H2.801C1.255 0 0 1.239 0 2.77v28.256c0 1.53 1.255 2.77 2.801 2.77H15.71c1.548 0 2.803-1.24 2.803-2.77V2.769C18.512 1.24 17.257 0 15.709 0zM31.27 4.365l-.751-2.15c-.156-.487-.27-.929-.381-1.361h-.033c-.1.432-.224.898-.37 1.351l-.74 2.16h2.275zm-2.477.753l-.785 2.348H27L29.567 0h1.176l2.578 7.466H32.28l-.807-2.348h-2.679zM35.053 2l1.064 3.002c.18.498.326.942.438 1.383h.034c.123-.441.28-.885.459-1.383L38.102 2h1.032l-2.13 5.36h-.943L34 2h1.053zM42.283 4.747c-1.077-.023-2.296.166-2.296 1.207 0 .643.425.93.918.93.717 0 1.176-.443 1.334-.896.033-.101.044-.21.044-.312v-.93zm.964 1.452c0 .464.023.918.08 1.284h-.886l-.09-.676h-.034c-.29.422-.885.797-1.659.797C39.56 7.604 39 6.84 39 6.064c0-1.295 1.166-2.004 3.26-1.993v-.11c0-.443-.122-1.253-1.231-1.24-.516 0-1.042.143-1.425.398l-.224-.655C39.83 2.188 40.49 2 41.174 2c1.67 0 2.073 1.119 2.073 2.193V6.2zM45.147 7.598h.986v-5.36h-.986v5.36zm.468-6.348c-.369 0-.615-.287-.615-.63s.258-.62.638-.62c.382 0 .629.277.629.62 0 .343-.247.63-.638.63h-.014zM47.108 7.864L48.094 7.864 48.094 0 47.108 0zM52.284 4.747c-1.076-.023-2.299.166-2.299 1.207 0 .643.427.93.921.93.717 0 1.177-.443 1.334-.896.034-.101.044-.21.044-.312v-.93zm.964 1.452c0 .464.023.918.08 1.284h-.887l-.09-.676h-.033c-.292.422-.884.797-1.66.797-1.097 0-1.658-.764-1.658-1.54 0-1.295 1.166-2.004 3.263-1.993v-.11c0-.443-.124-1.253-1.234-1.24-.516 0-1.044.143-1.423.398l-.225-.655c.448-.276 1.11-.464 1.794-.464 1.67 0 2.073 1.119 2.073 2.193V6.2zM56.03 5.714c0 .121.01.244.035.354.19.676.772 1.141 1.478 1.141 1.043 0 1.648-.83 1.648-2.06 0-1.085-.56-2.005-1.613-2.005-.673 0-1.302.466-1.493 1.196-.032.123-.055.256-.055.41v.964zM55.043 0h.987v3.355h.023c.347-.598.974-.975 1.848-.975 1.346 0 2.287 1.108 2.287 2.725 0 1.927-1.233 2.88-2.443 2.88-.784 0-1.401-.3-1.815-1.008h-.024l-.055.885H55c.032-.365.043-.908.043-1.383V0zM61.108 7.864L62.094 7.864 62.094 0 61.108 0zM67.834 4.282c.01-.61-.259-1.585-1.357-1.585-1.007 0-1.435.909-1.513 1.585h2.87zm-2.881.697c.023 1.319.863 1.861 1.85 1.861.706 0 1.142-.122 1.502-.266l.179.687c-.348.155-.953.343-1.816.343C65.009 7.604 64 6.508 64 4.902 64 3.274 64.976 2 66.557 2c1.77 0 2.23 1.54 2.23 2.525 0 .2-.012.355-.034.466l-3.8-.012zM74.634 6.873c.942 0 1.648-.875 1.648-2.093 0-.909-.46-2.05-1.625-2.05C73.502 2.73 73 3.794 73 4.813c0 1.175.671 2.06 1.624 2.06h.011zm-.033.73C73.144 7.604 72 6.542 72 4.847 72 3.052 73.2 2 74.69 2c1.558 0 2.612 1.119 2.612 2.747 0 1.994-1.402 2.857-2.69 2.857H74.6zM78.047 3.573c0-.566-.013-1.008-.047-1.452h.875l.056.875h.022C79.223 2.5 79.85 2 80.746 2c.751 0 1.92.443 1.92 2.282v3.2h-.989v-3.09c0-.864-.325-1.595-1.255-1.595-.64 0-1.143.455-1.324.997-.044.121-.066.3-.066.454v3.235h-.985v-3.91zM87.804 1v1.285h1.41v.742h-1.41v2.89c0 .664.19 1.042.739 1.042.27 0 .427-.021.572-.068l.044.742c-.19.067-.492.133-.873.133-.46 0-.83-.154-1.066-.408-.268-.3-.381-.777-.381-1.407V3.027H86v-.742h.839v-.987L87.804 1zM90 0h.987v3.344h.021c.157-.277.403-.53.707-.686.29-.177.638-.277 1.01-.277.728 0 1.892.443 1.892 2.293v3.19h-.985v-3.08c0-.875-.326-1.594-1.256-1.594-.64 0-1.132.443-1.322.973-.057.133-.067.278-.067.466v3.235H90V0zM99.834 4.282c.01-.61-.259-1.585-1.357-1.585-1.008 0-1.436.909-1.513 1.585h2.87zm-2.881.697c.023 1.319.863 1.861 1.85 1.861.705 0 1.142-.122 1.502-.266l.179.687c-.349.155-.953.343-1.817.343C97.008 7.604 96 6.508 96 4.902 96 3.274 96.976 2 98.556 2c1.77 0 2.23 1.54 2.23 2.525 0 .2-.01.355-.033.466l-3.8-.012zM104.147 7.598h.986v-5.36h-.986v5.36zm.472-6.348c-.371 0-.619-.287-.619-.63s.258-.62.64-.62c.381 0 .628.277.628.62 0 .343-.247.63-.64.63h-.01zM107.976 3.743c.213.056.494.077.807.077 1.188 0 1.894-.575 1.894-1.583 0-.996-.706-1.472-1.782-1.472-.425 0-.75.042-.92.077v2.901zM107 .154c.471-.087 1.088-.154 1.872-.154.964 0 1.67.22 2.118.621.416.353.673.897.673 1.562 0 .674-.202 1.206-.594 1.593-.515.544-1.357.82-2.308.82-.291 0-.56-.012-.785-.066v2.99H107V.154zM113 0h.987v3.344h.022c.157-.277.404-.53.706-.686.292-.177.64-.277 1.01-.277.728 0 1.893.443 1.893 2.293v3.19h-.986v-3.08c0-.875-.326-1.594-1.256-1.594-.638 0-1.131.443-1.322.973-.057.133-.067.278-.067.466v3.235H113V0zM120.635 6.873c.94 0 1.648-.875 1.648-2.093 0-.909-.459-2.05-1.626-2.05-1.154 0-1.66 1.064-1.66 2.083 0 1.175.673 2.06 1.626 2.06h.012zm-.033.73c-1.458 0-2.602-1.062-2.602-2.757C118 3.052 119.2 2 120.69 2c1.558 0 2.612 1.119 2.612 2.747 0 1.994-1.401 2.857-2.69 2.857h-.01zM125.044 3.573c0-.566-.012-1.008-.044-1.452h.874l.056.875h.023c.27-.497.897-.996 1.793-.996.751 0 1.916.443 1.916 2.282v3.2h-.986v-3.09c0-.864-.326-1.595-1.256-1.595-.638 0-1.143.455-1.322.997-.045.121-.068.3-.068.454v3.235h-.986v-3.91zM134.834 4.282c.01-.61-.259-1.585-1.357-1.585-1.01 0-1.435.909-1.513 1.585h2.87zm-2.881.697c.023 1.319.863 1.861 1.85 1.861.705 0 1.142-.122 1.502-.266l.179.687c-.349.155-.953.343-1.816.343-1.659 0-2.668-1.096-2.668-2.702 0-1.628.976-2.902 2.555-2.902 1.771 0 2.23 1.54 2.23 2.525 0 .2-.01.355-.032.466l-3.8-.012zM35.222 16.178c.225.863.467 1.758.778 2.726l1.79 5.127h-5.096l1.766-5.159c.268-.837.524-1.74.762-2.694zM33.646 13L27 32.33h3.043l1.984-5.935h6.434l2.04 5.935h3.129L36.954 13h-3.308zM51.794 20.421c2.637 0 3.819 2.416 3.819 4.809 0 3.086-1.507 5.004-3.932 5.004-1.655 0-3.088-1.113-3.487-2.714-.068-.248-.105-.576-.105-.946V24.22c0-.212.048-.471.094-.722.015-.08.03-.159.043-.237.44-1.673 1.907-2.84 3.568-2.84M52.53 18c-2.015 0-3.63.768-4.705 2.23l-.117-1.922H45l.016.245c.079 1.199.114 2.517.114 4.41v14.9h2.959v-6.954c.918 1.086 2.384 1.717 4.046 1.717 1.73 0 3.324-.67 4.485-1.883 1.296-1.354 1.98-3.3 1.98-5.625 0-2.056-.593-3.832-1.72-5.137C55.778 18.703 54.235 18 52.53 18M66.794 20.421c2.637 0 3.817 2.416 3.817 4.809 0 3.086-1.507 5.004-3.93 5.004-1.656 0-3.09-1.113-3.488-2.714-.068-.248-.104-.576-.104-.946V24.22c0-.213.048-.474.094-.724l.044-.235c.438-1.673 1.904-2.84 3.567-2.84M67.53 18c-2.015 0-3.63.768-4.706 2.23l-.118-1.922H60l.014.245c.08 1.2.115 2.517.115 4.41v14.9h2.96v-6.954c.918 1.086 2.384 1.717 4.045 1.717 1.73 0 3.324-.67 4.487-1.883 1.294-1.354 1.98-3.3 1.98-5.625 0-2.056-.597-3.832-1.722-5.137C70.777 18.703 69.233 18 67.53 18M87.046 21.499c-2.762-1.057-3.647-1.888-3.647-3.425 0-1.293 1.04-2.597 3.364-2.597 1.917 0 3.144.66 3.475.862l.25.153.836-2.441-.166-.095c-.495-.287-1.908-.956-4.31-.956-3.775 0-6.41 2.202-6.41 5.354 0 2.542 1.65 4.318 5.195 5.591 2.511.928 3.446 1.879 3.446 3.508 0 1.843-1.442 2.988-3.761 2.988-1.512 0-3.067-.436-4.266-1.196l-.258-.163L80 31.58l.145.096c1.118.736 3.221 1.27 5.002 1.27 5.088 0 6.892-3.064 6.892-5.69 0-2.705-1.447-4.374-4.993-5.757M97.028 15l-2.903.9v2.43H92v2.338h2.125v7.16c0 1.73.335 2.944 1.026 3.71.661.718 1.678 1.112 2.863 1.112 1.118 0 1.914-.219 2.288-.35l.166-.057-.142-2.342-.284.086c-.375.113-.76.157-1.377.157-1.147 0-1.637-.717-1.637-2.4v-7.076h3.57V18.33h-3.57V15zM107.947 20.308c2.663 0 3.875 2.566 3.875 4.95 0 2.932-1.654 5.06-3.931 5.06h-.028c-2.245 0-3.874-2.092-3.874-4.976 0-2.505 1.223-5.034 3.958-5.034m.086-2.308C103.89 18 101 21.053 101 25.425c0 4.241 2.798 7.201 6.806 7.201h.027c3.39 0 7.034-2.332 7.034-7.452 0-2.083-.653-3.872-1.887-5.174-1.241-1.308-2.952-2-4.947-2M123.368 18.135l-.178-.045c-.26-.064-.473-.09-.737-.09-1.547 0-2.937.901-3.71 2.355l-.087-2.047H116l.017.245c.08 1.158.112 2.457.112 4.212l-.028 9.554h2.96v-7.454c0-.405.029-.79.082-1.133.334-1.79 1.556-2.948 3.113-2.948.304 0 .542.024.795.05l.317.031v-2.73zM130.494 20.225c.902 0 1.633.276 2.174.819.851.857 1 2.118 1.018 2.723h-6.749c.274-1.69 1.344-3.542 3.557-3.542m.199-2.225c-3.941 0-6.693 3.111-6.693 7.566 0 4.289 2.738 7.06 6.975 7.06 2.228 0 3.778-.482 4.687-.888l.178-.08-.569-2.178-.247.098c-.807.324-1.879.656-3.709.656-1.286 0-4.25-.42-4.433-4.24l9.554.028.038-.187c.06-.297.09-.698.09-1.22 0-3.052-1.538-6.615-5.871-6.615"/>
        </g>
</svg>
