<svg xmlns="http://www.w3.org/2000/svg" xmlns:xlink="http://www.w3.org/1999/xlink" viewBox="0 0 300 228">
        <defs>
                <path id="prefix__a" d="M0 0H310V280H0z"/>
                <path id="prefix__c" d="M0 228L300 228 300 0 0 0z"/>
        </defs>
        <g fill="none" fill-rule="evenodd" transform="translate(-5 -26)">
                <mask id="prefix__b" fill="#fff">
                        <use xlink:href="#prefix__a"/>
                </mask>
                <g mask="url(#prefix__b)">
                        <g transform="translate(5 26)">
                                <path fill="#00708D" d="M154.29 40.236c-18.845 3.478-37.72 1.606-55.89-.987-18.171-2.593-36.3-5.904-55.185-5.256-12.142.42-25.648 3.06-34.05 11.16C1.083 52.947-.073 63.603.003 73.24c.058 7.247.674 14.755 5.11 20.584 3.08 4.044 7.79 6.98 11.35 10.722 12.406 13.018 8.888 33.184 1.032 50.26-3.695 8.013-8.211 15.876-10.69 24.09-2.478 8.215-2.723 17.063 1.943 23.864 4.63 6.742 13.485 10.626 22.7 12.708 18.711 4.225 39.48 2.044 59.566-.99 44.46-6.748 88.423-17.664 132.26-28.558 16.225-4.03 32.522-8.083 48.132-14.017 8.668-3.288 17.487-7.426 23.038-13.97 7.044-8.307 7.108-19.774.147-26.73-11.677-11.68-37.8-9.484-46.877-22.776-5-7.3-2.965-17.118.855-25.747 8.182-18.513 24.217-36.69 21.908-55.294-1.584-12.778-12.77-23.478-27.63-26.436-15.574-3.098-35.478 2.077-44.286 14.782-9.07 13.117-27.631 21.439-44.27 24.505" opacity=".5"/>
                                <path fill="#00708D" d="M152 75.623s-20.86 14.683-44.997 17.917C82.866 96.774 74.52 82.078 73.725 76.945c-1.846-11.92 13.528-17.88 13.528-17.88s-18.933 3.409-35.174-8.489-10.277-21.25-8.738-23.212c1.54-1.962 7.974-9.653 26.408-9.41 22.53.297 32.268 12.155 32.268 12.155S97.18 10.84 109.83 7.54c7.123-1.858 14.983 1.31 21.766 6.083 5.264 3.704 9.878 8.375 12.998 12.415 7.14 9.247 7.407 49.586 7.407 49.586" opacity=".5"/>
                                <path fill="#38434B" d="M116.548 55c-.067-.056-6.92-5.733-29.796-16.568-24.798-11.746-44.427-8.266-44.623-8.23L42 29.519c.197-.037 20.036-3.564 45.053 8.286 22.986 10.887 29.88 16.609 29.947 16.666l-.452.529z"/>
                                <path fill="#38434B" d="M59.51 30L51 21.476 51.49 21 60 29.524zM45.496 45L45 44.49 59.504 30 60 30.51z"/>
                                <path fill="#38434B" d="M54.493 53L54 52.494 73.083 33.475 62.635 18.408 63.21 18 74 33.559z"/>
                                <path fill="#38434B" d="M65.513 58L65 57.511 84.152 37.5 75.22 18.298 75.864 18 85 37.639z"/>
                                <path fill="#38434B" d="M79.453 60L79 59.464 97.15 44.106 87.359 21.277 88.004 21 98 44.307z"/>
                                <path fill="#38434B" d="M93.355 58L93 57.391 107.158 49.241 101.296 30.206 101.973 30 108 49.569zM79.18 87L78.59 86.601 88.97 71.883 78 65.606 78.362 65 90 71.659z"/>
                                <path fill="#38434B" d="M89.071 93L88.472 92.654 101.094 69.588 87 59.581 87.39 59 102 69.373zM103.606 94L103 93.654 117.122 68.331 104.348 56.52 104.818 56 118 68.19zM116.62 92L116 91.64 129.126 69.61 119.017 57.451 119.573 57 130 69.543z"/>
                                <path fill="#38434B" d="M73.322 77L73 76.38c.13-.066 13.185-6.668 32.37-8.261 20.819-1.731 40.9 5.048 45.198 6.613-1.946-3.88-10.761-21.36-20.476-39.15-5.225-9.566-11.323-16.396-15.519-20.44-4.548-4.385-7.904-6.534-7.937-6.555l.378-.587c.033.022 3.435 2.198 8.03 6.625 4.237 4.081 10.393 10.972 15.665 20.626 10.966 20.08 20.787 39.768 20.885 39.965l.406.815-.85-.337c-.224-.089-22.52-8.806-45.721-6.881C86.391 70.393 73.45 76.934 73.322 77"/>
                                <path fill="#38434B" d="M102.101 22L102 21.32 119.553 18.767 121.314 8 122 8.11 120.157 19.374zM108.116 36L108 35.308 128.699 31.726 132.324 14 133 14.143 129.279 32.337zM116.04 50L116 49.313 137.021 48.101 143.335 26 144 26.189 137.55 48.76zM144.728 63L125 61.562 125.051 60.852 144.248 62.251 149.338 48 150 48.242z"/>
                                <path fill="#38434B" d="M110.111 44L110 43.307 133.271 39.724 140.331 21 141 21.244 133.795 40.354z"/>
                                <mask id="prefix__d" fill="#fff">
                                        <use xlink:href="#prefix__c"/>
                                </mask>
                                <path fill="#EBECED" d="M234 33L256 33 256 11 234 11z" mask="url(#prefix__d)"/>
                                <path fill="#00708D" d="M239 38L261 38 261 16 239 16z" mask="url(#prefix__d)" opacity=".5"/>
                                <path fill="#002731" d="M248.565 57.435h32.87v-32.87h-32.87v32.87zM247 59h36V23h-36v36z" mask="url(#prefix__d)"/>
                                <path fill="#E8F5F5" d="M18.91 201c-1.604 0-2.91-1.406-2.91-3.133V50.133C16 48.406 17.306 47 18.91 47h251.18c1.604 0 2.91 1.406 2.91 3.133v147.734c0 1.727-1.306 3.133-2.91 3.133H18.91z" mask="url(#prefix__d)"/>
                                <path fill="#FFF" d="M269.599 46H18.4C16.523 46 15 47.639 15 49.66v147.68c0 2.021 1.523 3.66 3.401 3.66H269.6c1.878 0 3.401-1.639 3.401-3.66V49.66c0-2.021-1.523-3.66-3.401-3.66m0 1.055c1.335 0 2.42 1.168 2.42 2.605v147.68c0 1.437-1.085 2.605-2.42 2.605H18.4c-1.335 0-2.42-1.168-2.42-2.605V49.66c0-1.437 1.085-2.605 2.42-2.605H269.6" mask="url(#prefix__d)"/>
                                <path fill="#002731" d="M271.7 45H16.31c-.724 0-1.31.6-1.31 1.339V52h258v-5.65c.006-.74-.576-1.344-1.3-1.35" mask="url(#prefix__d)"/>
                                <path fill="#FFF" d="M20 46c1.105 0 2 .896 2 2s-.895 2-2 2-2-.896-2-2 .895-2 2-2M25 46c1.105 0 2 .896 2 2s-.895 2-2 2-2-.896-2-2 .895-2 2-2M30 46c1.105 0 2 .896 2 2s-.895 2-2 2-2-.896-2-2 .895-2 2-2M30.98 152h225.04c1.646 0 2.98.57 2.98 1.271v46.458c0 .702-1.334 1.271-2.98 1.271H30.98c-1.646 0-2.98-.57-2.98-1.271V153.27c0-.702 1.334-1.271 2.98-1.271" mask="url(#prefix__d)"/>
                                <path fill="#002731" d="M29.138 79h64.724c.628 0 1.138.507 1.138 1.133v4.734c0 .626-.51 1.133-1.138 1.133H29.138C28.51 86 28 85.493 28 84.867v-4.734c0-.626.51-1.133 1.138-1.133M162.138 79h64.724c.628 0 1.138.507 1.138 1.133v4.734c0 .626-.51 1.133-1.138 1.133h-64.724c-.628 0-1.138-.507-1.138-1.133v-4.734c0-.626.51-1.133 1.138-1.133" mask="url(#prefix__d)"/>
                                <path fill="#E3E9EB" d="M40.936 176h84.128c.517 0 .936.507.936 1.133v4.734c0 .626-.419 1.133-.936 1.133H40.936c-.517 0-.936-.507-.936-1.133v-4.734c0-.626.419-1.133.936-1.133" mask="url(#prefix__d)"/>
                                <path fill="#A4F9FF" d="M161.957 176h86.086c.529 0 .957.507.957 1.133v4.734c0 .626-.428 1.133-.957 1.133h-86.086c-.528 0-.957-.507-.957-1.133v-4.734c0-.626.429-1.133.957-1.133" mask="url(#prefix__d)"/>
                                <path fill="#E3E9EB" d="M40.936 188h84.128c.517 0 .936.507.936 1.133v4.734c0 .626-.419 1.133-.936 1.133H40.936c-.517 0-.936-.507-.936-1.133v-4.734c0-.626.419-1.133.936-1.133" mask="url(#prefix__d)"/>
                                <path fill="#A4F9FF" d="M161.957 188h86.086c.529 0 .957.507.957 1.133v4.734c0 .626-.428 1.133-.957 1.133h-86.086c-.528 0-.957-.507-.957-1.133v-4.734c0-.626.429-1.133.957-1.133" mask="url(#prefix__d)"/>
                                <path fill="#E3E9EB" d="M29.261 152H257.74c.696 0 1.261 1.16 1.261 2.59v10.82c0 1.43-.565 2.59-1.261 2.59H29.261c-.696 0-1.261-1.16-1.261-2.59v-10.82c0-1.43.565-2.59 1.261-2.59M29.066 99h95.868c.589 0 1.066.507 1.066 1.133v4.734c0 .626-.477 1.133-1.066 1.133H29.066c-.589 0-1.066-.507-1.066-1.133v-4.734c0-.626.477-1.133 1.066-1.133M29.066 110h95.868c.589 0 1.066.507 1.066 1.133v4.734c0 .626-.477 1.133-1.066 1.133H29.066c-.589 0-1.066-.507-1.066-1.133v-4.734c0-.626.477-1.133 1.066-1.133M29.066 122h95.868c.589 0 1.066.507 1.066 1.133v4.734c0 .626-.477 1.133-1.066 1.133H29.066c-.589 0-1.066-.507-1.066-1.133v-4.734c0-.626.477-1.133 1.066-1.133M29.066 133h95.868c.589 0 1.066.507 1.066 1.133v4.734c0 .626-.477 1.133-1.066 1.133H29.066c-.589 0-1.066-.507-1.066-1.133v-4.734c0-.626.477-1.133 1.066-1.133M162.758 99h92.484c1.523 0 2.758.704 2.758 1.573v37.854c0 .869-1.235 1.573-2.758 1.573h-92.484c-1.523 0-2.758-.704-2.758-1.573v-37.854c0-.869 1.235-1.573 2.758-1.573" mask="url(#prefix__d)"/>
                                <path fill="#E6E8EC" d="M260 159.933c.037 0 .067.03.067.067 0 .037-.03.067-.067.067-.037 0-.067-.03-.067-.067 0-.037.03-.067.067-.067" mask="url(#prefix__d)"/>
                                <path fill="#EBECED" d="M90 172c13.807 0 25 11.193 25 25s-11.193 25-25 25-25-11.193-25-25 11.193-25 25-25" mask="url(#prefix__d)"/>
                                <path fill="#00708D" d="M83 165c13.807 0 25 11.193 25 25s-11.193 25-25 25-25-11.193-25-25 11.193-25 25-25" mask="url(#prefix__d)"/>
                                <path fill="#002731" d="M121.5 156.404c-19.352 0-35.096 15.744-35.096 35.096 0 19.352 15.744 35.096 35.096 35.096 19.352 0 35.096-15.744 35.096-35.096 0-19.352-15.744-35.096-35.096-35.096m0 71.596c-20.126 0-36.5-16.374-36.5-36.5s16.374-36.5 36.5-36.5 36.5 16.374 36.5 36.5-16.374 36.5-36.5 36.5" mask="url(#prefix__d)"/>
                                <path fill="#FFF" d="M133.675 137h149.65c1.478 0 2.675 1.203 2.675 2.687v70.626c0 1.484-1.197 2.687-2.674 2.687H133.675c-1.477 0-2.675-1.203-2.675-2.687v-70.626c0-1.484 1.198-2.687 2.675-2.687" mask="url(#prefix__d)"/>
                                <path fill="#002731" d="M133.389 137.402c-1.092 0-1.98.884-1.98 1.972v70.252c0 1.087.888 1.972 1.98 1.972h150.222c1.092 0 1.98-.885 1.98-1.972v-70.252c0-1.088-.888-1.972-1.98-1.972H133.389zM283.611 213H133.389c-1.869 0-3.389-1.513-3.389-3.374v-70.252c0-1.86 1.52-3.374 3.389-3.374h150.222c1.869 0 3.389 1.513 3.389 3.374v70.252c0 1.86-1.52 3.374-3.389 3.374z" mask="url(#prefix__d)"/>
                                <path fill="#002731" d="M156.432 152h101.136c1.343 0 2.432 1.121 2.432 2.505v10.99c0 1.383-1.089 2.505-2.432 2.505H156.432c-1.343 0-2.432-1.122-2.432-2.505v-10.99c0-1.384 1.089-2.505 2.432-2.505" mask="url(#prefix__d)"/>
                                <path fill="#E3E9EB" d="M158 176L257 176 257 173 158 173zM141 183L277 183 277 180 141 180zM141 190L277 190 277 187 141 187zM141 197L277 197 277 194 141 194z" mask="url(#prefix__d)"/>
                        </g>
                </g>
        </g>
</svg>
