<?xml version="1.0" encoding="utf-8"?>
<!-- Generator: Adobe Illustrator 24.2.0, SVG Export Plug-In . SVG Version: 6.00 Build 0)  -->
<svg version="1.1" id="Layer_1" xmlns="http://www.w3.org/2000/svg" xmlns:xlink="http://www.w3.org/1999/xlink" x="0px" y="0px"
	 viewBox="0 0 309 200" style="enable-background:new 0 0 309 200;" xml:space="preserve">
<style type="text/css">
	.st0{filter:url(#Adobe_OpacityMaskFilter);}
	.st1{fill-rule:evenodd;clip-rule:evenodd;fill:#FFFFFF;}
	.st2{mask:url(#prefix__b_1_);}
	.st3{opacity:0.15;fill-rule:evenodd;clip-rule:evenodd;fill:#00708D;enable-background:new    ;}
	.st4{fill-rule:evenodd;clip-rule:evenodd;fill:#EBECED;}
	.st5{opacity:0.5;fill-rule:evenodd;clip-rule:evenodd;fill:#00708D;enable-background:new    ;}
	.st6{fill-rule:evenodd;clip-rule:evenodd;fill:#002731;}
	.st7{fill-rule:evenodd;clip-rule:evenodd;fill:#A6ACB0;}
	.st8{fill-rule:evenodd;clip-rule:evenodd;fill:#38434B;}
	.st9{fill-rule:evenodd;clip-rule:evenodd;}
	.st10{fill-rule:evenodd;clip-rule:evenodd;fill:#F2F2F2;}
	.st11{fill:#002731;}
	.st12{fill:#00495C;}
	.st13{fill:#00708D;}
	.st14{fill:#F2F2F2;}
	.st15{fill:none;stroke:#F2F2F2;stroke-width:0.4969;stroke-miterlimit:10;}
</style>
<defs>
	<filter id="Adobe_OpacityMaskFilter" filterUnits="userSpaceOnUse" x="0" y="0.6" width="309" height="172.8">
		<feColorMatrix  type="matrix" values="1 0 0 0 0  0 1 0 0 0  0 0 1 0 0  0 0 0 1 0"/>
	</filter>
</defs>
<mask maskUnits="userSpaceOnUse" x="0" y="0.6" width="309" height="172.8" id="prefix__b_1_">
	<g class="st0">
		<path id="prefix__a_1_" class="st1" d="M0-40h310v280H0V-40z"/>
	</g>
</mask>
<g class="st2">
	<g transform="translate(0 40)">
		<path class="st3" d="M19.4,32.7c5,15.9-2.1,33.4-12,47c-3.3,4.5-6.9,9.3-7.4,15c-0.6,7,3.9,13.4,9.3,17.6c9.7,7.6,23,10,34.5,6.2
			c10-3.3,18.4-10.9,28.5-13.9c16.9-5.1,34.7,3.3,49.1,13.8c10.2,7.4,21.1,16.4,33.4,14.9c8.7-1.1,16-7.5,21-15.1
			c2.4-3.7,4.5-7.7,8-10.2c2.1-1.5,4.5-2.2,7-2.8c22.4-5,46.1,7.3,68.2,0.9c14.9-4.3,26.8-16.7,34.2-31
			c7.4-14.3,10.8-30.4,13.7-46.4c2-11.4,3.7-23.6-0.9-34.1c-5-11.1-16.5-17.8-28-19s-23.1,2.2-33.8,7.1
			c-13.3,6.1-26.3,15.3-40.8,14.7c-34.4-1.4-34.4-18.5-62.5-20.9C88.6-26.5,82.6,7.5,46.6-2C31.5-4.1,12.4,4.2,19.4,32.7"/>
		<path class="st1" d="M203,16.8c0,0.2-0.2,0.4-0.4,0.4h-15.1c-0.2,0-0.4-0.2-0.4-0.4v-5.2c0-0.2,0.2-0.4,0.4-0.4h15.1
			c0.2,0,0.4,0.2,0.4,0.4L203,16.8z M203,30.3c0,0.2-0.2,0.4-0.4,0.4h-15.1c-0.2,0-0.4-0.2-0.4-0.4v-5.2c0-0.2,0.2-0.4,0.4-0.4h15.1
			c0.2,0,0.4,0.2,0.4,0.4C203,25.1,203,30.3,203,30.3z M203,43.7c0,0.2-0.2,0.4-0.4,0.4h-15.1c-0.2,0-0.4-0.2-0.4-0.4v-5.2
			c0-0.2,0.2-0.4,0.4-0.4h15.1c0.2,0,0.4,0.2,0.4,0.4V43.7z M203,57.1c0,0.2-0.2,0.4-0.4,0.4h-15.1c-0.2,0-0.4-0.2-0.4-0.4v-5.2
			c0-0.2,0.2-0.4,0.4-0.4h15.1c0.2,0,0.4,0.2,0.4,0.4C203,51.9,203,57.1,203,57.1z M203,70.5c0,0.2-0.2,0.4-0.4,0.4h-15.1
			c-0.2,0-0.4-0.2-0.4-0.4v-5.2c0-0.2,0.2-0.4,0.4-0.4h15.1c0.2,0,0.4,0.2,0.4,0.4V70.5z M203,83.9c0,0.2-0.2,0.4-0.4,0.4h-15.1
			c-0.2,0-0.4-0.2-0.4-0.4v-5.2c0-0.2,0.2-0.4,0.4-0.4h15.1c0.2,0,0.4,0.2,0.4,0.4L203,83.9L203,83.9z M203,97.4
			c0,0.2-0.2,0.4-0.4,0.4h-15.1c-0.2,0-0.4-0.2-0.4-0.4v-5.2c0-0.2,0.2-0.4,0.4-0.4h15.1c0.2,0,0.4,0.2,0.4,0.4V97.4L203,97.4z
			 M167.2,16.8c0,0.2-0.2,0.4-0.4,0.4h-15.1c-0.2,0-0.4-0.2-0.4-0.4v-5.2c0-0.2,0.2-0.4,0.4-0.4h15.1c0.2,0,0.4,0.2,0.4,0.4
			L167.2,16.8L167.2,16.8z M167.2,30.3c0,0.2-0.2,0.4-0.4,0.4h-15.1c-0.2,0-0.4-0.2-0.4-0.4v-5.2c0-0.2,0.2-0.4,0.4-0.4h15.1
			c0.2,0,0.4,0.2,0.4,0.4V30.3z M167.2,43.7c0,0.2-0.2,0.4-0.4,0.4h-15.1c-0.2,0-0.4-0.2-0.4-0.4v-5.2c0-0.2,0.2-0.4,0.4-0.4h15.1
			c0.2,0,0.4,0.2,0.4,0.4V43.7z M167.2,57.1c0,0.2-0.2,0.4-0.4,0.4h-15.1c-0.2,0-0.4-0.2-0.4-0.4v-5.2c0-0.2,0.2-0.4,0.4-0.4h15.1
			c0.2,0,0.4,0.2,0.4,0.4L167.2,57.1L167.2,57.1z M167.2,70.5c0,0.2-0.2,0.4-0.4,0.4h-15.1c-0.2,0-0.4-0.2-0.4-0.4v-5.2
			c0-0.2,0.2-0.4,0.4-0.4h15.1c0.2,0,0.4,0.2,0.4,0.4V70.5z M167.2,83.9c0,0.2-0.2,0.4-0.4,0.4h-15.1c-0.2,0-0.4-0.2-0.4-0.4v-5.2
			c0-0.2,0.2-0.4,0.4-0.4h15.1c0.2,0,0.4,0.2,0.4,0.4L167.2,83.9L167.2,83.9z M167.2,97.4c0,0.2-0.2,0.4-0.4,0.4h-15.1
			c-0.2,0-0.4-0.2-0.4-0.4v-5.2c0-0.2,0.2-0.4,0.4-0.4h15.1c0.2,0,0.4,0.2,0.4,0.4V97.4z M142.7,16.8c0,0.2-0.2,0.4-0.4,0.4h-15.1
			c-0.2,0-0.4-0.2-0.4-0.4v-5.2c0-0.2,0.2-0.4,0.4-0.4h15.1c0.2,0,0.4,0.2,0.4,0.4V16.8z M142.7,30.3c0,0.2-0.2,0.4-0.4,0.4h-15.1
			c-0.2,0-0.4-0.2-0.4-0.4v-5.2c0-0.2,0.2-0.4,0.4-0.4h15.1c0.2,0,0.4,0.2,0.4,0.4V30.3z M142.7,43.7c0,0.2-0.2,0.4-0.4,0.4h-15.1
			c-0.2,0-0.4-0.2-0.4-0.4v-5.2c0-0.2,0.2-0.4,0.4-0.4h15.1c0.2,0,0.4,0.2,0.4,0.4V43.7z M142.7,57.1c0,0.2-0.2,0.4-0.4,0.4h-15.1
			c-0.2,0-0.4-0.2-0.4-0.4v-5.2c0-0.2,0.2-0.4,0.4-0.4h15.1c0.2,0,0.4,0.2,0.4,0.4C142.7,51.9,142.7,57.1,142.7,57.1z M142.7,70.5
			c0,0.2-0.2,0.4-0.4,0.4h-15.1c-0.2,0-0.4-0.2-0.4-0.4v-5.2c0-0.2,0.2-0.4,0.4-0.4h15.1c0.2,0,0.4,0.2,0.4,0.4V70.5z M142.7,83.9
			c0,0.2-0.2,0.4-0.4,0.4h-15.1c-0.2,0-0.4-0.2-0.4-0.4v-5.2c0-0.2,0.2-0.4,0.4-0.4h15.1c0.2,0,0.4,0.2,0.4,0.4V83.9z M142.7,97.4
			c0,0.2-0.2,0.4-0.4,0.4h-15.1c-0.2,0-0.4-0.2-0.4-0.4v-5.2c0-0.2,0.2-0.4,0.4-0.4h15.1c0.2,0,0.4,0.2,0.4,0.4V97.4z M106.9,16.8
			c0,0.2-0.2,0.4-0.4,0.4H91.4c-0.2,0-0.4-0.2-0.4-0.4v-5.2c0-0.2,0.2-0.4,0.4-0.4h15.1c0.2,0,0.4,0.2,0.4,0.4v0L106.9,16.8
			L106.9,16.8z M106.9,30.3c0,0.2-0.2,0.4-0.4,0.4H91.4c-0.2,0-0.4-0.2-0.4-0.4v-5.2c0-0.2,0.2-0.4,0.4-0.4h15.1
			c0.2,0,0.4,0.2,0.4,0.4L106.9,30.3L106.9,30.3z M106.9,43.7c0,0.2-0.2,0.4-0.4,0.4H91.4c-0.2,0-0.4-0.2-0.4-0.4v-5.2
			c0-0.2,0.2-0.4,0.4-0.4h15.1c0.2,0,0.4,0.2,0.4,0.4L106.9,43.7L106.9,43.7z M106.9,57.1c0,0.2-0.2,0.4-0.4,0.4H91.4
			c-0.2,0-0.4-0.2-0.4-0.4v-5.2c0-0.2,0.2-0.4,0.4-0.4h15.1c0.2,0,0.4,0.2,0.4,0.4v0L106.9,57.1L106.9,57.1z M106.9,70.5
			c0,0.2-0.2,0.4-0.4,0.4H91.4c-0.2,0-0.4-0.2-0.4-0.4v-5.2c0-0.2,0.2-0.4,0.4-0.4h15.1c0.2,0,0.4,0.2,0.4,0.4L106.9,70.5
			L106.9,70.5z M106.9,83.9c0,0.2-0.2,0.4-0.4,0.4H91.4c-0.2,0-0.4-0.2-0.4-0.4v-5.2c0-0.2,0.2-0.4,0.4-0.4h15.1
			c0.2,0,0.4,0.2,0.4,0.4v0L106.9,83.9L106.9,83.9z M106.9,97.4c0,0.2-0.2,0.4-0.4,0.4H91.4c-0.2,0-0.4-0.2-0.4-0.4v-5.2
			c0-0.2,0.2-0.4,0.4-0.4h15.1c0.2,0,0.4,0.2,0.4,0.4L106.9,97.4L106.9,97.4z M207.6,6H169v-8.4c0-1.1-0.9-2-2-2h-11.3v-9
			c0-0.7-0.6-1.3-1.3-1.3h-14.6c-0.7,0-1.3,0.6-1.3,1.3v9h-13.3c-1.1,0-2,0.9-2,2V6H86.4C86.2,6,86,6.2,86,6.4V118
			c0,0.2,0.2,0.4,0.4,0.4h24.5c0.2,0,0.4-0.2,0.4-0.4v-15c0-0.2,0.2-0.4,0.4-0.4H122c0.2,0,0.4,0.2,0.4,0.4v15
			c0,0.2,0.2,0.4,0.4,0.4h48.3c0.2,0,0.4-0.2,0.4-0.4v-15c0-0.2,0.2-0.4,0.4-0.4h10.3c0.2,0,0.4,0.2,0.4,0.4v15
			c0,0.2,0.2,0.4,0.4,0.4h24.5c0.2,0,0.4-0.2,0.4-0.4V6.4C208,6.2,207.8,6,207.6,6z"/>
		<path class="st4" d="M14.4,81.4c-9.7-9.5-9.8-25-0.4-34.6c9.5-9.7,25-9.8,34.6-0.4c9.7,9.5,9.8,25,0.4,34.6
			C39.5,90.7,24,90.9,14.4,81.4"/>
		<path class="st5" d="M22.4,95.4c-9.7-9.5-9.8-25-0.4-34.6c9.5-9.7,25-9.8,34.6-0.4c9.7,9.5,9.8,25,0.4,34.6
			C47.5,104.7,32,104.9,22.4,95.4"/>
		<path class="st6" d="M14.5,31.3C6.7,43,8,59.1,18.5,69.3c5.7,5.6,13.3,8.6,21.3,8.6c8-0.1,15.5-3.3,21.1-9
			c5.6-5.7,8.6-13.3,8.6-21.3c-0.1-8-3.3-15.5-9-21.1C48.7,14.9,29.6,15.1,18,26.9C16.7,28.3,15.5,29.7,14.5,31.3 M65.8,65.3
			c-1.1,1.6-2.3,3.2-3.8,4.6c-5.9,6-13.8,9.4-22.2,9.5c-8.4,0.1-16.4-3.1-22.4-9C5,58.3,4.8,38.3,17,25.9
			c12.1-12.4,32.1-12.6,44.6-0.5c6,5.9,9.4,13.8,9.5,22.2C71.1,54,69.2,60.1,65.8,65.3"/>
		<path class="st7" d="M220.6-1.7c-1.3,0.8-2.9,2.3-3,5.5c-0.3,6.2,4.7,9.2,4.8,15.5c0,1.7-0.3,3.4-0.9,4.9c-1.1,2.6-2.6,4.1-3.9,6
			c-1.7,2.5-2.6,5.4-2.6,8.4c-0.1,3.3,0.7,6.6,2.1,9.5c1.2,2.5,2.7,4.1,4.2,6c1.8,2.4,3.3,5,4.7,7.7c0.7,1.3,1.2,2.7,1.6,4.1
			c0.5,1.8,0.7,3.8,0.9,5.8l1.8,17.7c0.2,2.4,0.5,4.8,1,6.9c0.6,2.5,1.5,4.6,2.4,6.5c2,4.3,4,8.8,6.6,10.6c2.6,1.9,5.7,0.2,6.5-5.2
			c0.8-5.1-0.7-11.3-0.2-16.7c0.8-8.5,5.9-10.9,7.1-19.1c1.1-7.9-1.9-16.4-2.5-24.9c-0.4-6.1,0.5-12,0.4-18.1
			c-0.2-8.8-2.5-17.3-5.5-23.3c-3.1-6-6.9-9.7-10.7-12.2c-1.6-1.1-3.3-2-4.9-1.7c-1.7,0.3-2.7,2.8-4.2,3.9
			C224.6-2.4,222.4-2.7,220.6-1.7"/>
		<path class="st8" d="M243.9,114.4l-0.7,0c0.7-24-3.2-55.6-6.6-77.8c-3.7-24.1-7.6-42.8-7.6-43l0.7-0.2c0,0.2,3.9,18.9,7.6,43
			C240.7,58.7,244.6,90.3,243.9,114.4"/>
		<path class="st8" d="M237.2,35.4C234.1,12.8,218.2,4.1,218,4.1l0.4-0.7c0.2,0.1,16.5,8.9,19.6,31.9L237.2,35.4L237.2,35.4z
			 M238.3,52.4c-1.5-13.2-23-12.2-23.2-12.2l0-0.8c0.1,0,5.6-0.3,11.3,1.1c7.6,1.9,12,6,12.7,11.7L238.3,52.4L238.3,52.4z"/>
		<path class="st8" d="M236.7,38.4l-0.7-0.1c1.3-12,3.7-20.3,5.6-25.1c2-5.3,3.7-7.7,3.8-7.8l0.6,0.4
			C245.9,5.9,239.1,15.7,236.7,38.4 M250.9,74.4c-0.1,0-0.2,0-0.3,0c-3.2-0.2-6.8-3.8-10.6-10.6l0.6-0.4c4.6,8.2,8,10.1,10,10.2
			c1.8,0.1,2.8-1.1,2.8-1.1L254,73C254,73,252.9,74.4,250.9,74.4 M230.3,88.4l-0.3-0.7c0.1,0,11.9-4.7,11.2-12.2l0.8-0.1
			c0.3,3.4-1.6,6.7-5.6,9.6C233.4,87.2,230.4,88.4,230.3,88.4"/>
		<path class="st5" d="M248.6-36c-3,0.4-6.6,1.8-8.1,6.1c-2.9,8.3,5.9,14.6,3.9,23.3c-0.6,2.6-2.1,4.7-3.7,6.3
			c-3.1,3-6.7,4.3-10,6.4c-3.4,2.1-6.9,5.3-8.4,10.2c-1.5,4.8-0.9,10,0.7,14c1.6,3.9,4,6.9,6.1,10.1c2.6,4,4.8,8.2,6.5,12.6
			c0.8,1.9,1.5,4,1.7,6.3c0.3,2.7-0.1,5.5-0.4,8.3l-3.1,24.9c-0.4,3.3-0.8,6.7-0.6,9.9c0.3,3.7,1.4,6.9,2.5,10
			c2.3,6.8,4.9,13.8,9.3,17.5c4.4,3.7,11.4,2.9,15.1-4c3.6-6.6,2.9-15.7,5.9-22.8c4.8-11.2,16-12.1,21.4-22.7
			c5.2-10.2,2.3-23.2,4.4-35c1.5-8.5,5.5-16,7.6-24.4c3-12,1.6-24.7-2.4-34.3c-4-9.6-10.2-16.4-16.9-21.6c-2.8-2.2-5.9-4.2-9.2-4.6
			c-3.6-0.4-6.4,2.6-9.9,3.3C256.8-35.2,252.6-36.6,248.6-36"/>
		<path class="st8" d="M250.7,132.4l-0.7-0.2c10.3-32.3,14.4-77,16-108.8c1.8-34.5,1.1-61.7,1.1-61.9l0.7,0c0,0.3,0.7,27.5-1.1,62
			C265.1,55.2,261,100,250.7,132.4"/>
		<path class="st8" d="M266.9,21.4l-0.7-0.1c1.3-16.8-5.9-29.9-12.1-37.8c-6.8-8.7-13.9-13.4-14-13.5l0.4-0.6
			c0.1,0,7.3,4.9,14.1,13.6C260.9-8.9,268.1,4.4,266.9,21.4 M264.9,46.4l-0.7-0.1c1.7-18.2-42.8-27.1-43.2-27.2l0.1-0.7
			c0.1,0,11.5,2.3,22.5,6.8C258.5,31.3,265.7,38.5,264.9,46.4 M266.7,27.4l-0.7-0.3c7-15.8,14.9-26,20.3-31.8
			c5.9-6.3,10.1-8.8,10.3-8.9L297-13C296.8-12.9,279.9-2.6,266.7,27.4"/>
		<path class="st9" d="M25,65.2c-0.2,3.3-1.6,7.5-4.3,11.6C16.5,83.3,10.6,87.1,7,86c0.5-1.2,1-2.1,1-2.1C10.6,69,24.1,65.4,25,65.2
			"/>
		<path class="st10" d="M24,65.2c-0.2,3.3-1.6,7.5-4.3,11.6C15.5,83.3,9.6,87.1,6,86c0.5-1.2,1-2.1,1-2.1C9.6,69,23.1,65.4,24,65.2"
			/>
	</g>
</g>
<g>
	<polygon class="st11" points="122,178.1 175.1,173.6 238.8,163.9 262.6,156.6 260.7,134.3 243.6,134.3 149.2,139.7 	"/>
	<ellipse class="st11" cx="73.7" cy="161.8" rx="24.4" ry="22.9"/>
	<path class="st11" d="M251.5,159.2c0,10.2,12.4,21.1-8.4,18.5c-4.6-0.6-8.4-8.3-8.4-18.5s3.8-17.8,8.4-18.5
		C262.4,137.8,251.5,149,251.5,159.2z"/>
	<path class="st11" d="M173.9,171.2c0,12.7-10.4,25.9-27.4,22.9c-11.1-2-20.4-10.3-20.4-22.9s9.3-20.9,20.4-22.9
		C163.9,145,173.9,158.5,173.9,171.2z"/>
	<ellipse class="st11" cx="153.6" cy="171.2" rx="20.4" ry="22.9"/>
	<ellipse class="st12" cx="153.6" cy="171.2" rx="17" ry="19.1"/>
	<path class="st13" d="M93.1,180.3h40.1c0,0,6.2,0.4,7.2-7.4s3.8-31.6,20.1-31.7s14.7,32.4,14.7,32.4l63.6-9.7
		c0,0,4.9-27.9,13.7-28.1c8.7-0.2,8.7,11.3,8,21.5l7.6-2.5v-21.1c0,0-0.2-8.1-2-9l-2.9-10.4c0,0-0.3-2.1-5-3.8
		c-4.7-1.7-9.9-6.6-9.9-6.6S232,88,207.4,85.2c-24.6-2.8-67.7-0.1-79,4.1c-11.3,4.3-40.1,22.2-40.1,22.2s-39.2,6.2-47.4,25.7
		c0,0-6.5,2.1-4.4,23.9l-2.2,8.9c0,0,3.9,4.1,7.5,4.9S93.1,180.3,93.1,180.3z"/>
	<ellipse class="st11" cx="251.4" cy="159.2" rx="9.3" ry="18.5"/>
	<ellipse class="st12" cx="251.4" cy="159.2" rx="7.8" ry="15.5"/>
	<path class="st14" d="M90,111.8l61.8,2c0,0,7.7,1,12.9-4.5c5.2-5.4,19-21.3,19-21.3s-44.5,0-52.3,1.1
		C131.4,89.1,121.2,92.1,90,111.8z"/>
	<path class="st12" d="M166,117.5c0,0,15.6-26,23.9-28.3s35.1-3.9,49.6,10.8l6.7,6.2c0.1,0.1,0.1,0.3,0,0.5
		c-0.7,0.9-3.3,4.2-9.2,5.5c-6.9,1.5-55.9,6-55.9,6l-15.1,1.6C166,119.7,164.5,119.9,166,117.5z"/>
	<path class="st11" d="M44.3,150.2c0,0,24.1,1.9,38.1,1.8c0,0,4.7-0.1,10.1-3.2c5.4-3.1,18.1-1.8,18.1-1.8s-28,28.5-17.6,33.4
		l-49.5-5.2c0,0-3.7-0.9-4.6-1.4v-7.1c0,0-2.4-2.9-2.7-7c-0.2-3.8-0.5-11,0.7-16c0.1-0.5,0.8-0.7,1.1-0.2
		C39.7,145.6,43,150.1,44.3,150.2z"/>
	<path class="st11" d="M46.5,139.7c0,0,8.1,1.9,9,2.8s1,3.2,4.2,3.5c3.3,0.3,5.4,0.2,6.9,0c1.5-0.2,5.2-2.9,6.7-3
		c1.5-0.2,21.6-0.5,21.6-0.5l-9-3.9c0,0,6.6-3.7,7.9-4.1c1.2-0.5,2.9-0.8,2.9-0.8s-19.2,1.7-26.7,1.5c-7.5-0.2-16.1,0.3-18.1-2.7
		c0,0,1.7,2-1.3,4.2C47.6,138.7,46.5,139.7,46.5,139.7z"/>
	<ellipse class="st15" cx="62.4" cy="140" rx="4.4" ry="3.7"/>
	<ellipse transform="matrix(0.1277 -0.9918 0.9918 0.1277 -84.5249 183.8309)" class="st15" cx="62.2" cy="140" rx="3.7" ry="1"/>
	
		<ellipse transform="matrix(8.064412e-02 -0.9967 0.9967 8.064412e-02 -80.5953 189.7036)" class="st15" cx="62.5" cy="138.5" rx="1.1" ry="4"/>
	<path class="st11" d="M108.2,174.7c-0.8,0-1.3-0.7-0.9-1.4c1.3-2.6,4.1-7.8,6.9-8.9c3.8-1.4,12.9-9.2,16.7-13.3
		c3.8-4.1,6.1-4.1,6.1-4.1s-7.7,23.4-15.2,25.5C116.3,174.1,110.8,174.6,108.2,174.7z"/>
	<path class="st14" d="M176.4,105.7c0,0,7.2-11.1,12.8-14.5c0,0,5.3-2.3,16.2-2c0.3,0,0.5,0.2,0.6,0.4c0.9,2.1,5.1,11.8,6.5,22.1
		c0.1,0.4-0.2,0.7-0.6,0.8l-33.6,3.9L176.4,105.7z"/>
	<path class="st14" d="M209.8,89.4c0.7,1.7,6,13.5,7.8,22c0.1,0.3,0.4,0.6,0.7,0.5c2.8-0.2,14.9-1,17-1.4c2-0.4,5.3-1.7,6.4-2.2
		c0.2-0.1,0.3-0.3,0.2-0.5c-0.6-1.6-3.3-7.8-8.4-11.5c-5.5-4-21.7-6.8-23.7-7.2C209.8,89.2,209.8,89.3,209.8,89.4z"/>
	<path class="st12" d="M171.6,117.9c0.5,1.6,21.7-1,21.7-1s3.7-1,3.4-4.9c-0.3-3.9-8.9-5.6-11.4-5.6s-7.2-0.1-7.3,1.4
		s-0.4,6.2-0.4,6.2h-3C174.6,113.9,170.3,113.6,171.6,117.9z"/>
	<path class="st14" d="M218.4,127l-8.9,0.9c-0.5,0-0.9-0.3-1-0.8l0,0c0-0.5,0.3-0.9,0.8-1l8.9-0.9c0.5,0,0.9,0.3,1,0.8l0,0
		C219.2,126.5,218.9,127,218.4,127z"/>
	<path class="st14" d="M248.8,123l-8.9,0.9c-0.5,0-0.9-0.3-1-0.8l0,0c0-0.5,0.3-0.9,0.8-1l8.9-0.9c0.5,0,0.9,0.3,1,0.8l0,0
		C249.6,122.5,249.3,123,248.8,123z"/>
	<path class="st14" d="M40.9,137.2c0,0,1.9-7,4.2-9.8c2.3-2.8,6.4-2.2,6.4-2.2s-4,3.9,0.4,7.2c0,0,1.3,2.2-1.3,4.2
		c-2.6,2-4.9,3.6-6.2,3L40.9,137.2z"/>
	<path class="st14" d="M86,138.5c0,0,7.2-4.3,9.8-4.8s29.2-5.4,29.2-5.4l20.8-4.7c0,0,0.3,3.6-2.6,5.1s-21.8,10.5-24.5,11.4
		c-2.7,0.9-23.6,2.2-23.6,2.2S86.6,139.2,86,138.5z"/>
	<path class="st14" d="M259.4,120.1l6.6,4.7c0,0,1.9-2,2-5.7c0.1-3.6-2.6-4.2-2.6-4.2h-5.2c-0.8,0-1.5,0.7-1.5,1.5v2.5
		C258.7,119.4,259,119.8,259.4,120.1z"/>
</g>
</svg>
