<svg xmlns="http://www.w3.org/2000/svg" xmlns:xlink="http://www.w3.org/1999/xlink" viewBox="0 0 141 36">
        <defs>
                <path id="prefix__a" d="M0 0L52.8 0 52.8 9.301 0 9.301z"/>
                <path id="prefix__c" d="M0 0.532L15.556 0.532 15.556 30.524 0 30.524z"/>
                <path id="prefix__e" d="M0.644 0.056L20.542 0.056 20.542 15.441 0.644 15.441z"/>
        </defs>
        <g fill="none" fill-rule="evenodd">
                <path fill="#707071" d="M118.056 31.876h2.266V16.687h-2.266v15.189zm20.419-9.717l-2.6 6.585h-.077l-2.697-6.585h-2.442l4.044 9.203-2.305 5.12h2.364l6.233-14.323h-2.52zm-12.857 7.991c-.743 0-1.778-.37-1.778-1.289 0-1.172 1.29-1.621 2.403-1.621.996 0 1.465.215 2.071.508-.176 1.406-1.387 2.402-2.696 2.402zm.274-8.323c-1.642 0-3.342.723-4.046 2.325l2.013.84c.43-.84 1.231-1.113 2.071-1.113 1.172 0 2.364.703 2.384 1.953v.156c-.41-.234-1.29-.585-2.364-.585-2.17 0-4.377 1.191-4.377 3.42 0 2.031 1.778 3.34 3.771 3.34 1.524 0 2.364-.683 2.891-1.485h.08v1.172h2.188v-5.822c0-2.696-2.013-4.201-4.611-4.201zm-14.01 2.181h-3.225v-5.206h3.225c1.694 0 2.656 1.404 2.656 2.602 0 1.178-.962 2.604-2.656 2.604zm-.06-7.32h-5.432v15.188h2.267v-5.754h3.166c2.513 0 4.982-1.82 4.982-4.718 0-2.898-2.47-4.716-4.982-4.716zm-29.62 13.466c-1.566 0-2.876-1.312-2.876-3.112 0-1.82 1.31-3.151 2.876-3.151 1.547 0 2.76 1.33 2.76 3.151 0 1.8-1.213 3.112-2.76 3.112zm2.604-7.144h-.08c-.508-.607-1.487-1.156-2.72-1.156-2.583 0-4.95 2.27-4.95 5.188 0 2.897 2.367 5.147 4.95 5.147 1.233 0 2.212-.547 2.72-1.174h.08v.744c0 1.977-1.057 3.034-2.76 3.034-1.39 0-2.251-.999-2.604-1.841l-1.976.823c.567 1.37 2.074 3.053 4.58 3.053 2.662 0 4.912-1.566 4.912-5.382v-9.278h-2.152v.842zm3.718 8.866h2.27V16.687h-2.27v15.189zm5.618-5.01c-.06-1.997 1.546-3.015 2.7-3.015.901 0 1.664.45 1.919 1.097l-4.619 1.918zm7.045-1.722c-.43-1.156-1.741-3.29-4.423-3.29-2.662 0-4.873 2.096-4.873 5.169 0 2.895 2.191 5.166 5.127 5.166 2.37 0 3.738-1.449 4.307-2.29l-1.763-1.175c-.586.862-1.388 1.43-2.544 1.43-1.154 0-1.976-.53-2.505-1.566l6.91-2.858-.236-.586zM46.142 23.44v2.191h5.245c-.156 1.234-.566 2.134-1.193 2.76-.764.763-1.958 1.606-4.052 1.606-3.23 0-5.754-2.604-5.754-5.834 0-3.229 2.525-5.833 5.754-5.833 1.742 0 3.014.687 3.954 1.567l1.547-1.546c-1.312-1.253-3.054-2.212-5.501-2.212-4.423 0-8.142 3.601-8.142 8.024 0 4.424 3.719 8.025 8.142 8.025 2.388 0 4.19-.783 5.598-2.25 1.448-1.449 1.898-3.485 1.898-5.129 0-.509-.038-.978-.117-1.37h-7.379zm13.46 6.713c-1.566 0-2.917-1.292-2.917-3.131 0-1.86 1.351-3.132 2.917-3.132 1.565 0 2.916 1.272 2.916 3.132 0 1.84-1.35 3.13-2.916 3.13zm0-8.3c-2.858 0-5.187 2.174-5.187 5.169 0 2.975 2.329 5.166 5.187 5.166s5.187-2.191 5.187-5.166c0-2.995-2.33-5.169-5.187-5.169zm11.315 8.3c-1.566 0-2.916-1.292-2.916-3.131 0-1.86 1.35-3.132 2.916-3.132 1.565 0 2.916 1.272 2.916 3.132 0 1.84-1.351 3.13-2.916 3.13zm0-8.3c-2.858 0-5.186 2.174-5.186 5.169 0 2.975 2.328 5.166 5.186 5.166 2.857 0 5.187-2.191 5.187-5.166 0-2.995-2.33-5.169-5.187-5.169z" transform="translate(0 -1)"/>
                <g transform="translate(0 -1) translate(38.2 .34)">
                        <mask id="prefix__b" fill="#fff">
                                <use xlink:href="#prefix__a"/>
                        </mask>
                        <text fill="#707071" font-family="Avenir-Book, Avenir" font-size="9.992" mask="url(#prefix__b)">
                                <tspan x="0" y="8">GET IT ON</tspan>
                        </text>
                </g>
                <g>
                        <g transform="translate(0 -1) translate(0 3) translate(0 .944)">
                                <mask id="prefix__d" fill="#fff">
                                        <use xlink:href="#prefix__c"/>
                                </mask>
                                <path fill="#3CCFFD" d="M.642.532L15.554 15.44l.002.087-.012.087L.642 30.524l-.088-.086c-.348-.37-.554-.94-.554-1.681V2.299C0 1.558.206.987.554.618L.642.532z" mask="url(#prefix__d)"/>
                        </g>
                        <path fill="#FCCB2F" d="M15.554 16.385l.002.087-.012.087 4.998 5.03.113-.064 5.854-3.328c1.67-.949 1.67-2.502 0-3.453l-5.854-3.326-.112-.062-4.99 5.03z" transform="translate(0 -1) translate(0 3)"/>
                        <path fill="#EE344F" d="M.635 31.47c.55.582 1.462.654 2.486.072l17.42-9.954-4.997-5.029L.634 31.47z" transform="translate(0 -1) translate(0 3)"/>
                        <g transform="translate(0 -1) translate(0 3) translate(0 .944)">
                                <mask id="prefix__f" fill="#fff">
                                        <use xlink:href="#prefix__e"/>
                                </mask>
                                <path fill="#4CE27A" d="M.644.53l14.91 14.91 4.988-5.028L3.13.458C2.65.184 2.194.055 1.79.055 1.331.055.937.22.644.53" mask="url(#prefix__f)"/>
                        </g>
                </g>
        </g>
</svg>
