<svg xmlns="http://www.w3.org/2000/svg" xmlns:xlink="http://www.w3.org/1999/xlink" viewBox="0 0 246 214">
        <defs>
                <path id="prefix__a" d="M0 0H280V240H0z"/>
                <path id="prefix__c" d="M0 0.076L68.985 0.076 68.985 68.727 0 68.727z"/>
        </defs>
        <g fill="none" fill-rule="evenodd" transform="translate(0 -15)">
                <mask id="prefix__b" fill="#fff">
                        <use xlink:href="#prefix__a"/>
                </mask>
                <g mask="url(#prefix__b)">
                        <g>
                                <path fill="#00708D" d="M210.72 55.181c32.066 29.872 3.96 59.89-23.876 71.73-15.571 6.623 19.08 29.069 16.947 54.532-3.097 36.994-82.4 39.336-111.944 22.588-37.775-21.414-53.177-78.654-22.573-114.449 30.37-35.522 34.085-12.756 50.514-44.452 16.43-31.695 24.762-50.824 57.52-43.611C206.893 8.034 195.9 41.377 210.72 55.18" opacity=".15" transform="translate(0 15)"/>
                                <path fill="#00708D" d="M110.673 128s-24.384-.308-44.822-11.328c-20.438-11.02-18.564-27.09-16.275-31.515 5.316-10.275 20.54-6.28 20.54-6.28s-16.526-7.968-22.32-26.294C42 34.257 51.886 30.349 54.183 29.69c2.296-.658 11.605-3.015 25.68 7.505C97.068 50.053 97.87 64.704 97.87 64.704s7.166-17.65 18.784-13.12c6.542 2.552 10.812 9.412 13.342 16.915 1.964 5.821 2.882 12.029 3.002 16.91.277 11.17-22.324 42.591-22.324 42.591" opacity=".5" transform="translate(0 15)"/>
                                <path fill="#38434B" d="M94.352 93c-.02-.081-2.095-8.384-13.607-29.764-6.521-12.11-14.26-20.065-19.605-24.606-5.792-4.92-10.097-7.003-10.14-7.024l.286-.606c.043.02 4.41 2.13 10.263 7.1 5.394 4.579 13.205 12.602 19.782 24.816C92.899 84.399 94.98 92.76 95 92.842l-.648.158z" transform="translate(0 15)"/>
                                <path fill="#38434B" d="M64.177 41L62 30.093 62.823 30 65 40.907zM45.098 45L45 44.248 63.902 41 64 41.752zM49.102 54L49 53.361 74.993 49.713 75.311 33 76 33.011 75.672 50.27 75.383 50.31z" transform="translate(0 15)"/>
                                <path fill="#38434B" d="M53.122 66L53 65.339 79.363 60.673 83.327 41 84 41.13 79.945 61.252 79.715 61.293z" transform="translate(0 15)"/>
                                <path fill="#38434B" d="M64.048 76L64 75.317 86.2 73.637 91.359 50 92 50.152 86.733 74.284z" transform="translate(0 15)"/>
                                <path fill="#38434B" d="M91.725 84L76 82.3 76.069 81.621 91.271 83.264 97.375 65 98 65.223zM48.222 95L48 94.383 64.096 88.873 59.34 78.263 59.954 78 65 89.258z" transform="translate(0 15)"/>
                                <path fill="#38434B" d="M52.283 106L52 105.392 75.154 94.96 69.555 79.221 70.196 79 76 95.315zM61.289 116L61 115.402 87.206 104.142 83.746 88.131 84.429 88 88 104.523z" transform="translate(0 15)"/>
                                <path fill="#38434B" d="M74.269 120L74 119.363 96.299 109.403 95.433 94.04 96.107 94 97 109.846z" transform="translate(0 15)"/>
                                <path fill="#38434B" d="M111.591 129l-.468-.74c-.122-.193-12.461-19.462-31.558-30.983C63.896 87.824 50.137 85.638 50 85.617l.102-.66c.139.02 14.022 2.223 29.813 11.75 17.134 10.336 28.86 26.857 31.305 30.481.696-4.1 3.798-22.603 6.377-41.85 1.387-10.35.54-19.068-.416-24.56-1.035-5.95-2.416-9.5-2.43-9.535l.627-.243c.014.035 1.416 3.632 2.463 9.643.966 5.542 1.823 14.34.423 24.784-2.91 21.725-6.488 42.505-6.524 42.712l-.149.861z" transform="translate(0 15)"/>
                                <path fill="#38434B" d="M116.926 67L101 58.609 101.319 58 116.8 66.157 124.518 58.477 125 58.965zM116.366 83L116.154 82.901 97 74.038 97.309 73.458 116.251 82.223 129.533 71 130 71.48zM115.3 100L98 88.382 98.357 87.803 115.263 99.156 132.593 85 133 85.542zM112.592 113L98 101.485 98.439 101 112.637 112.204 124.619 104.629 125 105.155z" transform="translate(0 15)"/>
                                <path fill="#38434B" d="M116.898 91L97 81.018 97.304 80.439 116.854 90.247 132.632 80 133 80.542z" transform="translate(0 15)"/>
                                <g transform="translate(0 15) translate(0 101)">
                                        <mask id="prefix__d" fill="#fff">
                                                <use xlink:href="#prefix__c"/>
                                        </mask>
                                        <path fill="#E8F5F5" d="M34.492.076c19.05 0 34.493 15.368 34.493 34.326 0 18.957-15.443 34.325-34.493 34.325C15.442 68.727 0 53.359 0 34.402 0 15.444 15.443.076 34.492.076" mask="url(#prefix__d)"/>
                                </g>
                                <path fill="#00708D" d="M42.5 88C61.554 88 77 103.446 77 122.5c0 19.054-15.446 34.5-34.5 34.5C23.446 157 8 141.554 8 122.5 8 103.446 23.446 88 42.5 88" transform="translate(0 15)"/>
                                <path fill="#002731" d="M72.5 110.338c-23.248 0-42.163 18.913-42.163 42.162 0 23.248 18.915 42.162 42.163 42.162 23.248 0 42.162-18.914 42.162-42.162 0-23.249-18.914-42.162-42.162-42.162m0 85.662C48.514 196 29 176.486 29 152.5S48.514 109 72.5 109s43.5 19.514 43.5 43.5S96.486 196 72.5 196" transform="translate(0 15)"/>
                                <path fill="#002731" d="M195 56.765h-1.102V26.511C193.898 16.84 186.076 9 176.427 9H112.47C102.822 9 95 16.84 95 26.51v165.98c0 9.67 7.822 17.51 17.471 17.51h63.956c9.649 0 17.471-7.84 17.471-17.51V78.3H195V56.766z" transform="translate(0 15)"/>
                                <path fill="#002731" d="M51 210L240 210 240 208 51 208z" transform="translate(0 15)"/>
                                <path fill="#E8F5F5" d="M177.43 46.858c-.005 1.86-1.509 3.366-3.366 3.372h-58.346c-1.857-.006-3.361-1.512-3.367-3.372v-.843c.006-1.86 1.51-3.365 3.367-3.371h58.346c1.857.006 3.361 1.512 3.366 3.371v.843zm0 14.89c-.005 1.86-1.509 3.367-3.366 3.372h-58.346c-1.857-.005-3.361-1.511-3.367-3.371v-.843c.006-1.86 1.51-3.366 3.367-3.372h58.346c1.857.006 3.361 1.512 3.366 3.372v.843zm0 14.891c-.005 1.86-1.509 3.366-3.366 3.372h-58.346c-1.857-.006-3.361-1.512-3.367-3.372v-.843c.006-1.86 1.51-3.366 3.367-3.371h58.346c1.857.005 3.361 1.511 3.366 3.371v.843zm-1.823 14.89c-.005 1.86-1.51 3.366-3.366 3.372h-16.27c-1.856-.006-3.36-1.512-3.366-3.371v-.843c.005-1.86 1.51-3.366 3.366-3.371h16.27c1.857.005 3.36 1.511 3.366 3.37v.844zM177.004 15h-8.315c1.288 3.163-.228 6.772-3.385 8.062-.74.302-1.532.458-2.331.458h-36.494c-3.41 0-6.174-2.77-6.174-6.185 0-.8.156-1.593.457-2.335h-7.766C105.819 15 100 20.828 100 28.017v164.967c0 7.188 5.819 13.016 12.996 13.016h64.008c7.177 0 12.996-5.828 12.996-13.016V28.017C190 20.828 184.181 15 177.004 15z" transform="translate(0 15)"/>
                                <path fill="#E8F5F5" d="M117 75c1.105 0 2 .895 2 2s-.895 2-2 2c-1.104 0-2-.895-2-2s.896-2 2-2M123 75c1.105 0 2 .895 2 2s-.895 2-2 2c-1.104 0-2-.895-2-2s.896-2 2-2M130 75c1.105 0 2 .895 2 2s-.895 2-2 2c-1.104 0-2-.895-2-2s.896-2 2-2M136 75c1.105 0 2 .895 2 2s-.895 2-2 2-2-.895-2-2 .895-2 2-2M157 90c1.105 0 2 .895 2 2s-.895 2-2 2c-1.104 0-2-.895-2-2s.896-2 2-2M164 90c1.105 0 2 .895 2 2s-.895 2-2 2c-1.104 0-2-.895-2-2s.896-2 2-2M170 90c1.105 0 2 .895 2 2s-.895 2-2 2c-1.104 0-2-.895-2-2s.896-2 2-2" transform="translate(0 15)"/>
                                <path fill="#A5B0B3" d="M158.487 182h-28.975c-3.6.003-6.516 2.468-6.512 5.506.004 3.033 2.917 5.49 6.512 5.494h28.975c3.601-.003 6.517-2.468 6.513-5.506-.004-3.033-2.917-5.49-6.513-5.494" transform="translate(0 15)"/>
                                <path fill="#A5B0B3" fill-opacity=".5" d="M180.679 119h-71.358c-3.49 0-6.321 2.865-6.321 6.4v35.2c0 3.535 2.83 6.4 6.321 6.4h71.358c3.49 0 6.321-2.865 6.321-6.4v-35.2c0-3.535-2.83-6.4-6.321-6.4" transform="translate(0 15)"/>
                                <path fill="#EBECED" d="M222 129L246 129 246 105 222 105z" transform="translate(0 15)"/>
                                <path fill="#00708D" d="M217 135L241 135 241 111 217 111z" opacity=".5" transform="translate(0 15)"/>
                                <path fill="#002731" d="M200.348 152.652h28.304v-28.304h-28.304v28.304zM199 154h31v-31h-31v31z" transform="translate(0 15)"/>
                        </g>
                </g>
        </g>
</svg>
